<?xml version="1.0" encoding="UTF-8"?>
<svg version="1.1" viewBox="0 0 1600 1544" width="1280" height="1280" xmlns="http://www.w3.org/2000/svg">
<path transform="translate(0)" d="m0 0h1600v1544h-1600v-1544z" fill="#FBFEFE"/>
<path transform="translate(516,763)" d="m0 0c4.05 3.26 7.75 6.88 11.4 10.5 1.58 1.5 3.24 2.86 4.94 4.22 0.86 0.75 1.72 1.49 2.61 2.25v2c0.99 0.33 1.98 0.66 3 1 1.36 1.38 1.36 1.38 2.87 3.24 4.82 5.68 10.1 10.9 15.4 16.1 1.89 1.87 3.77 3.75 5.66 5.62 5.35 5.33 10.7 10.7 16.1 16 3.29 3.26 6.58 6.53 9.87 9.81 1.25 1.24 2.5 2.49 3.76 3.73 1.74 1.72 3.48 3.45 5.22 5.19 0.52 0.51 1.04 1.02 1.58 1.55 3.54 3.55 3.54 3.55 3.54 5.78 0.59 0.26 1.19 0.51 1.8 0.77 2.43 1.36 3.69 2.71 5.45 4.85 4.45 5.25 9.11 10.3 14.5 14.6 2.53 2.03 4.37 4.17 6.25 6.81v2c0.57 0.25 1.14 0.5 1.73 0.75 2.62 1.44 4.42 3.13 6.52 5.25 1.06 1.05 1.06 1.05 2.14 2.12 1.61 1.88 1.61 1.88 1.61 3.88 0.59 0.26 1.19 0.51 1.8 0.78 2.42 1.34 3.67 2.67 5.41 4.8 3.91 4.62 8.12 8.86 12.4 13.1 0.74 0.73 1.48 1.46 2.24 2.22 1.42 1.41 2.85 2.82 4.27 4.24 2.3 2.27 4.58 4.56 6.87 6.85 0.98 0.97 1.96 1.94 2.94 2.9 1.02 1.01 2.04 2.03 3.06 3.04 0.51 0.5 1.02 1 1.54 1.51 2.5 2.49 4.88 5 7.12 7.74 1.87 2.25 3.59 4.04 5.84 5.87 3.87 3.29 7.43 6.83 11 10.4 4.15 4.2 8.35 8.24 12.8 12.1 2.37 2.04 4.55 4.13 6.66 6.43v2c0.57 0.26 1.14 0.52 1.73 0.78 2.48 1.33 4.4 2.87 6.52 4.72 0.71 0.61 1.41 1.22 2.14 1.84 1.61 1.66 1.61 1.66 1.61 3.66 0.53 0.21 1.07 0.42 1.62 0.63 3.33 1.92 5.83 4.57 8.5 7.3 0.58 0.58 1.16 1.16 1.76 1.77 1.86 1.86 3.71 3.74 5.56 5.61l3.72 3.75c2.29 2.31 4.57 4.61 6.86 6.93 4.42 4.47 8.88 8.9 13.4 13.3 1.53 1.52 3.07 3.04 4.6 4.56 1.06 1.05 2.11 2.09 3.17 3.13 1.54 1.51 3.07 3.03 4.6 4.56 1.37 1.35 1.37 1.35 2.76 2.73 4.18 4.55 7.07 8.44 7.49 14.7l-1 3c-0.12 1.07-0.25 2.14-0.38 3.25-0.89 5.36-3.13 9.95-5.62 14.8h-2c-0.12 0.7-0.24 1.4-0.37 2.12-0.25 1.36-0.25 1.36-0.51 2.76-0.16 0.9-0.32 1.8-0.49 2.74-0.63 2.38-0.63 2.38-2.63 4.38-0.73 1.94-1.47 3.87-2.17 5.82-1.29 3.38-2.97 6.54-4.64 9.74-3.91 7.65-7.12 15.4-10.2 23.4-0.75 1.88-1.5 3.75-2.25 5.62-0.29 0.74-0.59 1.47-0.89 2.23-0.62 1.56-1.25 3.12-1.89 4.67-0.85 2.17-1.59 4.32-2.28 6.54-2.26 6.85-5.19 13.4-8.02 20.1-2.49 5.89-4.74 11.8-6.67 17.9-0.72 2.18-1.45 4.36-2.18 6.53-0.62 1.85-1.21 3.71-1.79 5.56-0.34 1.07-0.68 2.13-1.03 3.22-0.31 0.99-0.62 1.97-0.94 2.99-1.06 2.7-1.06 2.7-2.54 4.55-2.2 3.11-2.93 6.57-3.9 10.2-1.69 6.11-3.71 11.7-6.49 17.4-1.54 3.41-2.51 6.9-3.45 10.5-0.68 2-0.68 2-2.68 4-0.79 1.89-0.79 1.89-1.44 4.06-0.25 0.8-0.5 1.59-0.76 2.41-0.4 1.25-0.4 1.25-0.8 2.53-0.56 1.69-1.12 3.38-1.69 5.06-0.37 1.13-0.37 1.13-0.76 2.29-0.18 0.54-0.36 1.09-0.55 1.65h-2c-0.11 0.67-0.23 1.34-0.35 2.02-0.79 3.62-1.91 7.1-3.09 10.6-0.21 0.67-0.43 1.34-0.66 2.03-1.04 3.12-2.06 5.59-3.9 8.35-0.66 2-1.31 4.01-1.96 6.01-3.78 10.9-7.93 20.8-15 30-0.78 1.2-1.55 2.41-2.31 3.62-0.56 0.79-1.12 1.57-1.69 2.38h-2c-0.24 0.57-0.48 1.14-0.72 1.73-16.8 29.8-75.7 40.6-105 49.9-10.3 3.32-20.6 6.67-31 10-0.86 0.28-1.72 0.56-2.6 0.85-11 3.58-22 7.19-33 10.9-6.77 2.26-13.6 4.44-20.4 6.59-12.3 3.89-24.5 7.92-36.8 11.9-8.5 2.78-17 5.53-25.5 8.21-9.16 2.87-18.3 5.89-27.4 8.94-1.5 0.5-2.99 1-4.49 1.5-2.97 0.99-5.95 1.99-8.93 2.99-3.12 1.04-6.25 2.09-9.38 3.13-1.2 0.4-1.2 0.4-2.43 0.8-1.52 0.51-3.04 1.01-4.56 1.52-5.73 1.9-11.4 3.92-17.1 5.97-3.26 1.17-6.54 2.26-9.83 3.34-2.59 0.88-5.15 1.81-7.71 2.75-4.81 1.76-9.64 3.4-14.5 5-1.14 0.39-1.14 0.39-2.31 0.78-3.47 1.17-6.92 2.28-10.4 3.28-3.16 0.86-3.16 0.86-5.75 1.94-3.11 1.24-6.28 2.09-9.5 3-6.59 2.08-13.1 4.45-19.6 6.82-3.45 1.19-6.92 2.19-10.4 3.18-1.36 0.48-2.72 0.97-4.06 1.5-3.29 1.26-6.59 2.41-9.94 3.5-1.5 0.5-3 1-4.5 1.5-2.52 0.84-5.04 1.68-7.56 2.5-2.32 0.79-4.59 1.63-6.88 2.5-3.64 1.38-7.31 2.45-11.1 3.5-8.76 2.76-17.4 5.9-26 9.14-5.03 1.89-9.89 3.43-15.2 4.37-2.02 0.4-2.02 0.4-3.78 2.49-3.32 0.87-6.67 1.53-10 2.22-3.06 0.54-3.06 0.54-4.97 2.78-2.56 0.74-5.09 1.4-7.69 2-1.4 0.33-2.8 0.67-4.2 1-0.69 0.16-1.39 0.33-2.1 0.5-1.84 0.46-3.65 1.01-5.46 1.56-5 1.32-10 1.7-15.1 2.15-4.38 0.36-4.38 0.36-8.45 1.84-3.23 1.56-6.69 1.16-10.2 1.07-0.75 0-1.49-0.01-2.26-0.02-1.83-0.03-3.66-0.06-5.49-0.1-0.5-1.49-0.5-1.49-1-3 1.3-2.21 1.3-2.21 3.31-4.81 0.74-0.97 1.48-1.94 2.24-2.94 0.4-0.53 0.79-1.05 1.21-1.59 1.29-1.72 2.53-3.48 3.76-5.25 3.93-5.66 7.78-11.1 12.8-15.9 1.76-1.67 3.31-3.45 4.88-5.3 4.63-5.37 9.71-10.3 14.8-15.2 1.3-1.31 1.3-1.31 2.62-2.66 1.87-1.84 3.72-3.51 5.76-5.15 3.3-2.79 6.07-5.86 8.85-9.16 2.15-2.46 4.44-4.74 6.77-7.03l11-11c0.88-0.89 1.76-1.78 2.66-2.7 2.34-2.3 2.34-2.3 5.22-4.61 2.47-2.01 4.49-4.2 6.56-6.63 2.21-2.6 4.42-4.89 7.06-7.06 3.31-2.72 5.97-5.79 8.74-9.05 2.2-2.43 4.62-4.44 7.14-6.52 2.5-2.21 4.49-4.86 6.62-7.43 1.46-1.21 2.92-2.41 4.41-3.59 1.84-1.63 3.37-3.41 4.97-5.29 2.38-2.8 4.81-5.25 7.62-7.62 3.47-2.93 6.34-6.12 9.27-9.59 2.2-2.43 4.64-4.46 7.17-6.54 2.16-1.9 3.81-4.1 5.56-6.37 2.51-2.64 5.03-5.03 7.88-7.31 3.2-2.61 5.78-5.64 8.46-8.77 2.1-2.43 4.36-4.68 6.66-6.92 0.72-0.74 1.44-1.49 2.19-2.25 2.5-2.44 5.06-4.75 7.69-7.06 3.81-3.41 7.18-6.94 10.5-10.8 2.15-2.4 4.55-4.37 7.03-6.41 1.88-1.58 1.88-1.58 4.12-4.43 1.93-2.32 3.58-3.99 5.88-5.88 2.65-2.19 4.89-4.49 7.12-7.12 2.7-3.18 5.54-5.8 8.75-8.44 2.6-2.32 4.75-4.97 7-7.62 2.17-2.41 4.57-4.4 7.08-6.45 1.71-1.53 3.06-3.13 4.48-4.93 10.9-13 28.1-18.1 44.1-21.2 2.85-0.55 5.68-1.24 8.51-1.9 4.73-1.03 9.46-1.79 14.3-2.47 1.2-0.17 2.41-0.34 3.66-0.52 2.43-0.33 4.87-0.66 7.31-0.98 1.13-0.15 2.26-0.31 3.43-0.47 1.01-0.13 2.03-0.26 3.08-0.4 5.26-1.23 8.46-4.04 11.9-8.04 0.67-0.75 1.33-1.5 2.01-2.27 1.95-2.34 1.95-2.34 3.49-5.14 0.45-0.73 0.91-1.46 1.38-2.21h2c0.25-0.71 0.49-1.42 0.75-2.15 1.41-3.21 3.17-5.64 5.31-8.41 0.82-1.07 1.63-2.13 2.44-3.2 0.63-0.81 0.63-0.81 1.26-1.63 5.2-6.75 10.3-13.6 15.2-20.6 1.09-1.56 1.09-1.56 2.21-3.15 8.52-13.4 5.57-33.9 2.85-48.9-4.68-20.5-18.4-39.5-36-51-1.32-0.69-2.65-1.36-4-2v-2c-1.24-0.37-1.24-0.37-2.5-0.75-2.6-0.93-4.77-1.86-7.19-3.13-13.3-6.84-26.5-9.32-41.3-9.43-1.25-0.03-2.5-0.06-3.79-0.09-17.6-0.12-35.5 7.27-49.4 18.1-1.85 1.32-1.85 1.32-3.85 1.32l-1 3c-1.93 1.61-1.93 1.61-4.31 3.31-3.83 2.87-6.21 5.56-8.69 9.69-1.31 1.35-2.65 2.69-4 4-3.28 3.75-5.51 7.71-7.62 12.2-3.13 6.56-3.13 6.56-5.38 8.81-0.82 2.03-0.82 2.03-1.5 4.31-0.78 2.47-1.54 4.77-2.62 7.13-2.2 6.42-2.11 11.9-0.36 18.4 2.94 13.3 0.34 27.5-6.08 39.2-4.04 6.29-9.26 11.6-14.4 16.9-0.73 0.77-1.46 1.54-2.21 2.33-4.27 4.42-8.85 8.02-13.8 11.7-1.38 1.03-2.76 2.07-4.14 3.11-8.25 6.18-8.25 6.18-10.2 7.61-1.36 1.03-2.71 2.08-4.05 3.14-1.64 1.14-1.64 1.14-3.64 1.14l-1 3c-2.11 1.87-2.11 1.87-4.75 3.88-2.91 2.25-5.71 4.44-8.25 7.12l-2 2h-2l-2 4h-2c-0.34 0.84-0.34 0.84-0.69 1.69-1.69 2.97-3.78 5.03-6.31 7.31h-2c-0.34 0.8-0.34 0.8-0.69 1.62-3.13 5.68-7.6 9.58-12.5 13.7-1.98 1.68-1.98 1.68-3.84 4.15-1.82 2.28-3.6 3.93-5.81 5.81-3.4 2.91-6.26 5.98-9.14 9.39-2.57 2.89-5.3 5.59-8.05 8.3-4 3.95-7.82 7.97-11.5 12.2-2.39 2.75-4.87 5.28-7.53 7.76h-2c-0.26 0.58-0.52 1.17-0.78 1.77-1.32 2.41-2.74 3.96-4.7 5.87-0.69 0.68-1.38 1.36-2.09 2.06-0.72 0.7-1.44 1.39-2.18 2.11-4.53 4.42-8.88 8.84-13 13.7-1.66 1.91-3.47 3.52-5.42 5.12-3.03 2.58-5.46 5.21-7.88 8.38l-5 5c-1.51 1.66-3.01 3.33-4.5 5-3.08 3.44-6.24 6.74-9.5 10-1.15 1.33-2.3 2.66-3.44 4-2.93 3.39-6.11 6.13-9.56 9-1.14 1.27-2.27 2.57-3.38 3.88-3.94 4.61-8.3 9.47-13.8 12.2-2.41 1.22-2.65 2.52-3.82 4.92-3.56 3.99-7.65 7.09-11.9 10.3-2.25 1.72-2.25 1.72-4.56 4.12-12.1 12.1-12.1 12.1-20.4 12.9-4.35-0.13-6.8-1.51-10.1-4.38-3.11-3.51-4.03-5.08-3.88-9.81 0.27-1.4 0.57-2.8 0.88-4.19 0.13-0.72 0.26-1.45 0.39-2.2 1.08-5.68 3.14-10.6 5.61-15.8 3.31-7.59 6.44-15.2 9-23.1 1.13-3.46 2.32-6.78 3.88-10.1 2.45-5.28 4.15-10.8 5.93-16.3 1.5-4.65 3.22-9.09 5.19-13.6 2.38-6.36 4.14-12.9 5.94-19.5 0.96-3.21 2.08-6.29 3.28-9.41 1.39-3.76 2.54-7.6 3.72-11.4 1.9-6.09 3.9-12.1 6.13-18.1 2.81-7.85 5.08-15.9 7.12-24 0.82-2.65 1.89-5.11 3.01-7.64 1.54-3.82 2.6-7.79 3.74-11.7 1.78-6.17 3.75-12.2 5.98-18.2 1.88-5.25 3.56-10.6 5.25-15.9 1.11-3.46 2.22-6.91 3.33-10.4 0.21-0.68 0.43-1.36 0.66-2.06 2.53-7.86 5.14-15.7 7.77-23.5 1.33-3.96 2.64-7.92 3.96-11.9 0.79-2.39 1.59-4.79 2.38-7.18 0.52-1.55 1.03-3.11 1.55-4.67 9.98-30.1 9.98-30.1 14.2-39.2 2.14-4.96 3.71-10.1 5.39-15.3 0.43-1.31 0.86-2.61 1.29-3.92 2.48-7.51 4.92-15 7.36-22.6l2.4-7.44c0.55-1.7 1.1-3.39 1.65-5.08 4-12.4 8.13-24.7 12.4-37 4.54-13.2 8.99-26.4 13.3-39.6 0.28-0.85 0.55-1.69 0.83-2.56 3.46-10.6 6.69-21.2 9.67-32 4.95-17.8 11.1-34.1 20.7-49.8 0.52-0.88 1.04-1.75 1.57-2.66 1.9-3.14 3.81-5.79 6.43-8.34 1.14-1.26 2.26-2.53 3.38-3.81 0.92-1.06 0.92-1.06 1.85-2.14 1.49-1.73 2.95-3.47 4.39-5.24 4.08-4.83 8.53-8.88 13.6-12.7 0.57-0.43 1.14-0.86 1.73-1.31 1.69-1.28 3.38-2.54 5.08-3.81 0.86-0.65 1.72-1.29 2.61-1.96 6.46-4.68 13.3-8.4 20.4-12 1.15-0.6 2.3-1.2 3.48-1.82 6.77-3.48 13.6-6.49 20.7-9.13 2.14-0.8 4.24-1.68 6.32-2.61 4.29-1.77 8.67-3.07 13.1-4.38 3.14-0.99 6.2-2.09 9.27-3.27 3.7-1.39 7.44-2.68 11.2-3.98 0.86-0.3 1.71-0.59 2.59-0.9 4.77-1.67 9.56-3.33 14.4-4.97 13.2-4.52 13.2-4.52 26.1-9.73 3.61-1.52 7.27-2.86 10.9-4.21 4.56-1.68 9.03-3.43 13.4-5.5 5-2.34 10.1-4.29 15.3-6.2 7.12-2.63 14.2-5.44 21.2-8.3 1.04-0.42 2.08-0.84 3.15-1.28 4.95-2.03 9.83-4.17 14.7-6.47 8.15-3.81 16.6-6.97 24.9-10.2 3.1-1.2 6.18-2.42 9.22-3.75 10.6-4.54 23-5.63 33 0.7z" fill="#FDA34A"/>
<path transform="translate(1303 77.5)" d="m0 0c2.72 0.54 5.11 0.54 7.88 0.44 10.1-0.2 20.1 2.94 29.7 6.06 1.12 0.36 2.24 0.72 3.39 1.09 13.4 4.4 26.6 9.35 39.6 14.9v2c1.36 0.19 1.36 0.19 2.75 0.38 2.84 0.55 4.78 1.2 7.25 2.62v2c0.88 0.27 1.76 0.53 2.67 0.8 8.73 3.15 16.2 9.44 23.3 15.2 0.92 0.71 1.84 1.42 2.78 2.15 0.92 0.72 1.84 1.43 2.78 2.17 1.28 0.98 1.28 0.98 2.57 1.98 0.62 0.57 1.24 1.13 1.87 1.7v2c0.99 0.33 1.98 0.66 3 1 19.5 18.4 32.2 44.4 39 70 0.51 1.89 0.51 1.89 1.03 3.8 6.89 30.2 0.43 64.8-11 93.2-0.32 0.84-0.64 1.67-0.97 2.52-6.49 16.3-14.1 32-24 46.5-0.82 1.27-1.64 2.53-2.46 3.8-6.38 9.83-13.2 18.9-21.5 27.2-0.88 0.93-1.77 1.86-2.68 2.82-2.32 2.18-2.32 2.18-4.32 2.18-0.2 0.55-0.41 1.09-0.62 1.64-1.91 3.29-4.58 5.6-7.38 8.11-0.54 0.51-1.09 1.02-1.65 1.54-4.09 3.71-4.09 3.71-6.35 3.71-0.26 0.6-0.52 1.2-0.79 1.81-1.3 2.35-2.52 3.55-4.58 5.26-3.57 3.01-7.02 6.13-10.4 9.31-3.89 3.6-7.86 7.04-12 10.4-3.74 3.02-7.19 6.13-10.5 9.59-1.76 1.75-3.59 3.36-5.48 4.98-4.17 3.59-8 7.48-11.9 11.4-2.66 2.62-5.44 4.94-8.33 7.29-2.31 2.28-4.59 4.59-6.87 6.91-2.1 2.14-4.21 4.27-6.31 6.41-0.73 0.74-1.45 1.48-2.2 2.24-0.69 0.7-1.38 1.4-2.1 2.12-0.94 0.96-0.94 0.96-1.9 1.93-1.62 1.39-1.62 1.39-3.62 1.39-0.23 0.58-0.47 1.15-0.71 1.74-1.58 2.77-3.44 4.38-5.85 6.45-3.48 3.05-6.82 6.14-10.1 9.44-3.34 3.39-6.8 6.53-10.4 9.63-2.08 1.84-4.02 3.77-5.97 5.74-2.54 2.58-5.12 5.03-7.87 7.38-3.19 2.74-6.17 5.63-9.13 8.62-5.14 5.2-10.5 9.99-16.2 14.6-3.31 2.79-6.31 5.8-9.3 8.93-4.36 4.5-9.07 8.43-14 12.3-2.57 2.05-2.57 2.05-4.75 4.38-1.8 1.73-1.8 1.73-3.8 1.73l-1 3c-1.56 1.55-1.56 1.55-3.56 3.19-2.9 2.45-5.61 4.96-8.25 7.69-3.93 4-8.22 7.45-12.6 11-2.83 2.36-5.38 4.86-7.94 7.5-2.35 2.36-4.86 4.5-7.38 6.67-6.7 5.86-13.2 12-19.7 18-5.45 5.07-10.9 10.1-16.6 14.9-1.19 1.04-2.38 2.07-3.57 3.1-5.61 4.88-11.2 9.75-16.9 14.6-3.08 2.71-5.9 5.68-8.71 8.66-1.82 1.68-1.82 1.68-3.82 1.68l-1 3c-1.65 1.48-3.37 2.89-5.12 4.25-3.99 3.18-7.67 6.42-11.2 10.1-2.39 2.4-4.94 4.58-7.5 6.79-2.42 2.1-4.79 4.24-7.17 6.38-2.98 2.69-5.97 5.37-9 8-5.87 5.13-11.7 10.3-17.4 15.6-6.23 5.85-12.5 11.5-19.2 16.9-7.02 5.6-7.02 5.6-13.1 12.2-2.55 3.02-5.05 4.71-8.38 6.81-3.11 2.48-5.97 4.97-8.75 7.82-2.25 2.18-2.25 2.18-4.25 2.18l-1 3c-5.46 5-5.46 5-8 5l-1 3c-1.69 1.52-3.45 2.97-5.25 4.38-4.49 3.53-8.54 7.25-12.4 11.4-1.32 1.18-1.32 1.18-3.32 1.18-0.37 0.93-0.37 0.93-0.75 1.88-1.48 2.53-2.68 2.84-5.25 4.12-0.3 0.63-0.61 1.25-0.92 1.89-1.17 2.3-2.25 3.29-4.26 4.86-2.6 2.14-4.83 4.31-7 6.88-3.1 3.65-6.41 7.01-9.82 10.4-4.02 3.97-7.86 8.02-11.5 12.3-2.05 2.38-4.14 4.58-6.46 6.69h-2c-0.21 0.54-0.42 1.07-0.64 1.62-1.87 3.29-4.43 5.82-7.06 8.5-0.85 0.86-0.85 0.86-1.71 1.74-1.19 1.2-2.38 2.41-3.57 3.61-1.83 1.84-3.63 3.71-5.43 5.57-1.16 1.18-2.32 2.35-3.48 3.51-0.54 0.57-1.08 1.13-1.63 1.71-3.79 3.75-3.79 3.75-7.23 3.73-3.06-1.34-4.27-3.33-6.25-5.99-1.65-1.35-3.31-2.68-5-4-3.3-3.14-6.15-6.44-9-10l-2.25-2.25c-2.31-2.3-4.43-4.66-6.56-7.12-3.19-3.63-6.56-6.76-10.2-9.87-2.69-2.43-4.95-5.16-7.29-7.92-1.77-2.06-1.77-2.06-4.65-4.34-2.37-1.97-4.12-3.72-6.08-6.04-4.31-4.98-8.94-9.61-13.6-14.2-1.37-1.36-1.37-1.36-2.76-2.75-2.4-2.4-4.8-4.79-7.21-7.18-2.44-2.43-4.87-4.87-7.31-7.3-3.57-3.56-7.14-7.12-10.7-10.7-1.13-1.13-1.13-1.13-2.29-2.28-1.21-1.21-2.42-2.42-3.64-3.62-3.37-3.36-6.49-6.9-9.61-10.5-1.64-1.97-1.64-1.97-3.77-2.89v-2c-0.57-0.22-1.15-0.45-1.75-0.68-2.83-1.65-4.23-3.75-6.25-6.32-0.76-0.59-1.52-1.19-2.31-1.81-2.22-1.8-3.8-3.41-5.63-5.56-4.01-4.71-8.4-9.02-12.8-13.4-2.99-2.95-5.86-5.95-8.6-9.14-4.03-4.67-8.38-8.99-12.8-13.3-1.18-1.17-1.18-1.17-2.38-2.37-1.51-1.5-3.02-2.99-4.53-4.49-1.58-1.58-3.16-3.16-4.73-4.75-2.97-2.92-6.15-5.57-9.35-8.24-2-2.08-2.74-3.1-2.89-5.97 2.95-4.07 6.4-7.49 10-11 0.81-0.82 1.61-1.65 2.44-2.5 2.56-2.5 2.56-2.5 5.44-4.81 5.5-4.52 9.77-10.2 14.1-15.8 2.82-3.57 5.67-6.41 9.21-9.24 3.03-2.76 5.42-6.02 7.9-9.27 1.84-2.3 3.77-4.33 5.89-6.37 3.95-3.83 7.61-7.88 11.3-12 3.24-3.59 6.55-7.11 9.86-10.6 4.07-4.34 8.09-8.71 12-13.2 2.74-3.11 5.58-6.13 8.4-9.16 4.59-4.92 9.11-9.89 13.5-15 3.88-4.48 7.81-8.8 12-13 0.83-0.99 1.65-1.98 2.5-3 2.37-2.84 4.85-5.41 7.5-8 3.75-3.7 7.37-7.5 10.9-11.4 0.53-0.58 1.06-1.15 1.61-1.74 4.15-4.52 8.18-9.11 12.1-13.9 0.54-0.65 1.08-1.3 1.63-1.96 0.48-0.59 0.96-1.18 1.46-1.78 1.29-1.29 1.29-1.29 3.29-1.29 0.37-0.83 0.37-0.83 0.75-1.68 2.47-4.56 5.61-7.65 9.62-10.9 3.21-2.83 5.87-6.18 8.63-9.44 1.21-1.39 2.42-2.79 3.63-4.18 0.53-0.62 1.05-1.23 1.6-1.86 2.18-2.4 4.48-4.66 6.77-6.96 5.34-5.64 10.5-11.3 15.3-17.4 2.09-2.69 4.07-5.07 6.74-7.19 4.4-3.55 7.9-7.83 11.4-12.2 1.13-1.42 2.32-2.79 3.51-4.16h2c0.25-0.56 0.51-1.13 0.76-1.72 1.41-2.59 3.08-4.53 5.06-6.71 0.71-0.8 1.43-1.59 2.17-2.41 1.46-1.57 2.98-3.1 4.51-4.59 2.34-2.4 4.33-4.86 6.38-7.5 2.94-3.75 5.89-6.84 9.68-9.71 1.71-1.61 2.51-3.22 3.44-5.36h2c1.51-1.44 1.51-1.44 3.06-3.37 2.75-3.23 5.53-6.42 8.38-9.56 2.96-3.28 5.89-6.57 8.81-9.88 2.82-3.18 5.75-6.18 8.75-9.19 3.23-3.57 6.37-7.18 9.32-11 0.55-0.66 1.11-1.32 1.68-2h2c0.34-0.83 0.34-0.83 0.69-1.68 1.69-2.97 3.84-4.96 6.31-7.32 3.39-3.29 6.49-6.71 9.54-10.3 2.04-2.35 4.27-4.49 6.46-6.69 1.79-2.01 3.55-4.05 5.31-6.08 2.13-2.41 4.42-4.64 6.69-6.92 0.91-1.09 1.8-2.2 2.69-3.31 0.76-0.89 1.53-1.77 2.31-2.69h2c0.25-0.55 0.5-1.11 0.75-1.68 2.97-5.48 7.47-9.6 11.9-13.9 3-2.96 5.88-5.95 8.62-9.16 2.94-3.42 6.09-6.59 9.31-9.75 3.74-3.65 6.97-7.4 9.99-11.7 2.17-2.72 4.78-4.82 7.44-7.04 2.7-2.4 4.97-5.07 7.3-7.82 1.66-1.91 3.4-3.69 5.21-5.47 2.29-2.25 4.43-4.54 6.5-7 6.73-7.81 14.3-14.9 21.7-22.1 3.27-3.33 6.29-6.85 9.34-10.4 0.99-1 0.99-1 1.99-2.02h2c0.37-0.86 0.37-0.86 0.75-1.75 1.44-2.58 3.04-4.31 5.25-6.25h2c0.34-0.83 0.34-0.83 0.69-1.68 1.66-2.93 3.92-4.99 6.31-7.32 2.97-2.93 5.92-5.87 8.88-8.81 0.77-0.77 1.55-1.54 2.35-2.33 4.25-4.22 8.31-8.53 12.2-13.1 2.13-2.43 4.39-4.71 6.69-6.97 1.21-1.2 1.21-1.2 2.44-2.42 0.8-0.79 1.61-1.58 2.43-2.4 0.85-0.85 1.7-1.7 2.58-2.57 1.45-1.45 2.91-2.9 4.37-4.34 0.58-0.56 1.15-1.13 1.74-1.71 0.58-0.57 1.16-1.14 1.76-1.73 1.76-1.77 1.76-1.77 3.55-4.65h2c0.21-0.53 0.41-1.07 0.63-1.62 1.91-3.3 4.42-5.97 7.37-8.38h2c0.25-0.58 0.5-1.17 0.75-1.77 1.44-2.55 3-3.94 5.25-5.79 2.56-2.11 4.14-3.64 6-6.44h2c0.38-0.89 0.38-0.89 0.76-1.8 1.42-2.51 2.85-3.69 5.18-5.38 0.69-0.51 1.38-1.02 2.09-1.55 1.97-1.27 1.97-1.27 4.97-2.27 1.01-0.99 2.01-1.99 3-3 4.86-3.05 10.1-4.78 15.6-6.29 2.42-0.66 2.42-0.66 4.74-1.7 5.93-2.25 12.4-2.97 18.6-4.01 1.06-0.18 1.06-0.18 2.13-0.36 7.73-1.27 14.6-1.97 22.3-0.14z" fill="#FBFEFE"/>
<path transform="translate(1299,3)" d="m0 0c0.76 0.04 1.52 0.07 2.3 0.11 22.9 1.25 46.2 5.58 67.8 13.2 2.69 0.95 5.41 1.79 8.12 2.66 5.83 1.96 11.5 4.24 17.2 6.57 2.04 0.83 4.08 1.64 6.13 2.42 19.1 7.25 38 17.9 54.4 30 2.72 1.84 5.44 3.69 8.16 5.52 0.61 0.49 1.22 0.98 1.84 1.48v2c0.56 0.26 1.12 0.52 1.7 0.78 2.57 1.36 4.75 2.95 7.05 4.72 0.8 0.61 1.6 1.22 2.42 1.84 0.61 0.55 1.21 1.1 1.83 1.66v2c0.84 0.37 0.84 0.37 1.69 0.75 5.31 2.87 8.62 6.71 12.2 11.5 1.64 2.17 3.31 4.3 5 6.42 0.76 0.94 0.76 0.94 1.53 1.9 1 1.26 2.01 2.52 3.02 3.77 3.56 4.48 3.56 4.48 3.56 6.7 0.99 0.33 1.98 0.66 3 1 1.18 1.5 1.18 1.5 2.31 3.44 0.43 0.73 0.87 1.45 1.31 2.2 0.46 0.78 0.91 1.56 1.38 2.36 0.47 0.75 0.93 1.49 1.41 2.26 4.35 7.01 7.97 14.3 11.6 21.7l2.25 4.44c3.16 6.43 5.55 12.8 7.77 19.6 0.81 2.43 1.68 4.8 2.6 7.18 1.44 3.91 2.4 7.71 3.38 11.8 0.46 1.37 0.46 1.37 0.93 2.76 6.38 19.4 9.66 43 6.07 63.2-0.49 0.94-0.49 0.94-1 1.9-1.07 2.26-1.36 3.93-1.56 6.41-0.08 0.82-0.15 1.65-0.23 2.5-0.07 0.86-0.14 1.73-0.21 2.63-0.16 1.8-0.33 3.59-0.5 5.39-0.08 0.88-0.16 1.76-0.25 2.66-1.47 14.7-1.47 14.7-4.25 17.5-0.39 2.23-0.39 2.23-0.5 4.75-0.34 4.06-1.03 7.42-2.5 11.2-0.46 1.44-0.92 2.87-1.38 4.31-1.3 3.92-2.88 7.63-4.58 11.4-3.06 6.82-5.63 13.8-8.11 20.9-0.85 2.25-1.85 4.31-2.93 6.45-0.62 1.31-1.23 2.62-1.84 3.93-0.34 0.74-0.68 1.47-1.03 2.22-0.71 1.52-1.42 3.04-2.12 4.56-1.82 3.9-3.7 7.65-6.01 11.3-0.53 0.85-1.06 1.7-1.61 2.58-3.18 4.99-6.38 9.96-9.69 14.9-1.3 1.95-2.57 3.91-3.84 5.88-5.95 9.21-12.5 17.7-19.6 26.1-1.17 1.46-2.22 3.01-3.26 4.57h-2c-0.25 0.56-0.49 1.11-0.75 1.69-4.02 7.44-10.5 12.6-17.1 17.6-2.59 2.06-4.87 4.3-7.14 6.7-1.63 1.7-3.29 3.38-5 5h-2l-1 3c-1.64 1.46-3.33 2.84-5.06 4.19-3.53 2.81-6.87 5.62-10 8.87-3.62 3.73-7.53 6.91-11.6 10.1-2.36 1.83-2.36 1.83-4.47 4.09-1.83 1.77-1.83 1.77-3.83 1.77l-2 4h-2l-1 3c-1.6 1.61-1.6 1.61-3.62 3.31-0.73 0.62-1.45 1.23-2.19 1.87-1.35 1.12-2.71 2.25-4.07 3.36-2.96 2.47-5.6 4.92-8.06 7.9-2.72 3.29-5.73 5.98-8.98 8.74-4.38 3.84-8.39 8.08-12.5 12.3-2.36 2.3-4.78 4.49-7.24 6.68-3.8 3.39-7.43 6.89-11 10.5-4.94 4.99-10.1 9.6-15.4 14.1-3.27 2.8-6.28 5.55-9 8.89-2.41 2.94-4.93 5-8.13 7.04-2.53 1.87-4.62 4.09-6.81 6.34-6.3 6.39-12.6 12.7-19.6 18.3-2.74 2.2-5.05 4.44-7.26 7.15-2.73 3.31-5.77 5.67-9.24 8.16-2.55 1.9-4.67 4.13-6.88 6.4-1.78 1.55-3.58 3.07-5.38 4.6-1.25 1.08-2.45 2.23-3.62 3.4-2.26 2.26-4.66 4.29-7.12 6.34-1.46 1.29-2.85 2.63-4.23 4.01-3.3 3.3-6.73 6.41-10.2 9.54-3.24 2.96-6.36 6-9.46 9.11-1.21 1.12-2.44 2.23-3.69 3.31-0.58 0.51-1.16 1.03-1.76 1.55-1.55 1.14-1.55 1.14-3.55 1.14l-1 3c-1.5 1.51-1.5 1.51-3.44 3.12-3.19 2.71-6.33 5.45-9.44 8.26-2.62 2.36-5.24 4.73-7.87 7.09-0.89 0.79-1.78 1.59-2.69 2.41-0.8 0.71-1.6 1.43-2.43 2.17-2.1 1.87-2.1 1.87-3.79 3.71-1.34 1.24-1.34 1.24-3.34 1.24l-1 3c-1.45 1.21-1.45 1.21-3.25 2.38-3.35 2.17-5.95 4.77-8.75 7.62-2.01 1.89-4.03 3.76-6.06 5.62-0.57 0.52-1.13 1.04-1.71 1.57-1.17 1.08-2.33 2.15-3.5 3.22-1.66 1.52-3.31 3.05-4.96 4.57-4.88 4.49-9.77 8.94-14.8 13.3-2.35 2.06-4.67 4.15-6.99 6.24-2.94 2.65-5.89 5.28-8.88 7.88-3.42 2.98-6.78 6.04-10.1 9.12-7.48 6.87-7.48 6.87-10.6 9.69-0.62 0.55-1.23 1.1-1.86 1.67-1.52 1.14-1.52 1.14-3.52 1.14l-1 3c-5.47 5-5.47 5-8 5-0.2 0.55-0.4 1.1-0.61 1.66-1.95 3.28-4.72 5.4-7.64 7.78-0.84 0.69-0.84 0.69-1.7 1.41-2.2 1.82-4.41 3.63-6.63 5.44-3.34 2.73-6.39 5.64-9.42 8.71-6.72 6.36-13.6 12.6-20.6 18.6-0.59 0.51-1.17 1.02-1.77 1.55-2.25 1.93-4.34 3.67-7.01 4.98-2.03 0.8-2.03 0.8-2.66 3.85-1.9 1.66-1.9 1.66-4.38 3.5-6.06 4.71-11.3 10-16.6 15.5-2.7 2.75-5.38 5.39-8.38 7.81-3.37 2.84-6.15 6.03-9 9.39-2 2.22-4.29 3.93-6.62 5.8-1.77 1.94-3.47 3.93-5.18 5.93-1.71 1.94-3.47 3.76-5.32 5.57-2.35 2.31-4.55 4.68-6.69 7.19-4.52 5.25-9.48 10.1-14.4 14.9-1.31 1.3-2.62 2.61-3.93 3.92-1.7 1.7-3.41 3.39-5.12 5.08-4.8 4.75-9.42 9.55-13.8 14.7-2.28 2.51-4.94 4.54-7.55 6.7-1.02 1.15-2.02 2.32-3 3.5-2.73 3.3-5.67 5.81-9 8.5l-2.38 2.38c-15.5 15.5-15.5 15.5-25.6 16.4-12.9-1.16-24.2-12.3-32.2-21.7-1.72-1.92-3.45-3.53-5.43-5.15-4.62-3.8-9.52-8.19-11.4-13.9h-2v-2h-2c-1.66-1.61-1.66-1.61-3.5-3.75-0.61-0.7-1.22-1.39-1.84-2.11-1.66-2.14-1.66-2.14-2.63-4.28-1.32-2.39-2.59-2.69-5.03-3.86-4.9-4.41-9.41-9.24-13.7-14.2-2.67-3.13-5.53-5.77-8.69-8.39-4.51-3.78-8.28-8.22-12.1-12.7-1.46-1.77-1.46-1.77-3.55-2.67v-2c-0.58-0.25-1.15-0.5-1.75-0.75-2.58-1.43-4.31-3.03-6.25-5.25v-2c-0.8-0.3-0.8-0.3-1.62-0.6-3.45-2.03-5.83-4.82-8.5-7.78-0.54-0.57-1.08-1.15-1.63-1.74-2.6-2.84-4.64-5.35-6.25-8.88-1.32-0.7-2.65-1.37-4-2-2.25-2-2.25-2-4-4v-2c-0.88-0.38-0.88-0.38-1.78-0.76-2.5-1.39-3.89-2.87-5.72-5.05-0.61-0.72-1.22-1.43-1.84-2.17-1.25-1.52-2.47-3.08-3.66-4.64-1.7-2.03-3.29-3.52-5.31-5.19-3.35-2.79-6.11-5.86-8.93-9.17-2.76-3.17-5.76-6.08-8.76-9.02l-97-97c-0.92-0.88-1.84-1.76-2.79-2.67-2.21-2.33-2.21-2.33-2.21-4.33-0.59-0.26-1.18-0.52-1.78-0.79-2.37-1.29-3.87-2.69-5.72-4.65-1.93-2-3.7-3.71-5.94-5.37-0.77-0.59-0.77-0.59-1.56-1.19v-2c-0.99-0.33-1.98-0.66-3-1 0.57-3.86 2.31-5.76 4.94-8.56 1.2-1.3 1.2-1.3 2.44-2.62 0.86-0.93 1.73-1.86 2.62-2.82 0.92-1.03 1.84-2.06 2.75-3.1 0.45-0.5 0.9-1.01 1.36-1.53 1.28-1.44 2.55-2.88 3.82-4.32 2.07-2.05 2.07-2.05 4.07-2.05 0.25-0.56 0.49-1.13 0.75-1.71 1.47-2.69 3.23-4.66 5.31-6.91 1.2-1.31 1.2-1.31 2.43-2.65 0.83-0.9 1.66-1.8 2.51-2.73 1.58-1.77 3.17-3.54 4.75-5.31 2.98-3.34 6.08-6.52 9.25-9.69 2.31-2.42 4.59-4.86 6.88-7.31 0.61-0.66 1.23-1.33 1.87-2.01 3.78-4.06 7.48-8.17 11-12.5 1.23-1.22 1.23-1.22 3.23-1.22 0.23-0.72 0.45-1.44 0.69-2.19 1.6-3.42 3.55-5.23 6.31-7.81 4.3-4.18 8.34-8.49 12.2-13 1.69-1.9 3.44-3.69 5.25-5.47 3.04-2.99 5.84-6.12 8.62-9.34 2.81-3.23 5.68-6.4 8.54-9.57 1.59-1.75 3.16-3.51 4.74-5.27 3.77-4.22 7.55-8.37 11.6-12.3 4.23-4.13 8.25-8.35 12.1-12.8 5.12-5.91 10.4-11.6 15.9-17.2 6.52-7.1 12.9-14.3 19.1-21.7 2.5-2.92 5.17-5.6 7.88-8.31 2.26-2.49 4.49-4.99 6.72-7.5 2.35-2.58 4.81-5.03 7.28-7.5 2.14-2.25 4.26-4.53 6.38-6.81 0.57-0.62 1.15-1.24 1.74-1.88 3.52-3.8 6.96-7.66 10.3-11.6 2.17-2.42 4.49-4.68 6.81-6.96 2.33-2.37 4.47-4.87 6.64-7.38 3.18-3.61 6.46-7.12 9.74-10.6 2.43-2.61 4.8-5.25 7.08-8 2.29-2.76 4.73-5.2 7.27-7.74 4.32-4.71 8.56-9.49 12.8-14.3 2.63-3.03 5.41-5.85 8.25-8.69 0.66-0.82 1.32-1.65 2-2.5 2.63-3.29 5.62-6.15 8.63-9.09 4.94-4.87 9.49-10 14-15.3 3-3.53 6.12-6.83 9.4-10.1 0.66-0.82 1.32-1.65 2-2.5 2.17-2.71 4.52-5.08 7-7.5 4.5-4.44 8.85-9.02 13.2-13.6 0.72-0.77 1.45-1.53 2.19-2.32 0.69-0.73 1.39-1.47 2.1-2.22 0.63-0.67 1.26-1.33 1.9-2.02 1.79-1.93 1.79-1.93 3.62-4.82h2c0.4-0.88 0.4-0.88 0.8-1.77 1.25-2.33 2.61-3.94 4.43-5.84 0.64-0.67 1.28-1.35 1.94-2.04 1-1.04 1-1.04 2.02-2.1 4.48-4.7 8.89-9.43 13.1-14.3 2.55-2.91 5.17-5.76 7.79-8.6 0.5-0.54 1-1.08 1.52-1.64 2.32-2.52 4.68-4.98 7.1-7.41 2.3-2.22 2.3-2.22 4.26-4.76 2.63-3.29 5.62-6.15 8.63-9.09 5.33-5.26 10.2-10.8 15-16.6 2.34-2.76 4.83-5.26 7.38-7.81 0.66-0.82 1.32-1.65 2-2.5 2.17-2.71 4.55-5.05 7-7.5 1.17-1.35 2.34-2.7 3.5-4.06 2.63-3.04 5.36-5.43 8.5-7.94 1.08-1.18 2.13-2.39 3.17-3.61 3.76-4.33 7.64-8.53 11.6-12.7 0.7-0.74 1.39-1.48 2.11-2.24 4.04-4.28 8.14-8.5 12.3-12.6 3.51-3.46 6.71-6.98 9.81-10.8 1.65-1.69 3.31-3.35 5-5l2.29-2.29c1.85-1.85 3.71-3.7 5.58-5.54 1-1 2-1.99 3.01-2.98 0.49-0.49 0.98-0.97 1.48-1.47 2.68-2.66 5.23-5.38 7.68-8.26 5.48-6.34 11.6-12.1 17.5-18 2.4-2.38 4.8-4.75 7.19-7.13 0.54-0.53 1.08-1.06 1.63-1.61 3.27-3.24 6.32-6.6 9.28-10.1 1.99-2.32 4.15-4.44 6.34-6.57l10-10c0.85-0.89 1.69-1.77 2.56-2.69 2.44-2.31 2.44-2.31 4.63-3.37 2.39-1.24 2.7-2.51 3.81-4.94 2.72-3.66 5.74-6.82 9-10 3.05-3.04 6.08-6.09 9.1-9.15 2.08-2.11 4.17-4.21 6.26-6.32 1.09-1.1 2.19-2.21 3.28-3.32 1.6-1.62 3.2-3.23 4.8-4.84 0.48-0.5 0.96-0.99 1.46-1.5 2.81-2.81 5.55-5.06 9.1-6.87h2l1-3c7.98-5.65 17.2-9.76 26-14 1.07-0.53 2.14-1.05 3.25-1.6 24.2-11.6 52.9-17.7 79.8-16.4zm-17.8 74.6c-2.31 0.37-4.61 0.69-6.92 1.02-8.05 1.17-15 2.57-22.3 6.33-1.76 0.73-3.54 1.43-5.31 2.12-5.75 1.84-5.75 1.84-9.69 5.88-1.69 0.96-3.38 1.92-5.08 2.86-2.96 1.76-5.39 3.79-7.92 6.14v2c-0.99 0.33-1.98 0.66-3 1-1.71 1.62-3.37 3.3-5 5-1.1 1.06-2.21 2.12-3.31 3.19-2.92 2.4-2.92 2.4-2.69 4.81-0.54 0.21-1.07 0.41-1.62 0.62-3.3 1.91-5.97 4.43-8.38 7.38v2c-1.49 0.5-1.49 0.5-3 1-1.71 1.73-1.71 1.73-3.38 3.81-2.67 3.16-5.39 5.61-8.62 8.19-2.42 2.59-4.71 5.29-7 8-1.04 1.23-2.08 2.46-3.12 3.69-0.44 0.52-0.88 1.04-1.33 1.57-2.09 2.34-4.32 4.53-6.55 6.74l-13.8 13.8c-0.74 0.74-1.48 1.48-2.23 2.24-1.22 1.21-2.43 2.41-3.66 3.61-1.87 1.83-3.3 3.29-4.48 5.65-0.29 0.58-0.58 1.16-0.88 1.75-1.49 0.5-1.49 0.5-3 1-2.71 2.38-2.71 2.38-5 5v2c-0.87 0.36-0.87 0.36-1.75 0.73-2.68 1.51-4.2 3.25-6.19 5.58-2.89 3.39-5.89 6.57-9.06 9.69-3.3 3.27-6.59 6.54-9.88 9.81-1.3 1.3-1.3 1.3-2.64 2.62-5.86 5.84-11.5 11.8-16.6 18.3-3.04 3.74-6.39 6.92-10.1 9.93-4.04 3.41-7.14 7.46-10.4 11.6-2.87 3.45-5.99 6.55-9.21 9.68-2.6 2.6-4.98 5.36-7.37 8.16-1.85 2.07-3.77 4.01-5.75 5.96-6.86 6.4-6.86 6.4-12 14.1-1.33 2.39-2.62 2.73-5.05 3.89-1.58 1.76-1.58 1.76-2.94 3.81-2.44 3.41-5.05 6.26-8.06 9.19-1.17 1.35-2.34 2.7-3.5 4.06-1.97 2.29-3.73 4.12-6.12 6-2.14 1.75-3.2 3.01-4.69 5.25-2.48 3.67-5.48 6.26-8.92 9.01-1.87 1.58-1.87 1.58-2.76 3.76-1.29 2.44-2.57 2.75-5.01 3.92-1.58 1.76-1.58 1.76-2.94 3.81-2.44 3.41-5.05 6.26-8.06 9.19-1.13 1.28-2.26 2.58-3.38 3.88-2.28 2.64-4.62 5.17-7.12 7.62-4.35 4.28-8.32 8.86-12.2 13.6-0.53 0.64-1.07 1.28-1.61 1.94-0.47 0.58-0.94 1.15-1.43 1.75-1.26 1.25-1.26 1.25-3.26 1.25-0.27 0.61-0.53 1.21-0.81 1.84-1.52 2.77-3.73 4.29-6.14 6.27-3.28 3.02-5.94 6.53-8.71 10-4.5 5.55-9.26 10.9-14.4 15.9-2.17 1.78-2.17 1.78-1.94 4-0.99 0.33-1.98 0.66-3 1-1.75 1.69-1.75 1.69-3.44 3.75-0.61 0.72-1.23 1.45-1.86 2.19-1.29 1.56-2.53 3.15-3.76 4.75-1.94 2.31-1.94 2.31-4.63 4.43-3.84 3.09-6.68 6.94-9.75 10.8-2.75 3.4-5.7 6.6-8.68 9.8-4.92 5.27-9.8 10.6-14.4 16.1-2.47 2.98-4.94 5.64-7.93 8.11-4.43 3.67-9.12 7.96-11.6 13.2-0.99 1.82-0.99 1.82-3.99 2.82-1.42 1.36-1.42 1.36-2.75 3.06-0.53 0.64-1.05 1.28-1.6 1.93-0.54 0.66-1.09 1.33-1.65 2.01-4.12 4.81-8.35 9.51-12.6 14.2-0.46 0.5-0.92 1-1.38 1.51-2.14 2.33-4.31 4.61-6.55 6.85-2.41 2.41-4.69 4.9-6.95 7.45-3.08 3.44-6.24 6.74-9.5 10-2.13 2.34-4.23 4.69-6.34 7.05-3.06 3.39-6.17 6.73-9.28 10.1-3.89 4.17-7.72 8.37-11.4 12.7-2.76 3.12-5.6 6.15-8.44 9.19-4.01 4.3-7.98 8.62-11.8 13.1-5.06 5.82-10.2 11.5-15.7 16.9-3.12 3.45-6.18 6.92-9 10.6-1.68 2-3.18 3.39-5.19 5-4.99 4.15-8.79 9.32-12.8 14.4-2.81 3.46-5.5 6.58-8.94 9.44-3.17 2.65-5.71 5.49-8.39 8.63-2.11 2.44-4.36 4.69-6.67 6.93l-3 3c1.38 4.39 3.34 6.54 6.81 9.5 3.55 3.05 6.91 6.17 10.2 9.5 1.47 1.46 2.93 2.91 4.4 4.36l4.98 4.95c0.82 0.82 1.64 1.64 2.5 2.48 4.29 4.28 8.41 8.63 12.4 13.2 3.31 3.73 6.89 7.19 10.4 10.7 4.35 4.28 8.59 8.45 12.3 13.3 1.65 1.69 3.31 3.36 5 5 0.56 0.6 1.11 1.2 1.69 1.81 1.26 1.41 1.26 1.41 3.31 1.19v2c1.43 1.41 1.43 1.41 3.25 2.81 3.02 2.5 5.36 5.08 7.75 8.19 1.65 1.68 3.32 3.34 5 5l2.35 2.35c0.81 0.8 1.62 1.61 2.45 2.44 4.58 4.56 9.16 9.13 13.7 13.7 2.75 2.76 5.51 5.51 8.28 8.26 2.68 2.68 5.37 5.35 8.05 8.03 1.01 1.02 2.03 2.03 3.05 3.04 4.93 4.91 9.69 9.8 14.1 15.2 1.46 1.2 2.91 2.41 4.39 3.58 2.59 2.29 4.72 4.96 6.96 7.58 1.68 1.98 1.68 1.98 4.15 3.84 2.89 2.32 5.13 4.9 7.54 7.71 8.94 10.5 8.94 10.5 19 19.8 2.73 2.32 4.81 4.64 6.94 7.5 5.24-0.32 7.92-3.37 11.4-6.93l1.8-1.8c1.25-1.25 2.49-2.51 3.72-3.77 1.9-1.94 3.82-3.86 5.74-5.78 1.21-1.21 2.41-2.43 3.62-3.65 0.57-0.58 1.15-1.16 1.74-1.75 3.01-2.68 3.01-2.68 3.99-6.32 0.6-0.26 1.2-0.52 1.82-0.79 2.31-1.28 3.48-2.47 5.12-4.52 2.5-3.11 5.21-5.89 8.06-8.69 5.98-5.9 11.9-11.8 17.3-18.2 2.5-2.72 5.31-5.04 8.17-7.37 0.49-0.48 0.99-0.96 1.5-1.45v-2c0.62-0.25 1.24-0.5 1.88-0.75 2.26-1.07 2.26-1.07 3.12-3.25 1.28-2.56 2.43-2.82 5-4 2.63-1.96 4.99-3.99 7.31-6.31 2.9-2.9 5.97-5.51 9.12-8.14 0.52-0.51 1.03-1.02 1.57-1.55v-2c0.74-0.25 1.49-0.5 2.25-0.75 2.98-1.35 4.65-2.76 6.75-5.25v-2c0.72-0.23 1.44-0.45 2.19-0.69 3.4-1.58 5.22-3.6 7.81-6.31 2.81-2.51 5.69-4.93 8.61-7.32 2.32-1.91 4.55-3.84 6.68-5.97 2.94-2.94 5.96-5.77 9.02-8.59 0.58-0.53 1.15-1.06 1.75-1.6 3.57-3.29 7.19-6.52 10.9-9.7 2.64-2.32 5.23-4.69 7.82-7.07 0.51-0.47 1.02-0.94 1.54-1.42 2.6-2.38 5.18-4.77 7.76-7.17 6.45-5.98 13.1-11.7 20-17.2 2.85-2.31 5.62-4.62 8.22-7.22 3.23-3.23 6.56-6.36 9.9-9.47 0.63-0.58 1.25-1.16 1.88-1.76 0.6-0.55 1.2-1.11 1.82-1.69 0.54-0.5 1.08-1 1.63-1.52 1.55-1.34 1.55-1.34 4.55-3.34v-2c0.54-0.23 1.07-0.45 1.62-0.69 5.78-3.19 10.4-8.13 14.9-12.9 3.31-3.42 6.74-6.49 10.5-9.45 5.67-4.56 11-9.49 16.2-14.5 3.91-3.72 7.9-7.34 12-10.9 2.49-2.16 4.92-4.38 7.35-6.61 3.22-2.94 6.45-5.84 9.75-8.69 2.47-2.14 4.79-4.34 7.06-6.69 2.78-2.82 5.71-5.28 8.81-7.74 5.22-4.18 9.9-8.75 14.6-13.5 2.35-2.41 4.52-4.46 7.33-6.34v-2c0.72-0.23 1.44-0.45 2.19-0.69 3.41-1.59 5.17-3.61 7.81-6.31 2.42-2.31 4.86-4.59 7.31-6.88 0.67-0.62 1.34-1.24 2.02-1.88 3.91-3.64 7.87-7.19 11.9-10.7 2.7-2.42 5.21-5.02 7.75-7.6 3.2-3.15 6.6-6.04 10-8.97 4.8-4.21 9.54-8.42 14-13 3.85-3.93 7.7-7.8 11.9-11.4 4.1-3.52 7.86-7.34 11.6-11.2 2.86-2.82 5.87-5.41 8.97-7.96 1.76-1.51 1.76-1.51 2.5-4.47 1.32-0.7 2.65-1.36 4-2 1.76-1.5 1.76-1.5 3.43-3.27 0.63-0.64 1.26-1.28 1.91-1.94 0.65-0.68 1.3-1.35 1.97-2.04 4.22-4.33 8.46-8.49 13.1-12.4 2.33-2.01 4.46-4.18 6.6-6.38 5.21-5.29 10.4-10.5 16.1-15.3 2.01-1.78 3.87-3.65 5.73-5.58 3.82-3.87 7.94-7.22 12.2-10.6 3.94-3.28 7.69-6.74 11.4-10.2 2.59-2.43 5.2-4.76 7.98-6.98 0.86-0.75 1.72-1.5 2.61-2.27v-2c0.53-0.22 1.06-0.43 1.61-0.66 3.28-1.84 5.9-4.3 8.64-6.84 0.55-0.5 1.11-1 1.68-1.51 1.4-1.29 2.74-2.63 4.07-3.99v-2c0.6-0.26 1.2-0.52 1.82-0.79 2.31-1.28 3.48-2.47 5.12-4.52 1.75-2.13 3.45-4.07 5.44-6 7.25-7.43 13-16 18.6-24.7 0.41-0.63 0.82-1.27 1.25-1.92 9.54-14.8 17.9-30.5 23.8-47.1 0.27-0.75 0.54-1.5 0.82-2.28 4.18-11.7 7.61-23.4 9.81-35.6 0.32-1.81 0.69-3.61 1.05-5.42 6.15-34.2-2.45-69.8-20.8-99-1.89-2.61-3.86-5.13-5.89-7.64-1.57-2.12-3.13-4.25-4.69-6.38-5.05-7.19-5.05-7.19-12.3-11.6-0.68-1.33-1.35-2.66-2-4-1.59-1.48-1.59-1.48-3.5-2.75-3.16-2.26-6.15-4.62-9.12-7.13-4.09-3.29-8.33-6.02-12.9-8.62-0.61-0.35-1.22-0.7-1.85-1.06-3.14-1.85-3.14-1.85-6.65-2.44v-2c-4.81-2.29-4.81-2.29-10-3v-2c-14.1-6.03-28.4-11.3-43-16-0.88-0.29-1.76-0.57-2.67-0.87-9.76-3.08-19.4-5.47-29.7-5.09-2.76-0.04-5.12-0.53-7.81-1.16-6.67-1.34-13-0.31-19.6 0.77z" fill="#FDA34A"/>
<path transform="translate(492,841)" d="m0 0c1.87 1.44 1.87 1.44 3 3v2c0.87 0.35 0.87 0.35 1.75 0.71 6.29 3.61 10.4 11.3 14 17.4 3.58 5.57 8.18 9.8 13.2 14 2.65 2.41 4.89 5.09 7.19 7.83 2.54 2.8 5.38 5.16 8.31 7.54 0.49 0.48 0.99 0.96 1.5 1.45v2h2c1.73 1.63 3.36 3.28 5 5 4.26 4.36 8.54 8.61 13.3 12.5 2.36 2.06 4.53 4.3 6.74 6.52l31.7 31.7c2.02 2.02 4.02 4.04 6.03 6.06 1.37 1.38 2.73 2.76 4.1 4.14 0.68 0.68 1.35 1.36 2.04 2.06 3.99 4.01 8.09 7.81 12.4 11.5 2.23 1.95 4.29 4.04 6.34 6.18 2.69 2.75 5.33 5.15 8.5 7.32 0.97 0.68 1.94 1.36 2.94 2.06v2h2v2h2c0.54 0.68 1.07 1.36 1.62 2.06 2.52 3.11 5.23 5.53 8.28 8.1 2.48 2.17 4.77 4.5 7.1 6.84l35.1 35.1c0.5 0.5 0.99 0.99 1.51 1.5 1.31 1.32 2.63 2.65 3.94 3.98 1.77 1.74 3.56 3.46 5.38 5.14 0.98 0.92 1.95 1.84 2.92 2.76 0.5 0.45 1.01 0.9 1.52 1.37 2.37 2.26 3.59 3.81 4.25 7.05-0.77 4.18-2.52 7.3-4.64 11-7.39 12.8-12.3 26.8-17.3 40.7-4.55 12.4-9.22 24.8-14 37.2-4.46 11.4-4.46 11.4-8.62 23-6.51 18.8-13.8 37.3-21.6 55.7-3.85 9.23-7.23 18.6-10.3 28.1-3.47 10.5-6.79 20.2-17 25.7-2.33 1.08-4.69 2.02-7.08 2.96-1.78 0.73-1.78 0.73-3.59 1.47-6.73 2.75-13.5 5.37-20.4 7.53-1.96 0.61-3.92 1.23-5.88 1.84-1.37 0.43-2.73 0.85-4.1 1.27-4.27 1.33-8.52 2.71-12.8 4.13-2.19 0.74-4.39 1.46-6.58 2.19-7.01 2.32-14 4.66-20.9 7.19-6.83 2.47-13.8 4.44-20.8 6.38-2.98 0.84-5.96 1.7-8.94 2.56-0.7 0.2-1.39 0.4-2.11 0.6-3.21 0.93-6.21 1.95-9.29 3.28-4.67 1.99-9.44 3.49-14.3 5-1.47 0.46-1.47 0.46-2.96 0.93-6.15 1.93-12.3 3.84-18.5 5.71-5.25 1.64-10.5 3.42-15.7 5.17-10 3.37-20 6.63-30.1 9.87-0.98 0.32-0.98 0.32-1.99 0.65-11.2 3.61-22.4 7.16-33.7 10.4-2.79 0.9-5.53 1.93-8.27 2.97-4.04 1.52-8.11 2.96-12.2 4.4-1.26 0.46-1.26 0.46-2.55 0.92-5.46 1.93-10.8 3.37-16.5 4.52 0.8-3.95 2.14-5.34 5.25-7.94 0.82-0.7 1.64-1.4 2.48-2.12 0.75-0.64 1.5-1.28 2.27-1.94 3.15-3 6.02-6.16 8.88-9.44 2.98-3.39 6.06-6.36 9.53-9.24 3.57-2.97 6.62-6.33 9.59-9.88 2.43-2.88 5.01-5.14 8-7.44 0.82-0.83 1.65-1.65 2.5-2.5 2.38-2.38 4.87-4.41 7.5-6.5 0.66-0.68 1.32-1.36 2-2.06 3.74-3.62 7.6-5.32 12.6-6.5 1.57-0.37 1.57-0.37 3.16-0.75 4-0.86 8.01-1.59 12-2.26 2.21-0.34 2.21-0.34 4.18-1.43 1.61-0.24 3.23-0.44 4.86-0.61 1-0.11 2-0.23 3.04-0.34 1.08-0.12 2.17-0.24 3.29-0.36 8.87-1.03 17.7-2.2 26.5-3.69 1.42-0.23 1.42-0.23 2.87-0.47 7.62-1.33 12.8-3.06 17.4-9.53 0.76-0.91 1.53-1.82 2.31-2.75 4.94-5.92 9.65-11.9 13.6-18.5 1.21-1.84 2.58-3.17 4.14-4.73 1.52-1.94 3.02-3.9 4.5-5.88 1.16-1.54 1.16-1.54 2.34-3.11 2.14-2.88 2.14-2.88 3.63-5.58 1.83-2.91 4.09-5 6.53-7.43 1.76-2.21 3.38-4.5 5-6.81 0.44-0.62 0.88-1.24 1.33-1.88 2.27-3.23 4.45-6.48 6.48-9.87 2-3.31 4.46-5.71 7.19-8.44 1.62-2.37 3.16-4.77 4.67-7.21 0.44-0.59 0.88-1.18 1.33-1.79h2c0.27-0.89 0.54-1.77 0.81-2.69 1.19-3.31 1.19-3.31 2.69-5.68 1.57-2.76 2.13-4.83 2.63-7.95 0.17-1.01 0.34-2.02 0.51-3.06 0.16-1.05 0.32-2.1 0.48-3.18 0.17-1.02 0.34-2.05 0.52-3.1 4.41-27.6 4.47-59.2-6.64-85.3-0.71-2.12-1.42-4.25-2.12-6.38-2.85-8.01-6.73-15.2-10.9-22.6-0.49-0.91-0.98-1.83-1.48-2.77-2.21-4.1-4.5-7.67-7.52-11.2-1.09-1.39-2.18-2.78-3.25-4.19-0.52-0.67-1.04-1.35-1.58-2.04-1.17-1.77-1.17-1.77-1.17-3.77-0.64-0.27-1.28-0.54-1.94-0.81-2.06-1.19-2.06-1.19-3.06-4.19-2-1.21-2-1.21-4-2v-2h-2v-2h-2c-1.35-1.65-2.69-3.32-4-5l-2-1v-2c-0.57-0.26-1.14-0.52-1.72-0.79-2.48-1.32-4.51-2.86-6.72-4.59-5.47-4.03-11.2-7.44-17.1-10.8-0.88-0.5-1.75-0.99-2.65-1.51-8.42-4.74-16.8-9.23-26-12.4-0.73-0.25-1.45-0.5-2.21-0.76-37-12.6-77.5-13.4-114 2.82-0.86 0.38-1.73 0.76-2.62 1.15-8.54 3.8-17.1 7.68-25 12.7-3.38 2.12-3.38 2.12-5.38 2.12l-1 3c-1.33 0.91-2.66 1.81-4.02 2.67-11.4 7.69-23 18.2-30.7 29.6-1.25 1.68-1.25 1.68-3.2 3.59-3.75 3.82-6.25 8.55-9.05 13.1-0.63 0.97-1.26 1.94-1.91 2.94-9.62 15-16.3 31.3-22.1 48.1-0.37 1.02-0.75 2.05-1.13 3.11-1.63 5.42-1.92 10.7-2.01 16.3-0.02 1.18-0.04 2.35-0.06 3.56-0.03 2.44-0.05 4.89-0.05 7.33-0.21 9.95-0.21 9.95-3.13 12.9-0.87 0.59-1.73 1.18-2.62 1.78-0.87 0.6-1.73 1.2-2.62 1.81-0.74 0.47-0.74 0.47-1.5 0.94-3.6 2.39-7.03 5.05-10.5 7.64-2.39 1.61-2.39 1.61-4.39 1.61l-1 3c-1.33 0.67-2.67 1.33-4 2-1.69 1.64-3.35 3.31-5 5-4.65 4-4.65 4-7 4-0.26 0.6-0.53 1.21-0.8 1.83-1.26 2.27-2.35 3.34-4.39 4.92-3.53 2.89-6.41 6.11-9.33 9.61-1.48 1.64-1.48 1.64-3.48 2.64-1.98-5.3 0.39-9.55 2.38-14.5 2.88-7.08 2.88-7.08 4.62-14.5h2c0.05-0.7 0.1-1.4 0.15-2.12 0.07-0.91 0.15-1.82 0.23-2.76 0.1-1.35 0.1-1.35 0.21-2.74 0.41-2.38 0.41-2.38 2.41-4.38 0.72-1.82 0.72-1.82 1.31-3.94 1.11-3.5 2.42-6.75 4-10.1 4.94-10.6 8.72-21.8 11-33.3 0.64-2.73 1.54-5.15 2.64-7.73 1.71-4.33 3.11-8.42 4-13 1.99-6.61 4.46-13.1 6.82-19.6 1.19-3.45 2.19-6.92 3.18-10.4 0.69-1.83 1.38-3.67 2.08-5.5 1.23-3.33 2.36-6.69 3.48-10.1 0.42-1.24 0.83-2.48 1.26-3.76 0.79-2.46 1.54-4.93 2.25-7.41 0.87-3.06 1.93-5.99 3.07-8.96 3.15-8.22 3.15-8.22 5.29-16.7 0.59-2.67 1.58-4.98 2.69-7.47 1.86-4.44 3.3-9.04 4.82-13.6 0.35-1.06 0.7-2.13 1.07-3.22 3.12-9.5 5.95-19 7.93-28.8 2.04-9.44 5.37-18.6 11.1-26.4 0.42-0.63 0.83-1.26 1.26-1.91 15-21.7 41.6-30.9 65.5-39 4.91-1.66 9.78-3.4 14.6-5.25 4.73-1.81 9.47-3.53 14.3-5.18 14.3-4.89 28.3-10.4 42.4-15.9 2.65-1.03 5.3-2.07 7.95-3.1 3.14-1.22 6.28-2.45 9.43-3.68 1.7-0.67 1.7-0.67 3.45-1.35 5.46-2.14 10.9-4.36 16.2-6.78 2.76-1.23 5.57-2.3 8.4-3.37 7.44-2.81 14.8-5.74 22.1-8.89 0.93-0.4 1.86-0.8 2.83-1.21 1.91-0.82 3.82-1.65 5.73-2.48 8.76-3.7 8.76-3.7 13.9-1.92z" fill="#FBFEFE"/>
<path transform="translate(1599,3)" d="m0 0-3 2h2c0.86 6.67 1.14 13.2 1.13 19.9v3.24 10.8 7.82 17.1 25.6c0.01 14.5 0.01 29 0 43.6v44.1 2.82 11.4c0.01 35.2 0.01 70.5 0.01 106v3.17 3.17c-0.01 31.9-0.01 63.7-0.01 95.6v6.39c0 8.57 0 17.1 0.01 25.7v71.8 3.3c0 34.8 0 69.5-0.01 104v3.42 54.9 218 54.9 3.41c0.01 34.7 0.01 69.5 0.01 104v3.3c0 23.9 0 47.8-0.01 71.8v25.7 6.39c0 31.8 0 63.7 0.01 95.6v3.17 3.16c0 35.1 0 70.3-0.01 105v11.3 2.8 44c0.01 14.4 0 28.8 0 43.2v25.4 18.8 7.61 10.2 3.02 2.73 2.36c-0.13 1.89-0.13 1.89-1.13 3.89h-4v-4h-2c-1.23-3.69-0.64-6.21 0-10h-2c-0.01-38.4-0.01-76.8-0.02-115v-2.27c-0.01-80.5-0.02-161-0.02-242v-5.37c-0.01-37.5-0.01-75.1-0.01-113v-56.6c0-2.84-0.01-5.69-0.01-8.53 0-43.8 0-87.6-0.01-131v-2.85c0-15.2 0-30.4-0.01-45.6 0-43.8-0.01-87.5-0.01-131v-2.73-59.2-23.8-2.63c-0.01-28-0.01-56.1-0.02-84.1 0-28.2-0.01-56.4 0-84.7v-11.7-2.32c0-12.1-0.01-24.2-0.01-36.4v-35.7-19.1c-0.01-5.79-0.01-11.6 0-17.4 0-2.09 0-4.18-0.01-6.27 0-2.82 0-5.64 0.01-8.46-0.01-0.82-0.01-1.64-0.01-2.49 0.02-5.58 0.02-5.58 1.13-7.81-0.16-1.05-0.33-2.1-0.5-3.19-0.5-3.81-0.5-3.81-0.04-7.01 0.59-4.19 0.69-8.2 0.66-12.4 0.01-1.11 0.01-1.11 0.02-2.24-0.01-3.85-0.32-7.38-1.14-11.1 0.14-0.85 0.29-1.69 0.44-2.56 0.96-5.86 1.23-12.2 0.02-18-0.47-2.45-0.37-4.19 0.04-6.64 0.16-1.24 0.33-2.47 0.5-3.75l-1-1c-0.1-1.89-0.12-3.79-0.12-5.69v-3.74c0-1.38 0-2.76 0.01-4.15v-4.33c0-3.94 0-7.87 0.01-11.8 0-4.11 0.01-8.22 0.01-12.3 0-7.79 0.01-15.6 0.02-23.4 0.01-8.86 0.01-17.7 0.02-26.6 0.01-17.5 0.03-35 0.05-52.4v-4.54-11h2l-1-9h-1v-6h1c0.05-1.42 0.09-2.83 0.12-4.25 0.03-0.79 0.05-1.58 0.08-2.39-0.22-2.57-0.91-4.15-2.2-6.36 0.99-0.33 1.98-0.66 3-1v-7c3.13-1.04 3.99-0.93 7 0z" fill="#FCFDFD"/>
<path transform="translate(397,1329)" d="m0 0h2v4l-3 2c-2.07 1.99-2.07 1.99-3.88 4.44-1.92 2.32-3.67 3.85-6.12 5.56-2.29 1.84-2.29 1.84-2.12 4.62 0.04 0.79 0.08 1.57 0.12 2.38l-3-2-1 7c-0.99 0.33-1.98 0.66-3 1l-1 3c-2.48 0.49-2.48 0.49-5 1-0.08 0.62-0.17 1.24-0.25 1.88-0.75 2.12-0.75 2.12-2.81 3.37-0.64 0.25-1.28 0.49-1.94 0.75l-1-2-1 6 5 2c-2.19 2.47-4.01 3.59-7.12 4.64-1.19 0.4-1.19 0.4-2.4 0.81-1.23 0.39-1.23 0.39-2.48 0.8-0.82 0.28-1.64 0.56-2.48 0.85-1.19 0.39-1.19 0.39-2.4 0.79-1.07 0.36-1.07 0.36-2.17 0.72-1.95 0.39-1.95 0.39-4.95-0.61 1.41-3.31 3.06-5.15 5.81-7.44 4.75-4.03 8.97-8.3 13.1-13 2.98-3.39 6.06-6.36 9.53-9.24 3.57-2.97 6.62-6.33 9.59-9.88 2.43-2.88 5.01-5.14 8-7.44 1.69-1.65 3.36-3.31 5-5l1-1z" fill="#FCFDFD"/>
<path transform="translate(1140,190)" d="m0 0v3c-0.99 0.33-1.98 0.66-3 1-0.7 1.32-1.36 2.65-2 4-1.55 1.75-1.55 1.75-3.31 3.44-0.63 0.6-1.25 1.21-1.89 1.83-0.59 0.57-1.19 1.14-1.8 1.73l-2.62 2.62c-1.66 1.66-3.33 3.31-5 4.94-2.03 2.08-3.68 4.1-5.38 6.44-3.15 4.02-6.38 7.29-10.3 10.6-4.53 3.79-4.53 3.79-7.77 8.63-1.22 2.35-2.61 2.68-4.94 3.81l-1 3c-1.71 1.68-1.71 1.68-3.81 3.44-2.86 2.42-5.6 4.86-8.19 7.56-0.99-0.33-1.98-0.66-3-1 5-5 5-5 7.25-7.19 4.79-4.9 9.32-10 13.8-15.2 7.47-8.44 15.5-16.3 23.5-24.2 3.28-3.33 6.31-6.87 9.38-10.4 0.66-0.66 1.31-1.33 1.99-2.01h2c0.25-0.62 0.49-1.24 0.75-1.88 1.46-2.47 2.63-3.07 5.25-4.12z" fill="#FCFDFD"/>
<path transform="translate(1346,542)" d="m0 0c0.99 0.33 1.98 0.66 3 1-1.38 1.5-1.38 1.5-3 3h-2v3c-1.36 1.43-1.36 1.43-3.19 2.88-2.33 1.88-4.39 3.71-6.5 5.87-2.11 2.05-3.74 2.96-6.31 4.25-0.49 1.49-0.49 1.49-1 3-0.99 0.33-1.98 0.66-3 1-0.49 1.49-0.49 1.49-1 3l-2-1c-0.28 1.08-0.28 1.08-0.56 2.19-1.75 3.41-3.68 4.62-6.88 6.6-1.87 1.22-1.87 1.22-2.56 4.21l-3 2-2 2c-5.71 5-5.71 5-8 5v2h-2v2c-1.57 1.55-1.57 1.55-3.69 3.31-2.49 2.12-4.91 4.22-7.19 6.57-2.12 2.12-2.12 2.12-4.12 3.12 3.38-7.68 8.66-12.8 15-18 4.98-4.2 9.64-8.57 14.2-13.2 2.46-2.41 4.98-4.71 7.56-7 4.18-3.74 8.15-7.63 12.1-11.6 2.66-2.63 5.46-5.06 8.3-7.49 2.75-2.42 5.3-5.02 7.86-7.64z" fill="#FCFDFD"/>
<path transform="translate(769,588)" d="m0 0h3l-2 4h-2c-0.08 0.78-0.16 1.57-0.25 2.38-0.75 2.62-0.75 2.62-2.81 3.93-0.96 0.34-0.96 0.34-1.94 0.69v2c-0.99 0.33-1.98 0.66-3 1l-2 3c-0.99 0.33-1.98 0.66-3 1v2h-2c-0.5 2.48-0.5 2.48-1 5l-4 1v2c-1.88 2.12-1.88 2.12-4 4h-2c-0.1 0.78-0.21 1.57-0.31 2.38-0.69 2.62-0.69 2.62-3.69 4.62-1.6 1.8-3.09 3.66-4.6 5.54-0.46 0.48-0.92 0.96-1.4 1.46h-2l-1 4c-0.62 0.04-1.24 0.08-1.88 0.12-0.7 0.29-1.4 0.58-2.12 0.88-1.3 3-1.3 3-2 6-0.99-0.33-1.98-0.66-3-1 1.41-4.49 3.63-6.78 7-10 1.67-2 3.34-4 5-6 1.31-1.35 2.65-2.69 4-4 3.94-3.83 7.6-7.88 11.3-12 3.86-4.28 7.82-8.47 11.8-12.7 2.69-2.86 5.27-5.71 7.69-8.8 0.75-0.84 1.5-1.68 2.27-2.55z" fill="#FCFDFD"/>
<path transform="translate(1266)" d="m0 0h60v1c-2.31 0.33-4.62 0.66-7 1l7 2-1 2c-0.7-0.06-1.41-0.12-2.13-0.18-16.5-1.49-16.5-1.49-33-1.82-5.46 0.09-9.68-0.45-14.9-2-2.99-0.43-5.99-0.74-9-1v-1z" fill="#FCFDFD"/>
<path transform="translate(830,522)" d="m0 0h2v3l-2 2c-0.83 0.99-1.65 1.98-2.5 3-4.04 4.85-4.04 4.85-7.5 6-0.73 2.02-0.73 2.02-1 4h-2v2h-2v2c-2.31 2.63-3.64 3.88-7 5l-1 3h-2c-0.25 0.62-0.5 1.24-0.75 1.88-1.49 2.52-2.69 2.84-5.25 4.12-0.7 1.31-1.36 2.65-2 4-1.6 2.07-3.29 4.02-5 6l-2-1c2.32-4.54 4.18-7.36 8.29-10.5 3.03-2.68 5.35-5.97 7.83-9.15 2.12-2.66 4.41-5.02 6.88-7.36 2.76-2.71 5.45-5.46 8.04-8.33 0.52-0.57 1.04-1.14 1.57-1.73 1.07-1.19 2.13-2.37 3.19-3.56 1.36-1.5 2.78-2.94 4.2-4.38z" fill="#FCFDFD"/>
<path transform="translate(207,1282)" d="m0 0 4 1c-0.78 0.74-1.57 1.48-2.38 2.25-2.62 2.46-2.62 2.46-3.62 4.87-1.4 2.63-3.46 3.37-6 4.88-1.34 1.66-2.67 3.33-4 5-1.93 1.77-3.91 3.46-5.89 5.16-2.1 1.83-4.12 3.71-6.11 5.65-0.58 0.57-1.16 1.13-1.75 1.71-1.47 1.41-1.47 1.41-1.25 3.48h-3c0.57-3.67 1.94-5.24 4.62-7.75 2.81-2.69 5.44-5.41 7.94-8.37 2.67-3.12 5.5-5.7 8.66-8.29 3.25-2.9 6-6.26 8.78-9.59z" fill="#FCFDFD"/>
<path transform="translate(1038 824)" d="m0 0c0.57 0.24 1.14 0.47 1.73 0.72-0.47 0.41-0.94 0.82-1.43 1.25-3.8 3.32-7.6 6.65-11.4 10-0.73 0.64-1.45 1.29-2.21 1.95-1.71 1.56-3.36 3.15-4.98 4.8-2.42 2.43-5.13 4.13-8 6 2.69-6.36 7.66-10.8 12.8-15.1 1.55-1.34 3.07-2.72 4.56-4.14 1.18-1.11 1.18-1.11 2.37-2.24 0.72-0.69 1.44-1.38 2.18-2.1 2.07-1.4 2.07-1.4 4.34-1.12z" fill="#FCFDFD"/>
<path transform="translate(1393,497)" d="m0 0c0.99 0.33 1.98 0.66 3 1v2l-4 2v2c-0.56 0.23-1.11 0.45-1.69 0.69-3.86 2.19-6.58 5.31-9.19 8.87-2.72 3.13-5.45 4.53-9.12 6.44 1.18-4.14 2.99-6.02 6.36-8.62 1.75-1.48 3.13-3.05 4.58-4.82 2.94-3.52 6.1-7.18 10.1-9.56z" fill="#FCFDFD"/>
<path transform="translate(1236,646)" d="m0 0v2h-2c-0.19 0.72-0.37 1.44-0.56 2.19-1.76 3.44-3.76 4.68-6.98 6.7-0.48 0.36-0.96 0.73-1.46 1.11v2c-1.64 1.05-3.31 2.04-5 3-3.41 2.25-3.41 2.25-5 6h-2c0.5-4.09 1.34-5.77 4.56-8.31 3.77-3.1 7.19-6.39 10.6-9.89 4.96-4.8 4.96-4.8 7.86-4.8z" fill="#FCFDFD"/>
<path transform="translate(912,434)" d="m0 0 3 2c-0.67 0.56-0.67 0.56-1.36 1.14-5.6 4.74-10.6 9.69-15.2 15.4-1.43 1.45-1.43 1.45-4.43 2.45v-4c1.37-1.21 2.76-2.4 4.22-3.51 2.02-1.69 3.64-3.54 5.34-5.55 2.59-3.04 5.2-5.58 8.44-7.94z" fill="#FCFDFD"/>
<path transform="translate(250,1240)" d="m0 0h3c-0.75 1.94-0.75 1.94-2 4-2.12 0.75-2.12 0.75-4 1v2h-2c-0.23 0.78-0.45 1.57-0.69 2.38-1.64 3.29-2.95 3.42-6.31 4.62l-1 3-2 3h-3v2l-2-1c1.93-7.96 11-12.9 17.2-17.5 1.9-1.37 1.9-1.37 2.79-3.48z" fill="#FCFDFD"/>
<path transform="translate(419,1318)" d="m0 0-1 2c0.77 0.04 1.54 0.07 2.34 0.11 1 0.07 2 0.13 3.04 0.2 1.49 0.09 1.49 0.09 3.02 0.18 1.29 0.25 1.29 0.25 2.6 0.51 0.99 1.48 0.99 1.48 2 3h-8c-1.3 0.04-2.6 0.08-3.94 0.12-3.29 0.02-5.15-0.56-8.06-2.12-2.2 0.3-2.2 0.3-4 1v-2c7.29-3.43 7.29-3.43 12-3z" fill="#FCFDFD"/>
<path transform="translate(962,897)" d="m0 0 2 1c-2.5 3.21-5.07 6.17-8 9l-2 2c-1.12 0.94-2.25 1.88-3.38 2.81-2.94 2.49-5.22 5.17-7.62 8.19h-2c1.33-3.91 2.91-6.28 5.84-9.17 0.76-0.75 1.51-1.49 2.28-2.26 0.79-0.77 1.57-1.53 2.38-2.32 0.79-0.78 1.57-1.56 2.38-2.36 5.81-5.74 5.81-5.74 8.12-6.89z" fill="#FCFDFD"/>
<path transform="translate(1071,793)" d="m0 0c0.99 0.33 1.98 0.66 3 1-1.12 1.15-2.25 2.29-3.38 3.44-0.62 0.64-1.25 1.27-1.89 1.93-1.73 1.63-1.73 1.63-3.73 2.63l-1 3c-1.32 0.68-2.66 1.35-4 2-2.11 1.93-3.72 3.44-5 6h-2l-1-3c12.6-13.1 12.6-13.1 19-17z" fill="#FCFDFD"/>
<path transform="translate(1059,273)" d="m0 0c0.99 0.33 1.98 0.66 3 1-0.99 1.49-0.99 1.49-2 3h-2v2h-2c-0.23 0.78-0.45 1.57-0.69 2.38-1.65 3.3-2.98 3.34-6.31 4.62-0.89 2.04-0.89 2.04-1 4h-2l-2 4h-3c1.34-3.01 2.8-5 5.19-7.25 3.3-3.2 6.33-6.56 9.33-10 1.11-1.28 2.28-2.5 3.48-3.7z" fill="#FCFDFD"/>
<path transform="translate(1525,138)" d="m0 0 3 3c0.84 0.74 0.84 0.74 1.69 1.5 1.31 1.5 1.31 1.5 1.31 4.5l3 2-1 2 2 1c1.38 2.69 2.11 4.3 1.62 7.31-0.3 0.84-0.3 0.84-0.62 1.69v-2h-3c-2.36-3.27-3.78-6.72-5.12-10.5-0.5-1.38-0.5-1.38-1.01-2.78-0.82-2.57-1.4-5.07-1.87-7.72z" fill="#FCFDFD"/>
<path transform="translate(984,874)" d="m0 0 1 3h-2v2c-1.29 1.38-2.63 2.71-4 4-0.68 0.72-1.36 1.44-2.06 2.19-1.94 1.81-1.94 1.81-4.94 2.81-0.31 0.83-0.62 1.65-0.94 2.5-0.35 0.83-0.7 1.65-1.06 2.5-2.12 0.81-2.12 0.81-4 1 0.58-3.47 1.71-5.05 4.25-7.44 0.63-0.6 1.26-1.2 1.91-1.83 0.61-0.57 1.22-1.14 1.84-1.73 0.87-0.89 1.73-1.77 2.62-2.69 2.35-2.28 4.79-4.31 7.38-6.31z" fill="#FCFDFD"/>
<path transform="translate(1366,13)" d="m0 0c3.63 0.66 7.26 1.32 11 2v2c4.45 0.99 4.45 0.99 9 2v3l2 1c-4.82-0.76-9.25-2.41-13.8-4.06-0.79-0.28-1.58-0.57-2.39-0.86-1.94-0.69-3.87-1.38-5.8-2.08v-3z" fill="#FCFDFD"/>
<path transform="translate(177,1199)" d="m0 0 5 3 1-2c0 3.74-0.92 4.41-3.38 7.12-0.62 0.71-1.25 1.41-1.89 2.14-1.73 1.74-1.73 1.74-3.73 2.74-1.01-2.69-1.23-4.42-0.18-7.11 1.01-2 2.06-3.95 3.18-5.89z" fill="#FCFDFD"/>
<path transform="translate(1191,685)" d="m0 0c0.99 0.33 1.98 0.66 3 1-0.9 1.16-1.82 2.3-2.75 3.44-0.51 0.64-1.02 1.27-1.55 1.93-1.9 1.82-3.14 2.23-5.7 2.63v2c-1.68 1.69-1.68 1.69-3.88 3.56-0.71 0.62-1.43 1.24-2.17 1.88-1.95 1.56-1.95 1.56-3.95 2.56 0-4 0-4 1.43-5.64 0.66-0.53 1.33-1.06 2.01-1.61 0.72-0.59 1.44-1.19 2.18-1.8 0.79-0.64 1.57-1.29 2.38-1.95 1.67-1.47 3.34-2.95 5-4.44 0.76-0.68 1.53-1.36 2.31-2.06 0.56-0.49 1.12-0.99 1.69-1.5z" fill="#FCFDFD"/>
<path transform="translate(174,1318)" d="m0 0c0 3 0 3-2.25 5.56-2.75 2.44-2.75 2.44-5 3.5-0.58 0.31-1.16 0.62-1.75 0.94-0.12 0.6-0.23 1.2-0.36 1.82-0.86 2.93-2.37 4-4.7 5.93-1.1 0.92-1.1 0.92-2.23 1.86-0.56 0.46-1.13 0.92-1.71 1.39l-1-3 2-2c0.45-0.45 0.9-0.9 1.36-1.37 1.22-1.22 2.45-2.43 3.68-3.64 0.71-0.7 1.42-1.4 2.15-2.11 0.67-0.67 1.35-1.33 2.04-2.01 1.95-1.95 1.95-1.95 3.77-4.87 2.12-1.19 2.12-1.19 4-2z" fill="#FCFDFD"/>
<path transform="translate(1342 6.99)" d="m0 0c0.87 0.11 1.74 0.21 2.63 0.32 0.87 0.1 1.73 0.2 2.62 0.3 3.3 0.51 6.29 1.32 9.45 2.39 2.69 0.88 5.28 1.51 8.06 2l-1 3c-1.12-0.26-2.25-0.53-3.4-0.8-7.53-1.78-15-3.55-22.6-5.2 2-2 2-2 4.24-2.01z" fill="#FCFDFD"/>
<path transform="translate(1088,777)" d="m0 0c2.31 0.19 2.31 0.19 4 1l-1 3c-0.6 0.29-1.2 0.58-1.81 0.88-2.4 1.04-2.4 1.04-4.13 3.56-2.16 2.68-4 4.03-7.06 5.56h-2c1.57-3.84 4.02-6.16 7-9 0.85-0.95 1.69-1.9 2.56-2.88 0.81-0.7 1.61-1.4 2.44-2.12z" fill="#FCFDFD"/>
<path transform="translate(895 965)" d="m0 0c0.58 0.23 1.15 0.45 1.75 0.69-3 2-3 2-5 2v2l-4 1v2c-5.18 3.22-5.18 3.22-7 4-0.99-0.33-1.98-0.66-3-1v-2c0.75-0.4 1.5-0.8 2.27-1.21 0.98-0.53 1.97-1.06 2.98-1.6 0.97-0.53 1.95-1.05 2.95-1.59 2.78-1.51 2.78-1.51 5.02-3.32 1.78-1.28 1.78-1.28 4.03-0.97z" fill="#FCFDFD"/>
<path transform="translate(860,490)" d="m0 0c0.99 0.33 1.98 0.66 3 1-1.81 2.5-1.81 2.5-4 5h-3l-1 5c-0.99 0.33-1.98 0.66-3 1l-1 3c-0.99-0.33-1.98-0.66-3-1 1.4-4.91 4.05-6.92 8-10 1.35-1.32 2.69-2.64 4-4z" fill="#FCFDFD"/>
<path transform="translate(1411,481)" d="m0 0c0.99 0.33 1.98 0.66 3 1h-2c-0.23 0.56-0.45 1.11-0.69 1.69-3.02 5.33-8.48 10.4-14.3 12.3 0.24-3.28 1.13-4.12 3.62-6.38 0.54-0.41 1.07-0.82 1.63-1.24 2.51-1.97 4.81-4.17 7.14-6.34 0.53-0.34 1.06-0.69 1.61-1.04z" fill="#FCFDFD"/>
<path transform="translate(388 988)" d="m0 0c1.39 0 2.77 0.01 4.16 0.03 0.73 0 1.46 0.01 2.21 0.01 2.33 0.01 4.67 0.04 7 0.06l4.74 0.03c3.88 0.02 7.76 0.06 11.6 0.1v1c-0.66 0.02-1.32 0.05-2 0.07l-9.06 0.36c-1.56 0.06-1.56 0.06-3.15 0.12-6.44 0.26-6.44 0.26-12.8 1.01-2.98 0.44-5.05 0.22-7.94-0.56 2-2 2-2 5.26-2.23z" fill="#FCFDFD"/>
<path transform="translate(1451,446)" d="m0 0c0 3 0 3-2.38 5.69-2.62 2.31-2.62 2.31-4.62 2.31v2c-0.8 0.27-1.61 0.54-2.44 0.81-0.84 0.39-1.69 0.79-2.56 1.19l-1 3-2-1c1.51-3.8 3.73-5.65 6.94-8.12 0.87-0.69 1.75-1.37 2.65-2.08 1.76-1.32 3.58-2.58 5.41-3.8z" fill="#FCFDFD"/>
<path transform="translate(1208,669)" d="m0 0 4 1c-8.5 8.73-8.5 8.73-13 12-0.99-0.33-1.98-0.66-3-1 2.65-2.73 5.3-5.29 8.25-7.69 2.77-2.01 2.77-2.01 3.75-4.31z" fill="#FCFDFD"/>
<path transform="translate(1496,393)" d="m0 0 1 3c-1.81 3.19-1.81 3.19-4 6h-2v4l-5 2c1.31-3.56 2.88-6.6 5-9.75 0.77-1.17 0.77-1.17 1.56-2.36 1.44-1.89 1.44-1.89 3.44-2.89z" fill="#FCFDFD"/>
<path transform="translate(223,1268)" d="m0 0v3c-0.99 0.33-1.98 0.66-3 1-0.73 2.02-0.73 2.02-1 4h-2v2h-2v2h-3c1.5-4.62 3.68-7.52 7-11 2.31-0.88 2.31-0.88 4-1z" fill="#FCFDFD"/>
<path transform="translate(519,1266)" d="m0 0 1 4-3 2c-0.99 1.48-0.99 1.48-2 3-1.18 1.1-2.39 2.16-3.62 3.19-0.64 0.53-1.27 1.06-1.92 1.6-0.48 0.4-0.96 0.8-1.46 1.21 1.11-3.85 1.94-6.39 5-9l6-6z" fill="#FCFDFD"/>
<path transform="translate(713,649)" d="m0 0c0.99 0.33 1.98 0.66 3 1-1.14 3.41-2.04 4.12-5 6h-2c-0.04 0.58-0.08 1.15-0.12 1.75-1.32 3.38-3.85 4.44-6.88 6.25 1.42-4.32 3.54-7 6.62-10.3 0.82-0.89 1.64-1.77 2.48-2.68 0.94-0.99 0.94-0.99 1.9-2.01z" fill="#FCFDFD"/>
<path transform="translate(1358,530)" d="m0 0 5 1c-2.23 3.41-4.5 4.99-8 7l-3 3h-2c0.34-3.16 0.95-3.95 3.44-6.06 0.84-0.64 1.69-1.28 2.56-1.94l2-3z" fill="#FCFDFD"/>
<path transform="translate(454 996)" d="m0 0c0.75 0.18 1.51 0.36 2.28 0.55 2.22 0.7 4.17 1.6 6.22 2.7v3c-0.56-0.19-1.11-0.39-1.69-0.59-5.06-1.72-10.1-3.18-15.3-4.41 3.19-1.94 4.89-2.16 8.5-1.25z" fill="#FCFDFD"/>
<path transform="translate(424,990)" d="m0 0c7.35-0.43 13.9 1.18 21 3v1c-4.53 1.01-7.72 0.88-12.2-0.31-1.02-0.27-2.05-0.53-3.1-0.8-2.71-0.89-2.71-0.89-5.71-2.89z" fill="#FCFDFD"/>
<path transform="translate(1198,130)" d="m0 0c0 3 0 3-1.38 4.69-1.62 1.31-1.62 1.31-3.62 1.31-0.23 0.56-0.45 1.11-0.69 1.69-1.67 2.94-3.86 4.99-6.31 7.31l-1-4c1.6-1.46 3.21-2.92 4.81-4.38 0.9-0.81 1.79-1.62 2.71-2.46 2.48-2.16 2.48-2.16 5.48-4.16z" fill="#FCFDFD"/>
<path transform="translate(439,1313)" d="m0 0v2h2v2h9v1c-4.27 1.14-7.56 2-12 2v-3l-5-1v-2c2-1 2-1 6-1z" fill="#FCFDFD"/>
<path transform="translate(1139,732)" d="m0 0c0.99 0.33 1.98 0.66 3 1-1.38 1.5-1.38 1.5-3 3h-2v2h-2v3l-3 2-2 2-1-4 10-9z" fill="#FCFDFD"/>
<path transform="translate(1075,258)" d="m0 0 2 2c-0.83 0.69-0.83 0.69-1.68 1.39-1.09 0.92-1.09 0.92-2.2 1.86-0.71 0.6-1.43 1.21-2.17 1.83-1.93 1.9-2.79 3.51-3.95 5.92-2.12 0.75-2.12 0.75-4 1 0.89-4.79 3.61-7.64 7-11 2.88-1.94 2.88-1.94 5-3z" fill="#FCFDFD"/>
<path transform="translate(561,1207)" d="m0 0h2c-0.38 5.42-2.08 7.38-6 11l-1 3-2-1 2-6h2c0.31-0.97 0.62-1.94 0.94-2.94 1.06-3.06 1.06-3.06 2.06-4.06z" fill="#FCFDFD"/>
<path transform="translate(676,1346)" d="m0 0c-8.4 6.96-8.4 6.96-14 8 1.39-3.34 2.82-4.9 5.88-6.81 0.67-0.44 1.35-0.88 2.05-1.33 2.48-1.03 3.59-0.76 6.07 0.14z" fill="#FCFDFD"/>
<path transform="translate(604,850)" d="m0 0c3 1 3 1 5 4 0.99 0.33 1.98 0.66 3 1l1 3 3 2c1.37 1.64 2.71 3.3 4 5l-1 2c-2.13-2.08-4.26-4.16-6.38-6.25-0.6-0.59-1.2-1.17-1.82-1.78-0.58-0.57-1.16-1.14-1.76-1.74-0.54-0.52-1.07-1.04-1.62-1.58-1.53-1.78-2.46-3.52-3.42-5.65z" fill="#FDFDFD"/>
<path transform="translate(631,739)" d="m0 0c5.29 4.41 10.2 9.08 15 14-0.99 0.33-1.98 0.66-3 1-0.25-0.62-0.5-1.24-0.75-1.88-1.51-2.56-2.61-2.84-5.25-4.12-2.74-2.55-4.92-4.88-7-8l1-1z" fill="#FDFDFD"/>
<path transform="translate(918,942)" d="m0 0v3c-0.99 0.33-1.98 0.66-3 1v3c-0.93 0.12-0.93 0.12-1.88 0.25-2.3 0.56-2.3 0.56-3.37 2.81-0.25 0.64-0.5 1.28-0.75 1.94l-2-1c2.54-4.95 5.98-8.49 11-11z" fill="#FCFDFD"/>
<path transform="translate(1010,850)" d="m0 0c-0.12 1.88-0.12 1.88-1 4-2 0.67-4 1.33-6 2-0.37 1.32-0.71 2.66-1 4-2.56 1.25-2.56 1.25-5 2 8.74-12 8.74-12 13-12z" fill="#FCFDFD"/>
<path transform="translate(1478,418)" d="m0 0c0 3.93-1.39 5.16-4 8h-2c-0.27 0.62-0.54 1.24-0.81 1.88-1.19 2.12-1.19 2.12-4.19 4.12 0.59-3.57 1.97-5.46 4.38-8.12 0.6-0.69 1.21-1.37 1.83-2.08 1.79-1.8 1.79-1.8 4.79-3.8z" fill="#FCFDFD"/>
<path transform="translate(1548,251)" d="m0 0h3c1.11 3.33 0.84 5.62 0 9-0.99 0.33-1.98 0.66-3 1-2-3-2-3-1.69-5.56 0.69-2.44 0.69-2.44 1.69-4.44z" fill="#FDFDFD"/>
<path transform="translate(129,1531)" d="m0 0 2 5c-4.06-0.47-7.47-0.88-11-3v-2c3.07-1.53 5.7-0.55 9 0z" fill="#FCFDFD"/>
<path transform="translate(271,1226)" d="m0 0v3c-3.37 3.08-7.18 5.51-11 8l-2-1 5-5c0.5-0.56 0.99-1.11 1.5-1.69 1.97-1.72 4.05-2.45 6.5-3.31z" fill="#FCFDFD"/>
<path transform="translate(1117,753)" d="m0 0c-0.55 3.74-1.96 5.22-4.81 7.62-0.69 0.6-1.38 1.19-2.08 1.79-1.98 1.49-3.87 2.57-6.11 3.59 9.39-13 9.39-13 13-13z" fill="#FCFDFD"/>
<path transform="translate(928,418)" d="m0 0v3c-1.98 1.69-3.98 3.36-6 5v2l-4 1c1.63-4.76 4.23-11 10-11z" fill="#FCFDFD"/>
<path transform="translate(1166,164)" d="m0 0-1 3h-2l-1 3h-2v3l-4 1 1 3c-0.99-0.33-1.98-0.66-3-1 2.11-4.1 6.87-12 12-12z" fill="#FCFDFD"/>
<path transform="translate(549,1224)" d="m0 0c0.99 0.33 1.98 0.66 3 1-0.99 0.49-0.99 0.49-2 1-0.59 1.95-0.59 1.95-1 4l-1 2h-2v2h-3c1.21-4.43 2.52-6.98 6-10z" fill="#FCFDFD"/>
<path transform="translate(803,1049)" d="m0 0 1 3-1 2h2c1.21 3.62 0.54 4.64-1 8-2.06-2.06-2.06-2.06-4-5 0.12-3.75 0.12-3.75 1-7l2-1z" fill="#FCFDFD"/>
<path transform="translate(699,666)" d="m0 0 1 3c-1.81 2-1.81 2-4 4h-3l1 3-4 1c0-2.12 0-2.12 1-5 2.5-2.25 5.2-4.14 8-6z" fill="#FCFDFD"/>
<path transform="translate(963,377)" d="m0 0c0.99 0.33 1.98 0.66 3 1l-1 3h-2v2c-1.96 1.39-3.96 2.73-6 4 0.41-4.83 2.46-6.83 6-10z" fill="#FCFDFD"/>
<path transform="translate(1368,94)" d="m0 0c5.47 1.75 10.8 3.66 16 6v2h-5v-2l-8-2v-2h-3v-2z" fill="#FDFDFD"/>
<path transform="translate(851,964)" d="m0 0c3.2 1.54 6.22 3.29 9.25 5.12 0.89 0.54 1.78 1.08 2.7 1.64 1.02 0.61 1.02 0.61 2.05 1.24l-1 2c-3 0-3 0-4.31-1.25-0.56-0.58-1.12-1.15-1.69-1.75-1.03-0.66-2.06-1.32-3.12-2-2.88-2-2.88-2-3.88-5z" fill="#FDFDFD"/>
<path transform="translate(1246 636)" d="m0 0c0.56 0.27 1.11 0.54 1.69 0.81-1.63 1.71-3.3 3.38-5 5h-2v3h-3c0.49-4.41 3.52-9.2 8.31-8.81z" fill="#FCFDFD"/>
<path transform="translate(111,1381)" d="m0 0c0.99 0.33 1.98 0.66 3 1l-1 2h-2c-0.25 0.97-0.5 1.94-0.75 2.94-0.41 1.01-0.83 2.02-1.25 3.06-2.12 0.88-2.12 0.88-4 1 0.41-4.83 2.46-6.83 6-10z" fill="#FCFDFD"/>
<path transform="translate(124,1369)" d="m0 0 2 1c-1.29 1.38-2.63 2.71-4 4h-2c-0.27 0.62-0.54 1.24-0.81 1.88-1.19 2.12-1.19 2.12-4.19 4.12 0.58-3.89 2.37-6.14 5-9 2.12-1.38 2.12-1.38 4-2z" fill="#FCFDFD"/>
<path transform="translate(314,827)" d="m0 0v2c-1.93 0.89-3.87 1.76-5.81 2.62-1.08 0.49-2.16 0.98-3.27 1.48-0.96 0.3-1.93 0.59-2.92 0.9l-3-2c1.22-0.45 2.43-0.91 3.69-1.38 2.41-0.9 4.8-1.82 7.19-2.81 2.12-0.81 2.12-0.81 4.12-0.81z" fill="#FCFDFD"/>
<path transform="translate(502,756)" d="m0 0 1 3c-2.29 0.39-4.58 0.76-6.88 1.12-1.91 0.32-1.91 0.32-3.86 0.64-1.61 0.12-1.61 0.12-3.26 0.24l-2-2c2.12-0.5 4.25-1 6.38-1.5 1.18-0.28 2.36-0.56 3.58-0.84 3.04-0.66 3.04-0.66 5.04-0.66z" fill="#FCFDFD"/>
<path transform="translate(884,467)" d="m0 0v2c-0.97 0.8-1.94 1.61-2.94 2.44-3.25 2.27-3.25 2.27-4.06 5.56h-4c1.37-3.15 2.88-5.05 5.5-7.25 0.61-0.52 1.22-1.04 1.84-1.58 1.66-1.17 1.66-1.17 3.66-1.17z" fill="#FCFDFD"/>
<path transform="translate(705,813)" d="m0 0c4.56 3.61 8.02 6.99 11 12-3.36-1.44-5.59-3.25-8-6v-2c-0.99-0.33-1.98-0.66-3-1v-3z" fill="#FCFDFD"/>
<path transform="translate(1257 627)" d="m0 0c0.74 0.25 1.48 0.5 2.25 0.75-2.13 3.2-3.63 4.27-7 6h-3c1.39-4.17 3.02-7.18 7.75-6.75z" fill="#FCFDFD"/>
<path transform="translate(1398,109)" d="m0 0c5.26 1.41 8.72 3.75 13 7l-4 2-1-4h-3v-2h-4l-1-3z" fill="#FDFDFD"/>
<path transform="translate(538,1399)" d="m0 0c-1 3-1 3-3 4-2 0.04-4 0.04-6 0 0.81-1.94 0.81-1.94 2-4 3.13-1.04 3.99-0.93 7 0z" fill="#FCFDFD"/>
<path transform="translate(400,1362)" d="m0 0v3c-1.29 0.5-2.58 1-3.88 1.5-1.07 0.42-1.07 0.42-2.17 0.84-1.95 0.66-1.95 0.66-3.95 0.66v-2c3.3-1.72 6.33-3.29 10-4z" fill="#FCFDFD"/>
<path transform="translate(509,1327)" d="m0 0 2 2c-1.43 0.67-2.87 1.34-4.31 2-1.2 0.56-1.2 0.56-2.43 1.12-2.26 0.88-2.26 0.88-5.26 0.88v-3c4.95-1.48 4.95-1.48 10-3z" fill="#FCFDFD"/>
<path transform="translate(1153,719)" d="m0 0h3v2c-0.62 0.08-1.24 0.16-1.88 0.25-2.27 0.54-2.27 0.54-3.18 2.63-0.47 1.05-0.47 1.05-0.94 2.12-1.62 1.75-1.62 1.75-3 3l-2-1c1.15-1.31 2.29-2.63 3.44-3.94 0.64-0.73 1.27-1.46 1.93-2.21 0.86-0.97 1.72-1.94 2.63-2.85z" fill="#FCFDFD"/>
<path transform="translate(976,366)" d="m0 0c-1.38 3.21-2.92 5.05-5.62 7.25-0.95 0.78-0.95 0.78-1.92 1.58-0.48 0.38-0.96 0.77-1.46 1.17 0.8-3.87 2.36-6.04 5-9 2-1 2-1 4-1z" fill="#FCFDFD"/>
<path transform="translate(1400,28)" d="m0 0c7.35-0.37 7.35-0.37 10.4 1.38 1.56 1.62 1.56 1.62 2.56 3.62-4.61-0.72-8.67-2.31-13-4v-1z" fill="#FCFDFD"/>
<path transform="translate(937,921)" d="m0 0c0.99 0.33 1.98 0.66 3 1l-1 3c-0.96 0.22-0.96 0.22-1.94 0.44-2.26 0.36-2.26 0.36-3.31 2.62-0.25 0.64-0.5 1.28-0.75 1.94l-2-1c3.75-5.75 3.75-5.75 6-8z" fill="#FCFDFD"/>
</svg>
