<svg width="77" height="57" viewBox="0 0 77 57" fill="none" xmlns="http://www.w3.org/2000/svg">
<path d="M1.01015 49.8358C1.01015 49.8361 1.01014 49.8365 1.01014 49.8368L0.010154 49.8319C1.52769e-05 53.1574 3.57899 57.0202 7.2999 56.9999C21.5465 56.9294 35.7932 56.9374 50.0398 56.9453C56.2734 56.9488 62.507 56.9523 68.7406 56.9492L1.01015 49.8358ZM1.01015 49.8358C1.00643 51.1616 1.73649 52.7186 2.96821 53.9687C4.19471 55.2135 5.77551 56.0082 7.29445 55.9999L7.29495 55.9999C21.5446 55.9294 35.7959 55.9374 50.0439 55.9453C56.2767 55.9488 62.5089 55.9523 68.7401 55.9492H68.7406C72.267 55.9492 75.0319 53.3224 75.0405 49.9104L75.0405 49.9087C75.1013 35.6362 75.1013 21.3739 75.0405 7.10137L75.0392 6.78706C74.9787 5.95065 74.6845 5.02742 74.2719 4.23429C73.5342 2.82618 72.5575 1.99165 71.4228 1.52403C70.2631 1.04615 68.8679 0.923445 67.2749 1.07653L67.1972 1.08399L67.1193 1.07932C66.9446 1.06883 66.7836 1.05721 66.6306 1.04617C66.291 1.02166 65.991 1 65.6686 1H65.5692H65.4699H65.3706H65.2713H65.1719H65.0726H64.9733H64.8739H64.7746H64.6753H64.576H64.4766H64.3773H64.278H64.1786H64.0793H63.98H63.8807H63.7813H63.682H63.5827H63.4834H63.384H63.2847H63.1854H63.086H62.9867H62.8874H62.7881H62.6887H62.5894H62.4901H62.3908H62.2914H62.1921H62.0928H61.9934H61.8941H61.7948H61.6955H61.5961H61.4968H61.3975H61.2981H61.1988H61.0995H61.0002H60.9008H60.8015H60.7022H60.6029H60.5035H60.4042H60.3049H60.2055H60.1062H60.0069H59.9076H59.8082H59.7089H59.6096H59.5102H59.4109H59.3116H59.2123H59.1129H59.0136H58.9143H58.8149H58.7156H58.6163H58.517H58.4176H58.3183H58.219H58.1197H58.0203H57.921H57.8217H57.7223H57.623H57.5237H57.4244H57.325H57.2257H57.1264H57.027H56.9277H56.8284H56.7291H56.6297H56.5304H56.4311H56.3318H56.2324H56.1331H56.0338H55.9344H55.8351H55.7358H55.6365H55.5371H55.4378H55.3385H55.2391H55.1398H55.0405H54.9412H54.8418H54.7425H54.6432H54.5438H54.4445H54.3452H54.2459H54.1465H54.0472H53.9479H53.8486H53.7492H53.6499H53.5506H53.4512H53.3519H53.2526H53.1533H53.0539H52.9546H52.8553H52.756H52.6566H52.5573H52.458H52.3586H52.2593H52.16H52.0607H51.9613H51.862H51.7627H51.6633H51.564H51.4647H51.3654H51.266H51.1667H51.0674H50.968H50.8687H50.7694H50.6701H50.5707H50.4714H50.3721H50.2728H50.1734H50.0741H49.9748H49.8754H49.7761H49.6768H49.5775H49.4781H49.3788H49.2795H49.1801H49.0808H48.9815H48.8822H48.7828H48.6835H48.5842H48.4849H48.3855H48.2862H48.1869H48.0875H47.9882H47.8889H47.7896H47.6902H47.5909H47.4916H47.3922H47.2929H47.1936H47.0943H46.9949H46.8956H46.7963H46.6969H46.5976H46.4983H46.399H46.2996H46.2003H46.101H46.0017H45.9023H45.803H45.7037H45.6043H45.505H45.4057H45.3064H45.207H45.1077H45.0084H44.909H44.8097H44.7104H44.6111H44.5117H44.4124H44.3131H44.2138H44.1144H44.0151H43.9158H43.8164H43.7171H43.6178H43.5185H43.4191H43.3198H43.2205H43.1211H43.0218H42.9225H42.8232H42.7238H42.6245H42.5252H42.4258H42.3265H42.2272H42.1279H42.0285H41.9292H41.8299H41.7306H41.6312H41.5319H41.4326H41.3332H41.2339H41.1346H41.0353H40.9359H40.8366H40.7373H40.638H40.5386H40.4393H40.34H40.2406H40.1413H40.042H39.9427H39.8433H39.744H39.6447H39.5453H39.446H39.3467H39.2474H39.148H39.0487H38.9494H38.85H38.7507H38.6514H38.5521H38.4527H38.3534H38.2541H38.1548H38.0554H37.9561H37.8568H37.7574H37.6581H37.5588H37.4595H37.3601H37.2608H37.1615H37.0621H36.9628H36.8635H36.7642H36.6648H36.5655H36.4662H36.3669H36.2675H36.1682H36.0689H35.9695H35.8702H35.7709H35.6716H35.5722H35.4729H35.3736H35.2742H35.1749H35.0756H34.9763H34.8769H34.7776H34.6783H34.5789H34.4796H34.3803H34.281H34.1816H34.0823H33.983H33.8837H33.7843H33.685H33.5857H33.4863H33.387H33.2877H33.1884H33.089H32.9897H32.8904H32.791H32.6917H32.5924H32.4931H32.3937H32.2944H32.1951H32.0958H31.9964H31.8971H31.7978H31.6984H31.5991H31.4998H31.4005H31.3011H31.2018H31.1025H31.0031H30.9038H30.8045H30.7052H30.6058H30.5065H30.4072H30.3078H30.2085H30.1092H30.0099H29.9105H29.8112H29.7119H29.6126H29.5132H29.4139H29.3146H29.2152H29.1159H29.0166H28.9173H28.8179H28.7186H28.6193H28.5199H28.4206H28.3213H28.222H28.1226H28.0233H27.924H27.8247H27.7253H27.626H27.5267H27.4273H27.328H27.2287H27.1294H27.03H26.9307H26.8314H26.732H26.6327H26.5334H26.4341H26.3347H26.2354H26.1361H26.0368H25.9374H25.8381H25.7388H25.6394H25.5401H25.4408H25.3415H25.2421H25.1428H25.0435H24.9441H24.8448H24.7455H24.6462H24.5468H24.4475H24.3482H24.2488H24.1495H24.0502H23.9509H23.8515H23.7522H23.6529H23.5536H23.4542H23.3549H23.2556H23.1562H23.0569H22.9576H22.8583H22.7589H22.6596H22.5603H22.4609H22.3616H22.2623H22.163H22.0636H21.9643H21.865H21.7657H21.6663H21.567H21.4677H21.3683H21.269H21.1697H21.0704H20.971H20.8717H20.7724H20.673H20.5737H20.4744H20.3751H20.2757H20.1764H20.0771H19.9778H19.8784H19.7791H19.6798H19.5804H19.4811H19.3818H19.2825H19.1831H19.0838H18.9845H18.8851H18.7858H18.6865H18.5872H18.4878H18.3885H18.2892H18.1899H18.0905H17.9912H17.8919H17.7925H17.6932H17.5939H17.4946H17.3952H17.2959H17.1966H17.0972H16.9979H16.8986H16.7993H16.6999H16.6006H16.5013H16.4019H16.3026H16.2033H16.104H16.0046H15.9053H15.806H15.7067H15.6073H15.508H15.4087H15.3093H15.21H15.1107H15.0114H14.912H14.8127C13.7446 1 12.6887 1.0194 11.6199 1.03904C10.9701 1.05098 10.3156 1.063 9.65071 1.07081C9.33567 1.07911 8.99281 1.09831 8.63387 1.11841C7.80604 1.16477 6.89264 1.21592 6.03752 1.14917C5.68647 1.12323 5.19397 1.23668 4.60178 1.55316C4.02076 1.86367 3.41361 2.33323 2.86116 2.90739C1.72331 4.08996 0.996201 5.52006 1.00002 6.63746L1.00002 6.63876C1.00436 8.69467 1.00912 10.7507 1.01388 12.8069C1.04243 25.1471 1.07099 37.4915 1.01015 49.8358ZM69.9072 49.2062C69.9146 49.158 69.9209 49.1084 69.9265 49.0576L67.8788 6.19977C67.7509 6.20597 67.6248 6.21243 67.5003 6.21881C66.9934 6.24479 66.5122 6.26947 66.0336 6.26947C46.8917 6.26947 27.7598 6.26947 8.62735 6.28975C8.20718 6.28988 7.83624 6.40944 7.57017 6.50868C7.41236 6.56754 7.30822 6.61057 7.22005 6.647C7.11488 6.69045 7.03245 6.72451 6.90877 6.76484L6.25625 6.97762L6.22017 7.66302C6.21585 7.74517 6.20924 7.83181 6.20146 7.93292L6.20105 7.93823C6.19372 8.03357 6.18533 8.1426 6.17963 8.25106L6.17866 8.26933L6.17837 8.28762C6.16827 8.91891 6.15564 9.54801 6.14296 10.1782L6.14255 10.1982C6.13002 10.821 6.11746 11.445 6.10739 12.0692L6.10687 12.1017L6.10845 12.1341C6.11688 12.3069 6.12693 12.4613 6.13635 12.6062C6.15323 12.8657 6.16811 13.0944 6.16811 13.3426L6.16811 13.3435C6.17318 18.8787 6.17318 24.4115 6.17318 29.9435C6.17317 35.4753 6.17317 41.0065 6.17821 46.5377L6.17829 46.5462C6.18507 47.2653 6.23742 48.0189 6.28874 48.7579C6.31574 49.1466 6.34246 49.5313 6.36211 49.9047L6.41198 50.8521H7.36073H9.14516H9.25851H9.37185H9.4852H9.59855H9.71189H9.82524H9.93859H10.0519H10.1653H10.2786H10.392H10.5053H10.6187H10.732H10.8454H10.9587H11.072H11.1854H11.2987H11.4121H11.5254H11.6388H11.7521H11.8654H11.9788H12.0921H12.2055H12.3188H12.4322H12.5455H12.6588H12.7722H12.8855H12.9989H13.1122H13.2255H13.3389H13.4522H13.5656H13.6789H13.7922H13.9056H14.0189H14.1323H14.2456H14.3589H14.4723H14.5856H14.6989H14.8123H14.9256H15.039H15.1523H15.2656H15.379H15.4923H15.6056H15.719H15.8323H15.9456H16.059H16.1723H16.2856H16.399H16.5123H16.6257H16.739H16.8523H16.9657H17.079H17.1923H17.3057H17.419H17.5323H17.6457H17.759H17.8723H17.9857H18.099H18.2123H18.3257H18.439H18.5523H18.6656H18.779H18.8923H19.0056H19.119H19.2323H19.3456H19.459H19.5723H19.6856H19.799H19.9123H20.0256H20.1389H20.2523H20.3656H20.4789H20.5923H20.7056H20.8189H20.9322H21.0456H21.1589H21.2722H21.3856H21.4989H21.6122H21.7255H21.8389H21.9522H22.0655H22.1789H22.2922H22.4055H22.5188H22.6322H22.7455H22.8588H22.9721H23.0855H23.1988H23.3121H23.4254H23.5388H23.6521H23.7654H23.8787H23.9921H24.1054H24.2187H24.332H24.4454H24.5587H24.672H24.7853H24.8987H25.012H25.1253H25.2386H25.352H25.4653H25.5786H25.6919H25.8053H25.9186H26.0319H26.1452H26.2586H26.3719H26.4852H26.5985H26.7118H26.8252H26.9385H27.0518H27.1651H27.2785H27.3918H27.5051H27.6184H27.7317H27.8451H27.9584H28.0717H28.185H28.2984H28.4117H28.525H28.6383H28.7516H28.865H28.9783H29.0916H29.2049H29.3182H29.4316H29.5449H29.6582H29.7715H29.8848H29.9982H30.1115H30.2248H30.3381H30.4515H30.5648H30.6781H30.7914H30.9047H31.0181H31.1314H31.2447H31.358H31.4713H31.5847H31.698H31.8113H31.9246H32.0379H32.1512H32.2646H32.3779H32.4912H32.6045H32.7178H32.8312H32.9445H33.0578H33.1711H33.2844H33.3978H33.5111H33.6244H33.7377H33.851H33.9644H34.0777H34.191H34.3043H34.4176H34.5309H34.6443H34.7576H34.8709H34.9842H35.0975H35.2109H35.3242H35.4375H35.5508H35.6641H35.7774H35.8908H36.0041H36.1174H36.2307H36.344H36.4574H36.5707H36.684H36.7973H36.9106H37.0239H37.1373H37.2506H37.3639H37.4772H37.5905H37.7039H37.8172H37.9305H38.0438H38.1571H38.2704H38.3838H38.4971H38.6104H38.7237H38.837H38.9504H39.0637H39.177H39.2903H39.4036H39.5169H39.6303H39.7436H39.8569H39.9702H40.0835H40.1969H40.3102H40.4235H40.5368H40.6501H40.7634H40.8768H40.9901H41.1034H41.2167H41.33H41.4434H41.5567H41.67H41.7833H41.8966H42.0099H42.1233H42.2366H42.3499H42.4632H42.5765H42.6899H42.8032H42.9165H43.0298H43.1431H43.2565H43.3698H43.4831H43.5964H43.7097H43.8231H43.9364H44.0497H44.163H44.2763H44.3896H44.503H44.6163H44.7296H44.8429H44.9562H45.0696H45.1829H45.2962H45.4095H45.5228H45.6362H45.7495H45.8628H45.9761H46.0894H46.2028H46.3161H46.4294H46.5427H46.6561H46.7694H46.8827H46.996H47.1093H47.2227H47.336H47.4493H47.5626H47.6759H47.7893H47.9026H48.0159H48.1292H48.2425H48.3559H48.4692H48.5825H48.6958H48.8092H48.9225H49.0358H49.1491H49.2624H49.3758H49.4891H49.6024H49.7157H49.8291H49.9424H50.0557H50.169H50.2824H50.3957H50.509H50.6223H50.7356H50.849H50.9623H51.0756H51.1889H51.3023H51.4156H51.5289H51.6422H51.7556H51.8689H51.9822H52.0955H52.2089H52.3222H52.4355H52.5488H52.6622H52.7755H52.8888H53.0021H53.1155H53.2288H53.3421H53.4554H53.5688H53.6821H53.7954H53.9088H54.0221H54.1354H54.2487H54.3621H54.4754H54.5887H54.702H54.8154H54.9287H55.042H55.1554H55.2687H55.382H55.4953H55.6087H55.722H55.8353H55.9487H56.062H56.1753H56.2886H56.402H56.5153H56.6286H56.742H56.8553H56.9686H57.082H57.1953H57.3086H57.4219H57.5353H57.6486H57.7619H57.8753H57.9886H58.1019H58.2153H58.3286H58.4419H58.5553H58.6686H58.7819H58.8953H59.0086H59.1219H59.2353H59.3486H59.4619H59.5753H59.6886H59.8019H59.9153H60.0286H60.1419H60.2553H60.3686H60.4819H60.5953H60.7086H60.822H60.9353H61.0486H61.162H61.2753H61.3886H61.502H61.6153H61.7287H61.842H61.9553H62.0687H62.182H62.2953H62.4087H62.522H62.6354H62.7487H62.862H62.9754H63.0887H63.2021H63.3154H63.4287H63.5421H63.6554H63.7688H63.8821H63.9954H64.1088H64.2221H64.3355H64.4488H64.5622H64.6755H64.7888H64.9022H65.0155H65.1289H65.2422H65.3556H65.4689H65.5823H65.6956H65.8089H65.9223H66.0356H66.149H66.2623H66.3757H66.489H66.6024H66.7157H66.8291H66.9424H67.0557H67.1691C67.5758 50.8521 67.968 50.8481 68.2964 50.8012C68.6278 50.754 69.0518 50.6442 69.3951 50.3063C69.7397 49.9672 69.8563 49.5431 69.9072 49.2062Z" stroke="#0B0968" stroke-width="2"/>
<path d="M58.2098 28.5943L58.4894 28.8308H58.4896C59.587 29.8256 60.2641 30.8578 60.6363 31.9513C61.0404 33.1386 61.1096 34.4703 60.8779 36.0167L60.8648 36.1036L60.8672 36.1915C60.8872 36.942 60.9047 37.6902 60.9223 38.4391L60.9229 38.4632C60.9394 39.1698 60.956 39.8769 60.9747 40.5843C60.9733 40.5896 60.972 40.5946 60.9707 40.5995C60.9575 40.6496 60.949 40.6818 60.9394 40.7137L60.9055 40.8267L60.8988 40.9445C60.8872 41.1497 60.8732 41.37 60.8586 41.599C60.8553 41.6503 60.852 41.702 60.8487 41.7542C60.8231 41.7547 60.7975 41.755 60.7718 41.755H60.6834H60.595H60.5066H60.4182H60.3298H60.2414H60.153H60.0647H59.9763H59.8879H59.7995H59.7111H59.6227H59.5343H59.4459H59.3575H59.2691H59.1807H59.0923H59.0038H58.9154H58.827H58.7386H58.6502H58.5618H58.4734H58.385H58.2966H58.2082H58.1198H58.0314H57.943H57.8546H57.7662H57.6778H57.5894H57.501H57.4126H57.3242H57.2358H57.1474H57.059H56.9706H56.8821H56.7937H56.7053H56.6169H56.5285H56.4401H56.3517H56.2633H56.1749H56.0865H55.9981H55.9097H55.8213H55.7328H55.6444H55.556H55.4676H55.3792H55.2908H55.2024H55.114H55.0256H54.9371H54.8487H54.7603H54.6719H54.5835H54.4951H54.4067H54.3183H54.2299H54.1414H54.053H53.9646H53.8762H53.7878H53.6994H53.611H53.5225H53.4341H53.3457H53.2573H53.1689H53.0805H52.9921H52.9036H52.8152H52.7268H52.6384H52.55H52.4616H52.3731H52.2847H52.1963H52.1079H52.0195H51.931H51.8426H51.7542H51.6658H51.5774H51.489H51.4005H51.3121H51.2237H51.1353H51.0469H50.9584H50.87H50.7816H50.6932H50.6048H50.5163H50.4279H50.3395H50.2511H50.1627H50.0742H49.9858H49.8974H49.809H49.7205H49.6321H49.5437H49.4553H49.3668H49.2784H49.19H49.1016H49.0132H48.9247H48.8363H48.7479H48.6595H48.571H48.4826H48.3942H48.3058H48.2173H48.1289H48.0405H47.9521H47.8636H47.7752H47.6868H47.5984H47.5099H47.4215H47.3331H47.2446H47.1562H47.0678H46.9794H46.8909H46.8025H46.7141H46.6256H46.5372H46.4488H46.3604H46.2719H46.1835H46.0951H46.0066H45.9182H45.8298H45.7414H45.6529H45.5645H45.4761H45.3876H45.2992H45.2108H45.1223H45.0339H44.9455H44.857H44.7686H44.6802H44.5918H44.5033H44.4149H44.3265H44.238H44.1496H44.0612H43.9727H43.8843H43.7959H43.7074H43.619H43.5306H43.4421H43.3537H43.2653H43.1768H43.0884H43H42.9115H42.8231H42.7347H42.6462H42.5578H42.4693H42.3809H42.2925H42.204H42.1156H42.0272H41.9387H41.8503H41.7619H41.6734H41.585H41.4965H41.4081H41.3197H41.2312H41.1428H41.0544H40.9659H40.8775H40.7891H40.7006H40.6122H40.5237H40.4353H40.3469H40.2584H40.17H40.0815H39.9931H39.9047H39.8162H39.7278H39.6393H39.5509H39.4625H39.374H39.2856H39.1971H39.1087H39.0203H38.9318H38.8434H38.7549H38.6665H38.5781H38.4896H38.4012H38.3127H38.2243H38.1359H38.0474H37.959H37.8705H37.7821H37.6936H37.6052H37.5168H37.4283H37.3399H37.2514H37.163H37.0745H36.9861H36.8977H36.8092H36.7208H36.6323H36.5439H36.4554H36.367H36.2786H36.1901H36.1017H36.0132H35.9248H35.8363H35.7479H35.6594H35.571H35.4826H35.3941H35.3057H35.2172H35.1288H35.0403H34.9519H34.8634H34.775H34.6866H34.5981H34.5097H34.4212H34.3328H34.2443H34.1559H34.0674H33.979H33.8905H33.8021H33.7136H33.6252H33.5367H33.4483H33.3599H33.2714H33.183H33.0945H33.0061H32.9176H32.8292H32.7407H32.6523H32.5638H32.4754H32.3869H32.2985H32.21H32.1216H32.0331H31.9447H31.8562H31.7678H31.6793H31.5909H31.5024H31.414H31.3255H31.2371H31.1486H31.0602H30.9717H30.8833H30.7948H30.7064H30.6179H30.5295H30.441H30.3526H30.2641H30.1757H30.0872H29.9988H29.9103H29.8219H29.7334H29.645H29.5565H29.4681H29.3796H29.2912H29.2027H29.1143H29.0258H28.9374H28.8489H28.7605H28.672H28.5836H28.4951H28.4067H28.3182H28.2298H28.1413H28.0529H27.9644H27.876H27.7875H27.6991H27.6106H27.5222H27.4337H27.3453H27.2568H27.1683H27.0799H26.9914H26.903H26.8145H26.7261H26.6376H26.5492H26.4607H26.3723H26.2838H26.1954H26.1069H26.0185H25.93H25.8416H25.7531H25.6646H25.5762H25.4877H25.3993H25.3108H25.2224H25.1339H25.0455H24.957H24.8686H24.7801H24.6917H24.6032H24.5147H24.4263H24.3378H24.2494H24.1609H24.0725H23.984H23.8956H23.8071H23.7187H23.6302H23.5418H23.4533H23.3648H23.2764H23.1879H23.0995H23.011H22.9226H22.8341H22.7457H22.6572H22.5687H22.4803H22.3918H22.3034H22.2149H22.1265H22.038H21.9496H21.8611H21.7727H21.6842H21.5957H21.5073H21.4188H21.3304H21.2419H21.1535H21.065H20.9766H20.8881H20.7996H20.7112H20.6227H20.5343H20.4458H20.3574H20.2689H20.1805H20.092H20.0035H19.9151H19.8266H19.7382H19.6497H19.5613H19.4728H19.3843H19.2959H19.2074H19.119H19.0305H18.9421H18.8536H18.7652H18.6767H18.5882H18.4998H18.4113H18.3229H18.2344H18.146H18.0575H17.9691H17.8806H17.7921H17.7037H17.6152H17.5268H17.4383H17.3499H17.2614H17.1729H17.0845H16.996H16.9076H16.8191H16.7307H16.6422H16.5537H16.4653H16.3768H16.2884H16.1999H16.1115H16.023H15.9346H15.8461H15.7576H15.6692H15.5807H15.4923C15.4315 41.755 15.3627 41.7496 15.2777 41.7381C15.2769 41.6902 15.2762 41.6424 15.2754 41.5946C15.2473 39.8675 15.2195 38.1559 15.2551 36.4529C15.2583 36.3571 15.3539 36.111 15.5012 35.9579C17.0115 34.4035 18.5527 32.8722 20.0983 31.3365C20.3188 31.1176 20.5393 30.8985 20.7598 30.6792L20.7618 30.6772C21.1462 30.2928 21.3694 30.2461 21.4623 30.2451C21.552 30.2441 21.7735 30.2828 22.1621 30.6629C22.5203 31.0166 22.8775 31.367 23.2331 31.7158C24.5017 32.96 25.7495 34.1838 26.9458 35.466C27.3231 35.8752 27.8716 36.3608 28.6211 36.3368C29.3313 36.314 29.8553 35.8335 30.1949 35.489C34.2921 31.3538 38.4058 27.2363 42.5213 23.117C43.893 21.744 45.2649 20.3708 46.6365 18.9967L46.6415 18.9917C46.8009 18.8297 46.9287 18.7026 47.0524 18.5982C47.1748 18.4948 47.2609 18.4422 47.32 18.4164C47.3693 18.395 47.3928 18.3949 47.4103 18.3965C47.4278 18.3981 47.4792 18.4058 47.5706 18.4538C48.5591 19.4097 49.5442 20.3874 50.5347 21.3703C53.0146 23.8314 55.5278 26.3255 58.2098 28.5943Z" stroke="#0B0968" stroke-width="2"/>
<path d="M18.9431 23.9212L18.6527 23.9231C16.4896 23.7853 14.2798 21.9444 14.1391 18.9731L14.139 18.9708C14.0172 16.5186 16.3187 14.069 19.1018 14.069C20.2569 14.069 21.554 14.5888 22.5114 15.4957C23.4527 16.3874 24.0117 17.5962 23.8472 18.9838L23.8355 19.0827L23.8435 19.1818C24.0573 21.8348 21.6123 23.9035 18.9431 23.9212Z" stroke="#0B0968" stroke-width="2"/>
</svg>
