<?xml version="1.0" encoding="UTF-8"?>
<svg id="Layer_1" data-name="Layer 1" xmlns="http://www.w3.org/2000/svg" viewBox="0 0 282.74 360.79">
  <defs>
    <style>
      .cls-1 {
        fill: #fff;
      }
    </style>
  </defs>
  <path class="cls-1" d="m282.2,193.83c.18-.51.36-1.02.54-1.53-.47-.68-.99-1.34-1.41-2.05-1.58-2.69-3.3-4.17-6.99-3.35-2.83.63-6.05-.29-9.07-.75-.76-.11-1.6-.98-2.02-1.72-1.59-2.8-3.02-5.69-4.43-8.39,2.85-4.06,5.73-7.85,8.19-11.88.73-1.2,1-3.69.26-4.6-4.28-5.27-8.81-10.36-13.49-15.28-3.36-3.54-8.01-4.76-10.77-3.04-2.77,1.73-5.41,3.67-7.96,5.7-2.16,1.72-4.24,2.94-6.88,1.07h.01c-.12-.29-.24-.59-.36-.89-.14.29-.27.57-.4.86-4.26-1.28-7.48-6.96-6.53-11.53.98-4.74-2.81-9.52-7.67-9.56-6.35-.05-12.71-.01-19.06,0-4.72.01-8.49,3.82-8.68,8.55-.12,2.85-.41,5.7-.75,8.53-.08.72-.46,1.76-1.01,2.03-3.1,1.52-6.29,2.85-9.45,4.25-.52-.68-1.05-1.37-1.57-2.06-2.76-1.92-5.49-3.9-8.3-5.76-2.27-1.51-4.65-2.76-7.35-.86l-.04.02c-.27.2-.55.39-.82.58-5.41,5.56-10.85,11.09-16.22,16.68-2.28,2.38-2.22,4.93-.16,7.47,2.37,2.93,4.71,5.88,7.11,8.78,1.33,1.62-1.35,11.39-3.34,11.99-.23.06-.5-.01-.74.03-4.75.79-9.51,1.6-14.26,2.4l-.82.56c-.54,1.17-1.53,2.34-1.54,3.52-.08,8.07.04,16.15.1,24.22h.03s.02.7.02.7l-.03.03c-.19,3.82,3.08,4.46,5.48,5.07,2.5.63,5.31.05,7.99,0,.26-.36.51-.71.77-1.06,0,0,0,.01.01.02-.25.35-.5.69-.75,1.03.49,0,.98.03,1.46.04,0,0,0,0,0,.01,3.73.88,4.7,4.29,6.42,7.02.86,1.76,2.23,3.55-.29,5.12-.27.49-.54.98-.81,1.47-1.06,1.49-2.13,2.97-3.2,4.46-1.16,2-2.33,3.99-3.49,5.99.01,0,.02,0,.03.01.44,1.75.88,3.5,1.32,5.25,0,.02,0,.04-.01.07,5.3,5.14,10.7,10.19,15.87,15.47,2.41,2.47,4.7,2.51,7.24.65,3.81-2.79,7.55-5.69,11.3-8.52,2.32.91,4.78,1.82,7.19,2.83,1.48.62,2.69,1.16,2.84,3.38.24,3.57,1.33,7.08,1.98,10.63.66,3.6,2.43,5.78,6.42,5.47,1.1-.09,2.23.07,3.34.11.2.19.4.39.6.58v11.8h-4.21c-59.79,0-119.59-.01-179.39,0-2.49,0-5.16-.44-7.41.33-2.32.8-4.23,2.81-6.32,4.29.41,1.27.81,2.54,1.22,3.81v32.91c-.41,1.02-.83,2.03-1.24,3.05.69,1.6,1.62,3.15,2.05,4.82,1.56,6.1,5.73,10.15,10.66,13.44,1.99,1.33,4.59,2.44,6.92,2.44,55.82.16,111.65.17,167.48.2,1.36,0,2.82.22,4.08-.17,11.43-3.54,17.78-12.25,17.78-24.13v-53.53c2.59,0,4.71-.15,6.81.04,2.58.24,3.98-1.16,4.66-3.26.59-1.82,1.03-3.82.95-5.71-.26-6.25,1.21-11.06,8.16-12.88,2.16-.57,3.69-.71,5.24.84.29.2.58.4.87.6,2.04,1.46,4.3,2.71,6.07,4.45,2.47,2.42,5.02,3.12,8.14,1.61,2.74-2.75,5.49-5.49,8.23-8.24,2.85-2.93,5.72-5.84,8.53-8.8,2.62-2.76,2.7-5.18.35-8.09-2.16-2.7-4.35-5.37-6.53-8.06-2.66-3.29-.59-10.62,3.47-11.83,2.29-.68,4.72-1.22,7.1-1.25,4.82-.05,8.42-1.95,10.94-6.01-.15-.77-.31-1.53-.47-2.3v-20.19Zm-83.79,143.2c-.07,7.52-5.1,12.44-12.65,12.44-53.5-.01-106.99-.02-160.49.02-5.48.01-9.53-2.08-11.32-7.34-.71-2.11-.58-4.54-.59-6.83-.05-9.45-.02-18.89-.02-28.47h0s185.07,0,185.07,0v15.95c0,4.74.04,9.48,0,14.22Zm57.54-89.65s.08-.15.13-.23h0c-.05.09-.14.18-.13.23,0,0,0,0,0,0Zm.32.02c.02-.08.05-.16.07-.24h0c-.02.08-.05.16-.08.24Zm1.7-33.97c-1.97.7-3.98,2.6-4.96,4.48-1.87,3.58-2.75,7.68-4.54,11.31-1.84,3.73-1.56,6.74,1.26,9.81,2.3,2.5,4.26,5.3,6.22,7.77-3.12,3.18-6.05,6.16-9.13,9.3-2.65-1.85-5.32-3.68-7.96-5.57-3.03-2.17-5.44-3.95-9.66-.96-3.85,2.72-9.11,3.45-13.75,5.06-.27.19-.55.37-.82.55-2.63,1.71-1.88,4.47-2.27,6.93-.49,3.06-1.3,6.07-2.04,9.39h-12.6c-.57-4.1-.81-8.34-1.89-12.36-.48-1.78-2.41-3.63-4.16-4.52-4.46-2.27-9.12-4.19-13.83-5.89-2.95-1.06-5.79-.18-8.06,2.13l-.02-.03c-.27.19-.55.38-.82.57-2.39,1.82-4.79,3.64-7,5.31-3.07-3.11-5.94-6.01-8.82-8.92,2.2-3.93,4.73-8.25,7.03-12.68.47-.89.42-2.35.04-3.32-1.93-4.89-4.27-9.63-6.04-14.58-1.37-3.82-4.67-3.63-7.41-3.86-9.9-.84-9.91-.69-9.9-10.59v-3.44c4.37-.86,8.58-1.76,12.82-2.49,2.77-.48,4.05-2.17,4.94-4.66,1.66-4.6,3.49-9.15,5.4-13.66.8-1.89.79-3.13-.76-4.82-2.5-2.73-5.17-5.67-6.5-9.03-2.1-5.33,4.1-6.37,6.22-9.6,1.2-1.82,2.81-.88,4.39.39,3.1,2.49,6.47,4.62,9.61,5.73,2.12-.42,4.32-.63,6.35-1.31,4.42-1.48,8.87-2.96,13.06-4.96,1.35-.65,2.44-2.79,2.78-4.43.62-2.97.78-6.08.78-9.13.01-2.37.99-3.1,3.16-2.95,1.36.1,2.74.02,4.11.02,7.17,0,7.36-.01,7.74,7.06.32,5.98,3.67,9.13,8.81,11.19,3.35,1.34,6.48,3.28,9.89,4.37,1.74.55,4.17.37,5.77-.46,2.54-1.32,4.73-3.39,6.92-5.3,2.13-1.86,3.93-2.67,6.16,0,1.91,2.29,4.22,4.23,6.61,6.57-1.81,2.87-3.3,5.97-5.46,8.5-3.05,3.58-3.42,5.22-1.38,9.64,1.7,3.7,3.26,7.48,4.57,11.33,1.12,3.28,3.3,5.07,6.55,5.46,3.79.45,7.61.61,11.42.89,0,0,0,0,0,0v12.53h0s0,0,0,.01c-4.3,1.02-8.71,1.73-12.84,3.21Z"/>
  <path class="cls-1" d="m119.98,67.33c-3-.23-4.57,1.31-5.63,4.03-5.47,14.06-11.05,28.08-16.61,42.11-5.18,13.07-10.42,26.13-15.53,39.23-1.33,3.4-.18,7.69,2.38,8.64,3.55,1.32,6-.55,7.33-3.7,2.44-5.78,4.64-11.67,6.98-17.5,2.9-7.23,5.84-14.45,8.75-21.68,5.85-14.51,11.7-29.02,17.51-43.54,1.59-3.97-.92-7.6-5.17-7.6h-.01Z"/>
  <path class="cls-1" d="m70.36,86.13c-1.56-.92-3.57-1.09-5.38-1.59,0,0,0,0,0,.01h-1.48s0,0,0-.01c-.77,1.14-1.4,2.42-2.34,3.4-7.12,7.42-14.3,14.79-21.46,22.18-2.29,2.36-2.27,6.32.09,8.72,5.65,5.76,11.33,11.5,17,17.25l6.74,6.74c3.08,1.3,5.97,1.58,8.03-1.73,1.99-3.21.59-5.64-1.76-8.03-6.14-6.25-12.17-12.62-18.78-19.51,6.31-6.03,12.58-12.03,18.86-18.03h0s.09-.1.09-.1c.69-1.12,1.48-2.18,2.03-3.35,1.12-2.4.57-4.65-1.63-5.95Z"/>
  <path class="cls-1" d="m156.27,94.35c-2.74-2.74-5.49-5.49-8.23-8.23-2.32-.06-4.99-.86-6.89,0-3.07,1.41-3.01,6-.2,8.86,5.64,5.76,11.35,11.44,17.11,17.08,1.46,1.43,1.64,2.49.1,3.99-3.2,3.11-6.25,6.36-9.37,9.56-.03.18-.08.36-.12.54.04-.18.09-.36.12-.54-2.95,3.02-5.89,6.05-8.83,9.07,1.98-.18,3.99-1.32,5.61-2.98-1.61,1.66-3.62,2.8-5.61,2.98-2.06,3.56-1.76,5.47,1.46,8.01,2.6,2.04,5.19,1.22,7.23-.78,5.76-5.63,11.35-11.44,17.01-17.18h-.01s.12-.13.12-.13c1.75-1.9,3.45-3.84,5.24-5.7,3.48-3.62,3.47-6.04-.11-9.68-4.87-4.96-9.75-9.92-14.63-14.88Z"/>
  <path class="cls-1" d="m17.1,1.53c-2.52,1.45-5.03,2.89-7.55,4.33,3.07,1.15,6.67-.91,7.55-4.33Z"/>
  <path class="cls-1" d="m-.01,20.9c.43.76.85,1.52,1.28,2.28,2.3-.21,3.92-.72,2.85-2.4,1.09,1.69-.54,2.2-2.84,2.42.27,1.53.77,3.06.77,4.59.04,80.53.03,161.05.03,241.57,0,1.47-.39,3-.13,4.41.29,1.59.69,3.88,1.8,4.49,4.63,2.54,8.64,1.7,9.45-4.34h0s0,0,0-.01c.05-.74.13-1.48.13-2.22.01-72.62,0-145.23,0-217.85,1.11-.08,2.22-.23,3.33-.23,59.42-.01,118.84-.01,178.26-.01h3.6v30.97c.15.25.31.5.46.75,1.27,2.22,3.2,3.86,5.68,2.83,1.83-.77,3.37-2.55,4.67-4.17.58-.72.33-2.16.33-3.27.03-19.91.03-39.81.03-59.72h0s0-.01,0-.01c-.31-1.28-.62-2.55-.93-3.83-1.3.99-1.75,1.77-1.53,2.4-.22-.63.22-1.41,1.53-2.41l-.93-2.97c-2.62-.2-3.8-1.19-2.05-3.77-1.76-1.77-3.51-3.53-5.27-5.3,0,0,0,0,0,0-1-.74-2-1.47-3-2.2,0,0,0,0,0-.01-1.22-.44-2.45-.88-3.67-1.32l-3.08-.75c-1.8-.28-3.59-.81-5.39-.81C129.83-.02,74.31,0,18.79.09c-.56,0-1.12.95-1.68,1.45-.89,3.42-4.49,5.49-7.55,4.33l-1.49,1.49c.11,1.68.2,3.35-2.31,3.05-.34.31-.67.61-1.01.92.95,2.85,2.41,5.84-1.88,7.36,0,0,0-.01,0-.02,0,0,0,0,0,0,4.29-1.52,2.84-4.5,1.88-7.36-.89,2.45-1.77,4.9-2.65,7.35,0,0,0,0,0,0-.69.74-1.38,1.48-2.07,2.22-.01,0-.02.01-.04.02Zm11.1,247.83c0-69.94,0-139.87.04-209.81-.04,69.94-.04,139.87-.04,209.81,0,.47-.07.97-.09,1.45.02-.48.09-.98.09-1.45Zm2.19-226.04l-.55,1.12s0,0,0-.01c.18-.37.37-.74.55-1.12-.47-.02-.94-.04-1.42-.06h0c.47.02.94.04,1.42.06h.01Zm4.64-29.97s0,0,0-.01c.71-.29,1.43-.59,2.14-.87,0,0,.01,0,.02,0,54.09-.19,108.17-.4,162.26-.56,2.55-.01,5.11.35,7.66.54,0,0,0,0,.01-.01.74.25,1.48.49,2.22.74l-.92-1.97s0,0,0,0c.31.65.61,1.31.92,1.97,0,0,0,0,0,0h0s0,0,0,0c0,0,0,.01,0,.02.74.56,1.48,1.13,2.22,1.69,0,0,.01,0,.02,0l2.98,3.7h0c.07-1.27.14-2.53.21-3.79,0,0,0,0,0,0l-.21,3.8c.45,7.99.89,15.97,1.36,24.33H18.05c-1.5,0-2.99.08-4.48.12-.12-6.91-.23-13.83-.35-20.74,0,0,0,0,0,0-.01-.75-.01-1.5-.01-2.25h0c.33-.74.65-1.47.98-2.19,0,0,.01,0,.02,0,1.24-1.5,2.47-3,3.71-4.5Zm-6.94,43.17c.03-.24.09-.47.19-.69-.1.22-.16.45-.19.69-.03.24-.04.49-.03.75,0-.26,0-.51.03-.75ZM2.92,19.41s0,0,0,0c0,0,0,0,0,0h0Z"/>
  <path class="cls-1" d="m207.83,14.17c-.68-1.26-1.37-2.51-2.05-3.77-1.75,2.58-.57,3.57,2.05,3.77Z"/>
  <path class="cls-1" d="m8.06,7.35l-2.31,3.05c2.5.3,2.41-1.37,2.31-3.05Z"/>
  <path class="cls-1" d="m165.78,124.61h0s-.12.13-.12.13c.22.09.43.17.64.25-.18-.12-.35-.25-.52-.38Z"/>
  <path class="cls-1" d="m69.96,95.45l-.09.09c.21.09.42.18.62.27-.18-.13-.35-.25-.53-.37h0Z"/>
  <path class="cls-1" d="m204.21,175.07c-16.25-.54-29.98,13.38-30.13,29.61-.16,17.47,14.87,30.09,28.9,30.29,16.15.22,31.42-13.29,30.43-30.07.78-16.89-13.59-29.31-29.2-29.83Zm5.49,47.34v-9.27c0-3.48.04-6.97,0-10.46-.06-5.3-2.98-7.71-8.1-6.57-2.97.66-3.1,3.26-3.14,5.59-.11,5.61-.04,11.21-.04,16.82v3.65h0c-6.85-.32-12.68-9.97-13.09-16.26-.65-10,7.2-18.45,15.57-19.45,9.29-1.11,18.58,3.72,20.95,13.71,1.96,8.24-.65,17.92-12.14,22.24Z"/>
  <path class="cls-1" d="m131.41,324.6h-24.68c-8.72-.01-17.45-.09-26.17.02-4.4.06-5.99,1.9-5.82,6.14.13,3.33,2.16,5.07,6.35,5.08,16.45.05,32.9.03,49.35,0,.96,0,2.2.02,2.83-.52,1.58-1.35,3.8-2.87,4.09-4.6.45-2.72-3.45-6.12-5.95-6.12Z"/>
  <path class="cls-1" d="m106.03,32.3c4.61.09,9.23.02,13.84.02h0c4.49-.01,8.98.03,13.47-.01,3.68-.03,6.36-2.17,6.51-5.1.18-3.55-2.1-6.06-6.22-6.12-9.23-.14-18.46-.11-27.68.02-3.77.06-5.78,2.25-5.78,5.74-.01,3.57,1.83,5.37,5.86,5.45Z"/>
</svg>