<svg width="369" height="243" viewBox="0 0 369 243" fill="none" xmlns="http://www.w3.org/2000/svg">
<g clip-path="url(#clip0_767_266)">
<path fill-rule="evenodd" clip-rule="evenodd" d="M30.62 0H338.03C346.17 0 353.91 3.24 359.66 8.99C365.41 14.74 368.65 22.48 368.65 30.62V212.07C368.65 220.21 365.41 227.95 359.66 233.7C353.91 239.45 346.17 242.69 338.03 242.69H30.62C22.48 242.69 14.74 239.45 8.99 233.7C3.24 227.95 0 220.21 0 212.07V30.61C0 22.47 3.24 14.73 8.99 8.98C14.74 3.24 22.48 0 30.62 0ZM338.03 17.01H30.62C27 17.01 23.58 18.46 21.02 21.01C18.47 23.56 17.02 26.99 17.02 30.61V212.06C17.02 215.68 18.47 219.1 21.02 221.66C23.57 224.21 27 225.66 30.62 225.66H338.03C341.65 225.66 345.07 224.21 347.63 221.66C350.18 219.11 351.63 215.68 351.63 212.06V30.61C351.63 26.99 350.18 23.57 347.63 21.01C345.08 18.46 341.65 17.01 338.03 17.01Z" fill="#0B0968"/>
<path d="M365.8 53.2801V92.3801V98.0501H360.13H8.50984H2.83984V92.3801V53.2801V47.6101H8.50984H360.13H365.8V53.2801Z" fill="#0B0968"/>
<path d="M63.5105 132.68C67.6305 132.68 71.5905 133.42 75.2605 134.77C75.5805 134.89 75.9005 135.01 76.2205 135.14C74.8205 136.21 73.4905 137.37 72.2305 138.63C64.7605 146.09 60.6005 156.14 60.6005 166.7C60.6005 177.26 64.7605 187.31 72.2305 194.77C73.4905 196.03 74.8205 197.19 76.2205 198.26C75.9005 198.39 75.5805 198.51 75.2605 198.63C71.5805 199.99 67.6205 200.73 63.5105 200.73C54.1105 200.73 45.6105 196.92 39.4505 190.76C33.2905 184.6 29.4805 176.1 29.4805 166.7C29.4805 157.3 33.2905 148.8 39.4505 142.64C45.6105 136.48 54.1205 132.67 63.5105 132.67V132.68Z" fill="#0B0968"/>
<path d="M76.2395 142.65C82.3995 136.49 90.8995 132.68 100.3 132.68C109.7 132.68 118.2 136.49 124.36 142.65C130.52 148.81 134.33 157.32 134.33 166.71C134.33 176.1 130.52 184.61 124.36 190.77C118.2 196.93 109.7 200.74 100.3 200.74C90.8995 200.74 82.3995 196.93 76.2395 190.77C70.0795 184.61 66.2695 176.11 66.2695 166.71C66.2695 157.31 70.0795 148.81 76.2395 142.65Z" fill="#0B0968"/>
<path fill-rule="evenodd" clip-rule="evenodd" d="M165.549 158.2H201.879C206.299 158.2 209.889 162.01 209.889 166.71C209.889 171.41 206.299 175.22 201.879 175.22H165.549C161.129 175.22 157.539 171.41 157.539 166.71C157.539 162.01 161.129 158.2 165.549 158.2ZM228.839 158.2H265.169C269.589 158.2 273.179 162.01 273.179 166.71C273.179 171.41 269.589 175.22 265.169 175.22H228.839C224.419 175.22 220.829 171.41 220.829 166.71C220.829 162.01 224.419 158.2 228.839 158.2ZM292.129 158.2H328.459C332.879 158.2 336.469 162.01 336.469 166.71C336.469 171.41 332.879 175.22 328.459 175.22H292.129C287.709 175.22 284.119 171.41 284.119 166.71C284.119 162.01 287.709 158.2 292.129 158.2Z" fill="#0B0968"/>
</g>
<defs>
<clipPath id="clip0_767_266">
<rect width="368.64" height="242.68" fill="white"/>
</clipPath>
</defs>
</svg>
