<svg width="63" height="63" viewBox="0 0 63 63" fill="none" xmlns="http://www.w3.org/2000/svg">
<path d="M23.7968 36.7347C22.4495 35.3613 21.1035 33.992 19.7507 32.6288L19.748 32.6261C19.7115 32.6357 19.6596 32.6524 19.5902 32.6809L19.59 32.681C19.3056 32.7981 19.0199 32.9161 18.7331 33.0345C16.5434 33.939 14.2857 34.8715 11.9862 35.6354L23.7968 36.7347ZM23.7968 36.7347H23.6656L26.3142 39.3102C26.656 39.6425 26.9971 39.9734 27.3375 40.3036C28.4323 41.3655 29.5195 42.42 30.5956 43.4913C30.4072 43.9448 30.1977 44.3909 29.9722 44.871C29.8594 45.1111 29.7427 45.3598 29.6225 45.6221L29.6004 45.6703L29.5818 45.7199C28.9502 47.4042 28.3186 49.0801 27.6864 50.7575C27.6347 50.8929 27.5617 51.0675 27.4794 51.2645C27.2913 51.7143 27.0544 52.281 26.9094 52.7666L26.9093 52.7666L26.9064 52.7767C26.5998 53.8298 25.8261 54.3575 24.3538 54.8404L24.3521 54.841C21.4898 55.7839 18.6184 56.7102 15.7418 57.6381L15.7313 57.6415L15.7209 57.645C14.9213 57.9159 14.1229 58.187 13.325 58.4579C11.4515 59.094 9.5816 59.7289 7.7094 60.3573C10.1472 57.9093 12.5864 55.4669 15.0394 53.0392L15.0394 53.0392L15.0449 53.0337C15.1997 52.8789 15.3542 52.7997 15.4126 52.7825C15.9331 52.6505 16.4272 52.5701 16.9861 52.4791C17.2789 52.4314 17.5894 52.3809 17.9308 52.3185L18.5005 52.2144L18.8525 51.7545C19.4906 50.9207 20.1194 50.0794 20.7423 49.2462L20.7434 49.2446L20.9719 48.939L21.0265 48.5613C21.2576 46.9641 21.091 45.1472 19.5406 43.7033C18.0012 42.2414 16.0126 41.8211 14.2208 42.3958C12.47 42.9573 11.0621 44.4138 10.4376 46.4045C10.4269 46.4305 10.4148 46.4616 10.4032 46.4953C10.3746 46.5779 10.3168 46.7635 10.3168 47.0057V47.204L10.3684 47.3956C10.4825 47.8196 10.4414 48.04 10.4025 48.1553C10.3585 48.2855 10.2612 48.4443 10.0286 48.6628C9.80338 48.8744 9.53863 49.0658 9.17713 49.3272C9.13406 49.3583 9.08963 49.3905 9.04372 49.4237C8.66123 49.701 8.16739 50.065 7.74652 50.5241C6.10165 52.2238 4.46158 53.9187 2.82229 55.6174C3.55177 53.3711 4.28469 51.1276 5.01887 48.8804C5.21 48.2953 5.40122 47.71 5.59249 47.1243C5.60599 47.1047 5.62035 47.0837 5.63492 47.0618L5.74857 46.8913L5.81234 46.6966C6.44491 44.7652 7.07712 42.8348 7.70929 40.9131L7.7093 40.9131L7.71095 40.908C7.73357 40.8384 7.75591 40.7842 7.79551 40.6881C7.81481 40.6413 7.83821 40.5845 7.86773 40.5112C7.93977 40.3322 8.04741 40.0534 8.10581 39.727C8.31946 38.5924 8.75708 37.7786 9.35573 37.1601C9.96781 36.5277 10.8246 36.0214 11.9861 35.6354L23.7968 36.7347Z" stroke="#0B0968" stroke-width="3"/>
<path d="M61.4515 8.57746L61.4389 8.57655C60.8846 5.47808 59.0366 3.46735 56.0902 2.28277L61.4515 8.57746ZM61.4515 8.57746C61.4737 8.72364 61.4838 8.89818 61.4874 9.1342C61.4883 9.19668 61.4887 9.27197 61.4892 9.35485C61.49 9.50626 61.4909 9.68301 61.4956 9.85328C61.4401 10.1937 61.3847 10.5353 61.3294 10.8764C61.2755 11.2092 61.2216 11.5414 61.1677 11.8721C60.9871 12.3101 60.8055 12.7576 60.6253 13.2014C60.5032 13.5024 60.3817 13.8017 60.2617 14.0951C60.1009 14.3362 59.935 14.5985 59.7833 14.8383C59.6867 14.9911 59.5958 15.1347 59.5157 15.258C59.2565 15.6567 59.0237 15.9828 58.776 16.2527C58.1911 16.8862 57.5726 17.4314 56.8919 18.0314C56.5777 18.3084 56.2501 18.5972 55.9065 18.9117L55.8948 18.9224L55.8833 18.9334C55.5194 19.2809 55.1578 19.6274 54.7972 19.9728C53.4756 21.2391 52.1693 22.4906 50.8297 23.7186L61.4515 8.57746ZM27.2019 30.1197L27.2048 30.1226C28.6304 31.5684 30.0559 33.0233 31.4802 34.4769C32.4319 35.4482 33.3829 36.4189 34.333 37.3858L34.3429 37.3958L34.3428 37.3959C34.4802 37.5383 34.6759 37.7576 34.831 37.9314C34.9151 38.0256 34.9873 38.1065 35.0318 38.1546C35.0848 38.2117 35.1338 38.2629 35.1797 38.3089C35.782 37.738 36.3542 37.1475 36.9513 36.5312C37.2796 36.1924 37.6155 35.8457 37.968 35.4903C38.08 35.3743 38.2009 35.246 38.3284 35.1107C38.6771 34.7405 39.0752 34.3181 39.4751 33.9513C39.9277 33.5336 40.3886 33.1269 40.8371 32.7319L40.909 32.6687C41.3369 32.2919 41.7528 31.9257 42.1604 31.5531L42.1685 31.5456L42.1685 31.5456C42.8093 30.9684 43.4498 30.3921 44.09 29.8162C46.3445 27.7879 48.5942 25.764 50.8296 23.7187L27.2019 30.1197ZM27.2019 30.1197C26.5336 29.4457 25.8534 28.7789 25.1557 28.0957C25.4737 27.7513 25.7912 27.4078 26.1078 27.0652C26.9107 26.1965 27.7085 25.3333 28.498 24.4738C28.498 24.4738 28.498 24.4738 28.4981 24.4738L38.7741 13.2872C38.7749 13.2864 38.7756 13.2857 38.7763 13.2849C40.1541 11.7979 41.525 10.3177 42.8961 8.82881C43.8999 7.79562 44.9036 6.76044 45.9066 5.7259C46.8841 4.71772 47.8611 3.71013 48.8379 2.70457M27.2019 30.1197L48.8379 2.70457M48.8379 2.70457C51.0426 1.138 53.4196 1.2101 56.0899 2.28261L48.8379 2.70457ZM35.5043 38.5867L35.4996 38.5836C35.5012 38.5846 35.5027 38.5857 35.5043 38.5867Z" stroke="#0B0968" stroke-width="3"/>
</svg>
