<?xml version="1.0" encoding="UTF-8"?>
<svg id="Layer_1" data-name="Layer 1" xmlns="http://www.w3.org/2000/svg" viewBox="0 0 1080 1080">
  <defs>
    <style>
      .cls-1 {
        fill: #fff;
      }
    </style>
  </defs>
  <path class="cls-1" d="m731.98,688.49v-23.25c-.25-.49-.51-.97-.76-1.46-.2-.26-.4-.52-.61-.78-2.18-4.08-5.28-6.97-10.09-7.49-1.69-.18-1.87-.85-1.38-2.36.33-1.02.06-2.23.06-3.35,0-70.03,0-140.07,0-210.1,0-8.87-.23-17.7-2.24-26.4-.2-.26-.4-.52-.6-.78-3.09-7.44-8.29-12.98-15.56-16.34-4.75-2.19-9.9-3.3-15.19-3.3-20.25,0-40.49,0-60.74,0-.87,0-1.75,0-2.62,0-1.68,0-1.23-1.15-1.14-2.11-.12-.77-.24-1.53-.36-2.3-2.86-5.76-7.56-9.84-12.38-13.89-2.17-1.82-4.18-3.74-6.86-4.8-4.56-1.79-8.52-.28-12.31,2.17-4.66,3.01-9.3,6.06-13.95,9.09-.97.64-1.79.76-2.94.04-1.51-.95-3.23-1.91-4.95-2.1-4.13-.46-4.3-3.49-4.87-6.46-.87-4.5-2.04-8.96-2.71-13.49-.74-4.98-3.58-8.04-7.93-10.04-.49-.23-.9-.64-1.35-.97h-21c-.9.49-1.75,1.1-2.7,1.45-4.4,1.62-6.24,5.08-7.08,9.4-.69,3.55-1.59,7.06-2.39,10.59-.45,2-1.1,4-1.25,6.03-.11,1.52-.67,2.26-2.01,2.66-.57.17-1.12.43-1.68.63-2.69.94-5.49,2.83-8.04,2.55-2.45-.27-4.67-2.78-6.96-4.34-2.5-1.7-4.86-3.65-7.5-5.1-2.28-1.25-4.8-2.34-7.34-2.82-3.56-.67-6.77,1.12-9.26,3.34-4.55,4.06-8.69,8.59-12.98,12.95-.48.49-.81,1.12-1.21,1.68-.32,1.24-.64,2.48-.96,3.72.09.96.54,2.11-1.14,2.11-.87,0-1.75,0-2.62,0-19.99,0-39.99-.01-59.98,0-6.17,0-12.05,1.34-17.58,4.08-1.18.58-2.2,1.46-3.3,2.21-.27.19-.55.38-.82.56-5.03,4.12-8.76,9.17-10.5,15.47-.74,2.68-1.36,5.49-1.36,8.25-.06,75.2-.04,150.4-.03,225.61,0,.37,0,.75,0,1.12,0,4.48.05,4.69-4.07,5.77-4.64,1.22-6.81,4.66-8.7,8.53v24c1.06.75,1.06,1.5,0,2.25v3.75c1.05,3.25,2.09,6.5,3.14,9.76.2.26.4.52.6.77,1,3.15,3.09,5.63,4.85,8.37,5.93,9.19,14.45,14.31,24.69,17.13,1.43.39,2.81.97,4.22,1.47h3.75c.75-1.07,1.5-1.06,2.25,0h296.97c.5-.92,1-.92,1.5,0h3c3.15-.99,6.32-1.92,9.44-2.98,8.2-2.79,14.73-7.82,19.99-14.69,3.51-4.58,5.88-9.66,7.52-15.12.28-.92.24-1.95.59-2.83.29-.71.96-1.26,1.45-1.88v-3.75c-1.06-.75-1.06-1.5,0-2.25Zm-259.39-297.78c2.51-2.54,5.14-4.96,7.69-7.46,1.28-1.25,2.44-1.05,3.84-.09,4.55,3.16,9.16,6.23,13.76,9.31,4.12,2.76,8.41,2.81,12.88.89,3.96-1.7,7.98-3.27,11.97-4.91.51-.44,1.02-.87,1.53-1.31,3.57-3.82,4.73-8.51,5.32-13.55.47-4.06,1.52-8.05,2.31-12.08.21-.2.42-.4.63-.61h14.25c.22.2.44.41.67.61.95,4.83,1.94,9.65,2.84,14.49.52,2.8.65,5.73,2.5,8.09,2.1,2.7,4.4,5.09,7.94,6.06,2.27.63,4.4,1.8,6.53,2.85,4.69,2.33,9.34,1.77,13.99-.07,3.52-2.42,7.03-4.84,10.55-7.27.99-.58,1.97-1.15,2.96-1.73.51-.43,1.02-.85,1.52-1.28,1.07-.96,2.07-1.35,2.81.34,2.73,2.62,5.43,5.28,8.21,7.85,1.01.94,1.07,1.64.27,2.78-3.71,5.3-7.32,10.67-10.96,16.02l-.16.16c-.28,3.13-.55,6.26-.83,9.39.23.49.47.97.7,1.46.32.85.65,1.69.97,2.54.45.92.91,1.83,1.36,2.75.26.52.52,1.03.77,1.55l.59.8c.72,4.76,3.48,8.04,7.55,10.35.99.32,1.98.64,2.97.96,4.49.82,8.98,1.59,13.45,2.5,1.86.38,4.3.56,5.29,1.79.92,1.15.29,3.56.31,5.42.02,1.25,0,2.49,0,3.74q0,4.37-4.06,5.8c-.75,0-1.5,0-2.25,0-.23.09-.47.16-.71.21-.26.26-.52.53-.79.79-.32.44-.63.89-.95,1.33-.45-.44-.9-.89-1.35-1.33l.08-.25c-1.78.5-3.56,1-5.33,1.5,0,0,.08.25.08.25-.45.44-.9.89-1.35,1.33-.32-.44-.63-.89-.95-1.33,0,0-.35-.11-.35-.11l-.36.07c-1.76.66-3.52,1.33-5.28,1.99-.48.32-.95.63-1.43.95-1,1-1.99,2-2.99,3.01-.43.9-.87,1.8-1.3,2.7-.74,2.12-1.2,4.39-2.27,6.33-3.46,6.32-3.51,12.21.98,18.16,3.16,4.19,5.85,8.73,8.72,13.13.24.36.24.87.36,1.32.16.21.33.43.49.64-.22-.15-.43-.31-.65-.46-2.88,2.92-5.79,5.82-8.62,8.79-1.06,1.11-1.69,1.11-3.02.13-3.61-2.68-7.4-5.13-11.24-7.48-2.46-1.51-5-3.23-7.73-3.83-2.47-.54-5.4-.14-7.87.65-3.76,1.2-7.26,3.22-10.96,4.64-4.77,1.82-6.76,5.77-7.9,10.2-1.26,4.91-2.09,9.93-3.02,14.92-.15.8.15,1.68.28,2.89-4.86,0-9.89.02-14.92-.05-.39,0-1.03-.61-1.11-1.03-1.06-5.59-1.8-11.26-3.11-16.79-1.13-4.78-3.23-9.06-8.6-10.67-2.86-.86-5.76-1.84-8.37-3.26-5.28-2.87-10.1-2.23-14.89,1.02-4.38,2.97-8.91,5.74-13.22,8.81-1.78,1.27-2.33.93-3.74-.67-2.79-3.17-6.15-5.83-9.11-8.54,3.6-5.48,6.77-10.33,9.99-15.15.6-.89,1.39-1.65,2.09-2.47.09-.48.18-.97.26-1.45.87-3.68,1.29-7.21-.66-10.84-1.44-2.69-2.2-5.75-3.26-8.64-.28-.74-.56-1.48-.84-2.22-.95-1.06-1.9-2.12-2.85-3.17-.51-.44-1.01-.89-1.52-1.33-3.24-.81-6.49-1.62-9.73-2.42-.5-.25-1-.5-1.5-.75-2.21-.3-4.42-.59-6.63-.92-1.05-.15-2.08-.39-3.12-.58-.79-.7-2.66-.21-2.34-2.12-.07-4.1-.15-8.19-.21-12.29-.02-1.04.09-1.75,1.52-2,4.86-.84,9.68-1.96,14.53-2.91.96-.19,1.98-.1,2.98-.14.75-.25,1.5-.5,2.25-.75.75-.5,1.5-1,2.25-1.5.75-.5,1.5-1.01,2.25-1.51.71-.99,1.42-1.97,2.14-2.96l.27-1.44c1.63-3.8,3.49-7.52,4.79-11.44.67-2.02.34-4.36.46-6.56-.25-.75-.5-1.5-.75-2.25-3.55-5.52-6.99-11.11-10.71-16.51-1.1-1.59-.95-2.67.17-3.8Zm-99.03,262.26c.1-.86.02-1.75.02-2.62,0-73.98,0-147.96.03-221.93,0-3.06.14-6.18.77-9.16.39-1.87,1.82-3.53,2.78-5.28.78-1.01,1.56-2.03,2.34-3.04,2.03-1.22,4.01-2.57,6.13-3.62,1-.5,2.28-.44,3.43-.6.38-.05.9.17,1.16,0,1.88-1.32,4-1.03,6.08-1.03,21.49,0,42.99.05,64.48-.08,2.74-.02,4.41.92,5.75,3.09,1.21,1.96,2.49,3.89,3.81,5.78.89,1.28.84,2.31-.02,3.69-1.2,1.92-2.66,4.04-2.82,6.16-.18,2.45-1.78,2.8-3.17,3.1-5.57,1.19-11.21,2.02-16.8,3.12-5.09,1-8.5,3.99-9.89,9.06-.16.58.3,1.3.28,1.94-.14,6.17-.43,12.34-.43,18.51,0,2.45,1.4,4.51,3.02,6.34,2.16,2.45,4.88,3.95,8.01,4.75,1.25.25,2.5.5,3.75.75,3.5.75,7,1.5,10.5,2.25,1.25.25,2.5.5,3.75.75,1.5,3.16,3.08,6.3,4.43,9.52.22.53-.45,1.53-.87,2.21-3.42,5.43-6.79,10.88-10.37,16.2-1.24,1.84-1.46,3.51-1.12,5.67.64,4.02,1.67,7.56,5.02,10.35,3.34,2.78,6.25,6.09,9.31,9.2,4.73,4.8,8.93,5.58,14.87,2.26.62-.35,1.3-.58,1.95-.87,3.26-2.19,6.52-4.37,9.78-6.56.8-.56,1.61-1.1,2.41-1.67,2.02-1.44,4.13-1.93,6.43-.69.21.11.47.12.7.21,7.1,2.8,7.07,2.81,8.47,10.63.68,3.81,1.45,7.6,2.25,11.39,1.26,5.95,6.16,9.96,12.21,10.02,3.37.03,6.75.13,10.11,0,3.55-.15,7.09-.54,10.63-.83,2.21-2.24,4.42-4.48,6.63-6.73.13-.48.25-.96.38-1.44.22-1.25.43-2.5.65-3.75,1.01-4.75,2.02-9.5,3.03-14.25q-.05-2.67,2.81-3.09c.25-.24.51-.47.76-.71,1.49-.52,2.99-1.03,4.48-1.55.76-.41,1.52-.83,2.28-1.24,1.65.93,3.35,1.78,4.93,2.81,4.15,2.71,8.25,5.49,12.38,8.25,8.13,3.47,11.9,1.36,17.34-3.59,3.65-3.32,6.9-7.08,10.32-10.64.74-1.5,1.47-3.01,2.21-4.51-.19-2.74-.37-5.48-.56-8.23-.75-1.25-1.51-2.5-2.26-3.75-2.8-4.23-5.6-8.46-8.39-12.69-2.57-1.49-1.3-3.04-.06-4.59.54-1.58,1-3.19,1.65-4.73.91-2.13,1.96-3.42,4.91-3.69,5.46-.49,10.83-2.11,16.21-3.38,1.48-.35,2.86-1.15,4.28-1.75,1.25-1.48,2.5-2.96,3.75-4.43,1.38-2.89,2.06-5.91,1.98-9.13-.08-3.09-.09-6.18,0-9.27.11-3.87-.83-7.43-2.74-10.76-1-.99-2-1.99-3-2.98-1.49-.57-2.97-1.15-4.46-1.72-1.5-.25-3-.5-4.5-.75-4.02-.71-8.06-1.29-12.03-2.21-1.6-.37-3.34-.92-3.79-3.2-.38-1.95-1.45-3.76-2.21-5.63l-.85-3.13c1.8-2.87,3.6-5.74,5.38-8.62.9-1.46,2.34-1.17,3.67-1.17,14.2,0,28.4,0,42.6,0,8.47,0,16.94-.12,25.41.04,5.58.11,10.68,1.77,14.64,6.01.48.49.96.98,1.44,1.46,2.13,3.1,3.72,6.34,3.77,10.28.08,7.07.61,14.14.62,21.21.05,68.73.03,137.46.02,206.19,0,5,.68,4.36-4.36,4.37-107.97.01-215.93,0-323.9,0-.75,0-1.51-.07-2.25.01-1.77.2-2.58-.44-2.35-2.3Zm224.14,17.36c-.03,5.18-.55,10.07-4.87,13.73-2.04,1.73-4.24,2.91-6.95,3.01-1,.04-2,.05-3,.05-28.62,0-57.23.01-85.85-.01-3.03,0-6.19.38-8.8-1.8-.27-.18-.54-.36-.82-.54-4.25-3.03-5.22-7.38-5.1-12.27.11-4.44.02-4.44,4.27-4.45,35.62,0,71.23,0,106.85,0,.62,0,1.26.06,1.87-.01,1.74-.2,2.39.4,2.38,2.28Zm121.44,16.64c-.52,10.67-4.75,19.83-13.29,26.28-4.68,3.53-10.28,5.98-16.48,5.98-99.03,0-198.06-.05-297.09.01-7.29,0-13.35-2.44-19.14-6.7-6.67-4.91-9.95-11.7-12.24-19.25-.14-.46-.14-.98-.14-1.47.04-7.61.09-15.23.14-22.84.2-.25.4-.5.61-.75,1.24-.06,2.49-.18,3.73-.18,33.37,0,66.74,0,100.1,0,.25,0,.5,0,.75,0,3.83.05,3.35-.49,3.49,3.32.11,3.19.13,6.42.73,9.54,1.13,5.9,4.86,10.28,9.22,14.16,3.68,3.27,8.35,4.2,12.9,5.27,1.46.34,3.14-.41,4.72-.41,28.49-.03,56.99-.07,85.48.01,6.03.02,11.62-.96,16.56-4.7,5.93-4.48,9.91-10.05,10.54-17.66.23-2.7.52-5.4.67-8.1.06-1.17.55-1.53,1.61-1.45.5.04,1,0,1.5,0,34.24,0,68.49,0,102.73,0,.74,0,1.49.12,2.23.18.2.25.4.5.61.75.04,5.99.34,12,.05,17.97Z"/>
  <path class="cls-1" d="m580.57,602.22c.19.14.5.25.54.42,1.57,6.31,4.74,12,8.58,16.99,3.66,4.76,8.44,8.81,13.26,12.47,3.76,2.86,8.2,5,12.6,6.8,6.51,2.66,13.39,3.88,20.5,3.52,3.47-.17,6.98.11,10.35-1.04,1.02-.08,2.04-.16,3.06-.24,3.26-1.18,6.52-2.36,9.78-3.54l5.25-2.95c.54-.23,1.11-.42,1.62-.7,4.28-2.37,7.41-6.12,11.07-9.24,1.26-1.26,2.52-2.52,3.78-3.79.48-.74.96-1.48,1.44-2.22,1.51-2.49,3.02-4.99,4.53-7.48l.21-.74c.19-.26.39-.53.58-.79,0-.25.06-.48.16-.71.19-.27.39-.55.58-.82.81-1.97,1.62-3.95,2.43-5.92l1.47-6.75c.42-4.07.94-8.14,1.2-12.22.12-1.91-.25-3.85-.4-5.77-.27-1-.53-2-.8-3-.5-2.25-1-4.5-1.5-6.75-.24-1-.48-2-.72-3-1.5-2.96-3-5.92-4.49-8.88-2.08-3.03-4.16-6.06-6.24-9.09-4.48-4.12-8.84-8.39-14.17-11.45-2.25-1.18-4.51-2.35-6.76-3.53-6.54-2.46-13.37-3.65-20.23-4.67h-4.5c-3.96.55-7.95.95-11.88,1.69-2.57.48-5.05,1.45-7.58,2.2-2.51,1.26-5.02,2.52-7.52,3.78-5.14,3.58-10.37,7.04-14.41,11.95-2.18,3.01-4.36,6.01-6.54,9.02-1.49,3-2.99,6.01-4.48,9.01-.25.75-.5,1.5-.75,2.25-.57,2.49-1.14,4.98-1.71,7.47-.19,1.01-.38,2.01-.57,3.02.24,6.24.49,12.48.73,18.72.51,2,1.02,3.99,1.53,5.99Zm10.69-21.72c.2-1.5.41-3,.61-4.5,1.99-8.57,5.55-16.29,12.1-22.39,1.63-1.52,3.26-3.06,4.88-4.59.29-.2.58-.41.88-.61,4.66-3.63,10.08-5.56,15.72-6.89,3.05-.72,6.27-1.69,9.28-1.37,6.08.65,12.32.66,18.07,3.43,5.09,2.45,9.99,5.06,14.03,9.13,5.87,5.92,10.49,12.5,11.92,20.92.14.8.4,1.58.6,2.37.25,1.25.5,2.5.75,3.75.4,6.64.14,13.16-2.06,19.58-2.96,8.64-8.19,15.75-15.21,21.22-5.26,4.1-11.35,7.26-18.13,8.49-.81.15-1.68.04-2.52-.03-.44-.04-1.02-.49-1.28-.33-3.59,2.19-7.27,1.05-11.04.67-4.78-.48-9.25-1.75-13.44-3.91-2.88-1.49-5.48-3.54-8.2-5.34-.27-.19-.55-.38-.82-.57-8.24-6.79-13.24-15.54-15.67-25.86-1.03-4.37-.42-8.77-.48-13.16Z"/>
  <path class="cls-1" d="m390.16,606c.2.26.39.51.59.77,4.84,12.16,13.03,21.29,24.31,27.96,8.73,5.16,17.91,7.88,28.03,7.64,3.72-.09,7.48.47,11.06-1.1.29-.13.73.07,1.1.12.75,0,1.5-.02,2.25-.03,3.49-1.32,6.98-2.64,10.47-3.96l2.28-1.29c2.24-1.32,4.47-2.65,6.71-3.97,1.04-.83,2.08-1.65,3.12-2.48.22,0,.34-.11.36-.33,2.84-2.81,5.68-5.61,8.53-8.42l2.19-2.96c1.24-2,2.48-4.01,3.71-6.01.26-.5.51-1,.77-1.5l1.55-3.73c.5-1.5,1-3,1.49-4.5.5-1.75,1-3.5,1.5-5.25.18-1.07.43-2.14.53-3.22.33-3.56.89-7.14.81-10.69-.08-3.4-.55-6.85-1.36-10.15-2.11-8.63-5.52-16.72-11.28-23.64-1.16-1.4-2.41-2.74-3.61-4.1-.6.21-1.48.77-1.76.56-.85-.65-.7-1.47.31-2.01-4.13-5.03-9.84-7.69-15.45-10.64-8.1-4.27-16.85-5.16-25.69-5.77-1.78-.12-3.61.48-5.43.69-2.55.29-5.26.09-7.64.87-8.99,2.97-17.77,6.45-24.54,13.5,1.11,1.4.53,2.32-.93,2.78-.68.22-1.48.06-2.23.08-.77.91-1.54,1.82-2.3,2.74-6.85,8.27-11.46,17.48-12.7,28.34-.71,6.25-.92,12.46.16,18.62.66,3.76,2.02,7.39,3.07,11.08Zm12.21-38.58c2.72-6.3,6.43-12.1,12.18-16.6,4.88-3.82,10.14-6.47,15.74-8.74,1.44-.58,2.99-1.26,4.48-1.25,4.5.05,8.86-1.03,13.54-.33,6.14.92,11.75,2.6,17.19,5.44,9.43,4.91,15.65,12.5,19.79,22.16,3.27,7.62,3.74,15.64,2.74,23.51-1.11,8.75-5.14,16.59-11.07,23.29-.13.7-.25,1.39-.38,2.09l-1.12-.59c-5.72,5.33-12.18,9.35-19.79,11.41-4.59,1.24-9.2,2.23-13.98,2.17-.37,0-.89.16-1.1-.03-2.56-2.25-5.91-.52-8.7-1.82-2.83-1.32-5.94-2.07-8.73-3.47-2.45-1.24-4.63-3.03-6.92-4.58-.29-.2-.58-.4-.87-.61-.68-.51-1.35-1.01-2.03-1.52-2.82-.17-2.88-.23-3.05-3.05-4.24-5.77-7.97-11.69-9.89-18.8-1.22-4.51-.95-8.92-1.25-13.4-.37-5.44,1.2-10.6,3.23-15.29Z"/>
  <path class="cls-1" d="m443.59,680.83c-6.49.12-12.98-.08-19.46.12-4.19.13-5.8,2.34-5.63,6.83.14,3.64,2.28,5.74,6.03,5.82,2.99.06,5.99.01,8.98.01v.02c3.37,0,6.74.12,10.1-.03,3.66-.16,6.22-3.05,6.46-6.27.27-3.64-3.21-6.56-6.49-6.5Z"/>
  <path class="cls-1" d="m404.84,680.98c-3.6.09-5.87,2.63-5.83,6.52.04,3.75,2.53,6.28,6.12,6.23,3.64-.05,6.74-3.28,6.63-6.89-.12-3.79-2.7-5.97-6.92-5.86Z"/>
  <path class="cls-1" d="m385.9,680.98c-2.85,0-6.34,3.25-6.38,5.95-.06,3.48,3.28,6.82,6.8,6.8,3.76-.02,5.98-2.55,5.95-6.8-.02-3.77-2.37-5.97-6.37-5.96Z"/>
  <path class="cls-1" d="m490.59,465.73c.5,1.25,1,2.5,1.5,3.75,1.26,2.51,2.53,5.02,3.79,7.54.2.26.41.53.61.79,2.8,4.11,5.68,8.15,9.68,11.23.27.2.55.4.82.6.95.79,1.84,1.67,2.85,2.36,10.15,7.02,21.29,10.69,33.74,9.74,1.07-.08,2.11-.4,3.17-.61.99-.07,1.98-.14,2.97-.21,1.25-.25,2.5-.5,3.75-.75,1.01-.43,2.02-.85,3.03-1.28.97-.3,1.94-.61,2.91-.91l.83-.59c1.74-.82,3.49-1.64,5.23-2.45.49-.28.98-.56,1.47-.83.24-.21.48-.42.72-.63.28-.2.55-.4.83-.6.49-.32.98-.64,1.47-.96.51-.44,1.02-.87,1.53-1.31,4.22-3.9,8.65-7.6,11.5-12.73.63-1.13,1.4-2.17,2.11-3.26l.28-.05c.25-.45.5-.9.76-1.34-.09-.25-.05-.49.1-.71.32-.76.63-1.52.95-2.28.49-1.5.99-3,1.48-4.5.77-3.75,1.82-7.46,2.23-11.25.35-3.24.06-6.52-.43-9.85-.53-3.6-1.18-7.08-2.35-10.49-.06-.68-.11-1.36-.17-2.04-2-3.75-4-7.5-5.99-11.25l-2.32-3.05c-3.98-3.29-7.04-7.7-11.89-9.95-1.19.37-1.54-.28-1.59-1.3-2.72-1.32-5.44-2.64-8.16-3.96-.51-.16-1.02-.32-1.53-.49-.71-.14-1.42-.24-2.12-.41-3.88-.94-7.72-1.94-11.79-1.98-6.16-.06-12.27.09-18.27,1.64-.51.18-1.02.37-1.53.55-1.34.55-2.73.99-3.99,1.68-1.99,1.09-3.88,2.35-5.81,3.53.19,1.89-1.12,1.65-2.29,1.62-1.22.8-2.44,1.61-3.66,2.41-.28.2-.55.4-.83.59-6.43,5.26-10.6,12.17-14.08,19.56-.5,1.25-1,2.5-1.5,3.75-.03.74.09,1.52-.13,2.21-2.52,8.14-1.8,16.37-.69,24.61.18,1.3.54,2.58.81,3.87Zm10.43-15.71c1-9.1,3.69-17.39,9.76-24.64,5.86-7,13.3-11.12,21.87-12.63,5.47-.97,11.37-.92,16.95.8,2.06.63,4.08,1.37,6.13,2.06,1.11-1.49,1.34-.55,1.53.55,9.93,5.61,16.83,13.62,19.62,24.86,1.1.19,2.01.44.54,1.53.28,2.41.9,4.84.76,7.23-.24,3.84-.98,7.64-1.51,11.46,1.48,1.09.56,1.34-.54,1.53-1.07,2.49-2.13,4.98-3.2,7.47.19.38.38.75.57,1.13-.47.11-.93.23-1.4.34-1.98,2.18-3.96,4.36-5.95,6.53-5.04,5.47-11.56,8.33-18.58,9.98-10.97,2.57-20.97-.19-30.12-6.4-5.6-3.8-9.61-8.96-12.32-15.15-.58-1.33-1.32-2.6-1.99-3.89-1.09-.18-2.04-.42-.55-1.53-.49-3.12-.99-6.24-1.46-9.36-.09-.61-.18-1.24-.11-1.85Z"/>
  <path class="cls-1" d="m613.47,598.12c-3.69,3.67-4.02,6.11-1.45,10.79.99.57,1.98,1.14,2.97,1.71,3.01.15,5.26-1.09,7.35-3.27,4.17-4.37,8.58-8.5,12.9-12.73.22-.4.44-.79.66-1.19.27.46.54.93.81,1.39,3.56,3.65,7.08,7.34,10.7,10.93,1.38,1.37,2.91,2.62,4.5,3.75,2.33,1.66,5.16,1.27,7.2-.83,1.72-1.77,2.33-6.5.97-8.16-1.47-1.8-2.94-3.62-4.6-5.24-3.54-3.49-7.2-6.86-10.88-10.35,5.1-5.07,9.76-9.76,14.49-14.39,2.36-2.31,2.96-5.71,1.6-7.61-2.74-3.83-7.16-4.88-10.66-1.35-4.17,4.21-8.41,8.35-12.53,12.59-1.12,1.15-1.83,1.23-2.98.04-3.72-3.86-7.5-7.68-11.38-11.37-1.29-1.23-2.85-2.34-4.49-2.98-3.3-1.3-7.57.42-8.13,4.93-.37,3.02,1.02,5.15,3.02,7.13,3.82,3.77,7.53,7.66,11.42,11.34,1.49,1.41,1.34,2.19-.06,3.52-3.89,3.7-7.62,7.56-11.43,11.34Z"/>
  <path class="cls-1" d="m426.32,608.16c3.05,3.02,5.53,3.25,8.6.5,2.9-2.6,5.56-5.48,8.32-8.24,10.07-10.06,20.13-20.14,30.2-30.19,1.25-1.25,2.64-2.38,2.45-4.62-.53-1.31-.83-2.78-1.62-3.91-2.11-2.99-7.5-2.96-9.83-.52-.86.9-1.76,1.77-2.64,2.65-9.36,9.36-18.72,18.72-28.08,28.08q-2.84,2.84-5.79-.1c-1.68-1.68-3.28-3.43-5.03-5.03-2.61-2.39-7.04-2.34-9.37-.01-2.53,2.53-2.35,6.2.51,9.1,4.07,4.12,8.16,8.22,12.28,12.29Z"/>
</svg>