<svg width="67" height="67" viewBox="0 0 67 67" fill="none" xmlns="http://www.w3.org/2000/svg">
<path d="M42.5961 63.8919C41.301 64.0242 40.8661 63.3246 40.6959 62.228C40.5919 61.5852 40.4029 60.9518 40.2516 60.3184C40.0909 60.0631 39.9302 59.8173 39.7695 59.562C39.656 59.562 39.5331 59.5621 39.4197 59.5715C37.6991 59.7606 37.51 60.0537 38.03 61.6419C38.2569 62.3225 38.4176 63.0127 38.6256 63.7501H24.133C24.53 62.5873 24.9176 61.5473 25.2391 60.4885C25.6834 59.0232 26.0805 57.5295 26.487 56.0547C26.8746 55.8184 27.2433 55.393 27.6403 55.3835C29.6067 55.3173 31.5825 55.3551 33.5489 55.3457C34.135 55.3457 34.7968 55.4686 34.7968 54.5421C34.7968 53.7007 34.5983 53.0957 33.5678 53.1052C31.8 53.1241 30.0227 53.0674 28.2548 53.0579C21.2874 53.0579 14.3106 53.039 7.34315 53.0579C5.51858 53.0579 3.91144 52.7364 2.85262 51.082C2.7959 50.2974 2.73916 49.5127 2.68243 48.7281C2.68243 47.9812 2.69191 47.2249 2.70136 46.4781C2.70136 45.8919 2.70136 45.2964 2.70136 44.7102C2.73917 44.4361 2.7959 44.1714 2.7959 43.9067C2.777 37.4498 2.75808 31.0023 2.72972 24.5454C2.72972 24.1294 2.66353 23.704 2.62571 23.2692H0.328463V46.3552C0.328463 47.6882 0.215007 49.0306 0.34736 50.3447C0.42299 51.0915 0.905134 51.8006 1.20765 52.5285C2.24756 54.268 3.7507 55.3173 5.81162 55.3268C11.8998 55.3646 17.9975 55.3551 24.0857 55.3741C24.0384 55.7522 24.0384 56.1398 23.9344 56.499C23.4807 58.0967 22.9512 59.6661 22.5353 61.2732C21.883 63.7879 21.9114 63.7973 19.3967 64.1471C19.3399 64.1471 19.2927 64.2511 19.2738 64.27V66.5956H43.5415C43.5415 65.9622 43.4942 65.4139 43.5509 64.8751C43.6266 64.1282 43.1917 63.8163 42.5961 63.873V63.8919Z" fill="#0B0968"/>
<path d="M32.7934 48.7092C33.1054 48.5391 33.5308 48.2649 33.5781 47.9718C33.7955 46.7618 33.4741 46.4403 32.1978 46.4403C24.0014 46.4403 15.8145 46.4214 7.61811 46.4309C5.97316 46.4309 4.33768 46.4781 2.69273 46.4971C2.69273 47.2439 2.68328 48.0002 2.67383 48.747C12.4395 48.747 22.2147 48.7376 31.9804 48.7281C32.2546 48.7281 32.576 48.8227 32.7934 48.7092Z" fill="#0B0968"/>
<path d="M30.3166 41.1745C30.3639 41.0327 30.4584 40.8815 30.4584 40.7397C30.4206 36.9487 30.3733 33.1483 30.3355 29.3574C30.3166 27.9393 30.2882 26.5307 30.2693 25.1126C29.8628 24.7912 29.4657 24.2145 29.0403 24.1956C27.0172 24.1011 24.9752 24.1105 22.9427 24.1767C21.6664 24.2145 21.3072 24.7439 21.3828 26.058C21.3544 30.8794 21.3355 35.7103 21.2788 40.5317C21.2788 40.9855 21.0047 41.4298 20.8629 41.8836C20.7778 41.9498 20.6927 42.0065 20.6076 42.0726C20.2956 42.0726 19.9931 42.0915 19.6811 42.101C19.5866 41.7323 19.4353 41.3636 19.4259 40.9949C19.3314 38.4519 19.3219 35.9088 19.1423 33.3752C19.1045 32.8742 18.471 32.0422 18.074 32.0139C15.9847 31.8721 13.886 31.9761 11.7873 31.9288C10.615 31.9004 10.4165 32.5433 10.4165 33.4981C10.4354 36.287 10.4354 39.0853 10.4354 41.8741C10.1234 41.9687 9.81144 42.0632 9.49001 42.1577C8.62972 42.1483 7.75998 42.1294 6.89969 42.1199C6.30411 42.1199 5.66124 42.0254 5.70851 42.9613C5.74633 43.7554 6.13392 44.2186 6.90913 44.2376C7.76942 44.2565 8.62972 44.1903 9.49001 44.1619C17.5919 44.1808 25.6937 44.2092 33.7861 44.2187C34.117 44.2187 34.4573 44.0957 34.7882 44.0296C34.8544 43.9445 34.9206 43.8594 34.9867 43.7838C34.9867 43.0748 34.9867 42.3657 34.9867 41.6567C34.0697 41.7323 33.1432 41.8174 32.2262 41.893C31.3754 42.2334 30.5435 42.5359 30.3166 41.184V41.1745ZM13.0635 42.1105C12.9784 41.7796 12.8177 41.4487 12.8177 41.1084C12.7988 38.9624 12.8083 36.8258 12.8083 34.5569C14.0751 34.5569 15.2473 34.5002 16.4007 34.6042C16.6465 34.6231 17.0152 35.2092 17.0246 35.5401C17.0814 37.4971 17.053 39.454 17.053 41.4109C16.9868 41.5054 16.9207 41.6 16.8545 41.6945C16.8356 41.8363 16.8167 41.9687 16.7978 42.1105C15.5593 42.1105 14.3114 42.1105 13.073 42.1105H13.0635ZM24.2662 42.0632C24.1055 42.0821 23.8786 41.4865 23.6801 41.1745C23.7557 40.768 23.8881 40.3615 23.8881 39.955C23.9164 35.6347 23.9164 31.3143 23.9259 26.9939C25.1832 26.9183 26.4311 26.8427 27.6885 26.767C27.783 26.8332 27.8775 26.8899 27.9626 26.9561C28.0193 27.0507 28.076 27.1452 28.1233 27.2303C28.1233 31.8721 28.1139 36.5139 28.1044 41.1462C28.0572 41.3164 28.0004 41.496 27.9532 41.6661C26.8187 42.621 25.4857 41.9119 24.2567 42.0537L24.2662 42.0632Z" fill="#0B0968"/>
<path d="M38.9757 36.2303C39.4578 36.3059 39.9494 36.3721 40.4316 36.4477C41.3013 36.5706 41.6416 36.1357 41.6416 35.3132C41.6227 29.7828 41.6133 24.2429 41.6038 18.7125C41.5282 17.7955 41.7645 16.6327 40.3276 16.6043C38.1059 16.557 35.8749 16.5476 33.6532 16.6327C33.2467 16.6516 32.8591 17.2188 32.462 17.5308C32.3581 20.0549 32.2541 22.5696 32.1406 25.0938C32.2257 25.6704 32.3959 26.2377 32.3959 26.8144C32.4243 31.1442 32.4242 35.474 32.4053 39.8038C32.4053 40.4939 32.2824 41.184 32.2163 41.8836C33.1333 41.808 34.0597 41.7229 34.9767 41.6473C34.9767 34.1599 34.9768 26.6725 34.9673 19.1852C35.0429 19.0528 35.1186 18.807 35.1847 18.807C36.4515 18.8448 37.7278 18.911 38.9946 18.9677C38.9757 24.5455 38.9473 30.1232 38.9284 35.7103C38.9473 35.8899 38.9568 36.0601 38.9757 36.2397V36.2303Z" fill="#0B0968"/>
<path d="M2.89058 19.7619C2.96621 17.994 2.49353 16.1694 3.37273 14.4678C4.30865 14.1558 5.24457 13.5697 6.18049 13.5697C18.2529 13.5129 30.3348 13.5318 42.4072 13.5697C42.7286 13.5697 43.0406 13.8344 43.362 13.9762C43.4471 20.8207 43.5228 27.6557 43.6078 34.4908C45.8011 34.6515 46.0564 34.557 46.0564 33.3185C46.0753 27.9015 46.0564 22.4751 46.0469 17.0581C46.0564 14.6568 46.1887 12.2556 46.0469 9.8638C45.9618 8.45519 46.3872 6.69679 45.215 6.31865C45.8862 5.35436 46.6614 4.21046 47.4839 3.11383C47.5973 2.97202 48.0605 2.88694 48.1834 2.98148C49.3273 3.94576 50.4334 4.94786 51.5395 5.9405C51.0952 6.39428 50.8683 6.64008 50.632 6.87643C50.5563 6.96151 50.4902 7.04659 50.4145 7.12222C50.3389 7.59491 50.2727 8.06759 50.1971 8.54028C50.1971 9.0886 50.1971 9.64637 50.1971 10.1947C50.1971 10.431 50.1971 10.6674 50.1971 10.9037C50.1782 18.098 50.1498 25.2923 50.1687 32.4866C50.1687 32.7797 50.6414 33.2712 50.9628 33.328C51.4544 33.4225 52.0122 33.224 52.5322 33.1484C52.5794 33.0633 52.6173 32.9687 52.6645 32.8836C52.6834 26.5875 52.7118 20.2818 52.7213 13.9856C52.7213 13.8344 52.6267 13.6926 52.5794 13.5413C53.8179 13.6075 55.0752 13.8438 56.3042 13.7115C58.0626 13.5224 59.2065 14.2314 60.0573 15.6495C60.1235 16.9352 60.237 18.2304 60.2464 19.5161C60.2653 25.453 60.2559 31.39 60.2464 37.3269C60.2464 38.1777 60.4922 38.6504 61.466 38.5843C62.3263 38.5275 62.6949 38.2628 62.6949 37.3174C62.6571 30.7093 62.6855 24.1106 62.6477 17.5024C62.6477 16.7178 62.3735 15.9331 62.2317 15.1579C61.9859 13.6453 61.0216 12.6716 59.821 11.8585C58.1099 10.6957 56.1719 10.9037 54.2811 10.9226C53.4586 10.9226 52.466 10.9226 52.3809 9.99615C52.2864 8.91842 53.3357 9.10751 54.1015 8.97516C54.7065 8.87117 55.3683 8.54028 55.7748 8.0865C55.9355 7.90688 55.5763 7.03713 55.2454 6.68734C53.1939 4.56025 51.0952 2.48989 48.987 0.419522C48.4292 -0.128795 47.8526 -0.157166 47.2475 0.438419C45.1393 2.49933 43.0028 4.5319 40.9135 6.61172C40.5921 6.93315 40.1761 7.66108 40.299 7.8407C40.6488 8.33229 41.2444 8.69154 41.7927 9.00352C42.0291 9.13587 42.464 8.92788 42.7097 9.05077C43.0784 9.2304 43.6457 9.60856 43.6173 9.8449C43.57 10.223 43.1635 10.639 42.8043 10.8659C42.549 11.0266 42.1142 10.9132 41.7644 10.9132C30.0701 10.9132 18.3664 10.9132 6.67208 10.9132C4.57335 10.9132 2.75824 11.5277 1.45362 13.2766C1.30236 13.4373 1.10384 13.5791 0.9904 13.7587C-0.134595 15.6211 0.139555 17.7104 0.00720296 19.743C-0.0873344 21.1988 0.763501 21.0098 1.68997 21.0948C2.81496 21.1988 2.86222 20.6127 2.89058 19.7619Z" fill="#0B0968"/>
<path d="M66.2402 60.8761C65.0112 59.6282 63.735 58.4086 62.4776 57.1797C61.9198 56.4139 61.3621 55.6576 60.8043 54.8919C61.1257 54.3247 61.4661 53.7763 61.7591 53.1996C62.6005 51.5263 62.4303 49.7112 62.4587 47.9244C62.4871 45.8068 61.9293 43.8688 60.8138 42.082C58.6489 38.7071 55.756 36.3909 51.6909 35.7291C46.6426 34.9067 42.379 36.2491 39.0323 40.2102C38.9473 40.2953 38.8622 40.3898 38.7771 40.4749C38.692 40.4938 38.6448 40.5411 38.6258 40.6262C38.4557 40.7869 38.2666 40.9287 38.1342 41.1178C36.8485 42.9423 36.026 44.956 35.7992 47.1871C35.4588 50.5431 36.0922 53.6534 38.295 56.3288C39.0229 57.1797 39.7508 58.04 40.4693 58.8908C40.7056 59.1177 40.942 59.3446 41.1783 59.5715C41.4336 59.6565 41.7172 59.7038 41.9441 59.8362C46.1226 62.417 50.4241 62.8708 54.8768 60.5641C55.6048 60.186 56.1814 60.2994 56.7581 60.895C58.2329 62.417 59.7266 63.9296 61.2581 65.4044C63.215 67.2952 66.1173 66.5956 66.7224 64.1282C67.1478 62.9654 67.1572 61.8404 66.2307 60.9044L66.2402 60.8761ZM55.0942 57.8036C51.5018 60.4979 45.6311 60.2616 42.0765 57.0379C41.2067 56.2437 40.4882 55.2795 39.7036 54.3908C39.6468 54.3057 39.5807 54.2301 39.5239 54.145C39.4294 53.9181 39.3349 53.6818 39.2309 53.4549C37.8317 49.8057 37.7655 46.2228 39.8548 42.7722C41.9346 39.7092 44.9126 37.9319 48.4955 37.705C51.3317 37.5253 54.1111 38.3573 56.3516 40.3709C56.8148 40.7869 57.2875 41.2029 57.7602 41.6188C57.9776 41.8741 58.2045 42.1293 58.422 42.3751C58.5827 42.602 58.7339 42.8289 58.8947 43.0558C60.6152 46.6766 60.5869 50.2973 58.9136 53.9181C57.6562 55.2227 56.5407 56.7164 55.1037 57.7942L55.0942 57.8036ZM61.778 63.0599C60.4451 61.6702 59.1215 60.271 57.7224 58.7962C58.0627 58.541 58.4314 58.333 58.715 58.04C59.2255 57.5295 59.6415 57.6429 60.1047 58.0967C60.5491 58.5315 61.0312 58.9286 61.5039 59.3351C62.3358 60.2049 63.2056 61.0368 63.9713 61.9633C64.2833 62.3414 64.3684 62.9086 64.5574 63.3813C63.4986 64.3645 62.9692 64.3078 61.7686 63.0599H61.778Z" fill="#0B0968"/>
<path d="M16.8071 17.2566C17.0623 17.1053 17.1002 16.5759 17.242 16.2167C16.618 16.0276 15.9846 15.7062 15.3512 15.6873C15.0298 15.6778 14.6895 16.1978 14.3491 16.4908C14.5382 16.7461 14.6422 16.8595 14.7273 16.9824C15.3229 17.7954 16.1075 17.6536 16.8071 17.2471V17.2566Z" fill="#0B0968"/>
<path d="M10.5577 17.2471C11.1249 17.3889 11.8245 17.5401 12.2972 17.3132C12.5997 17.162 12.5808 16.3584 12.7037 15.8479C12.5524 15.6966 12.4106 15.5548 12.2594 15.4036C11.626 15.6872 10.9642 15.933 10.3875 16.3017C10.2741 16.3773 10.4254 17.2092 10.5577 17.2471Z" fill="#0B0968"/>
<path d="M8.147 16.5761C8.09027 16.2074 7.44742 15.8009 6.99364 15.6591C6.42641 15.4794 5.9443 15.7063 5.92539 16.491C5.90648 17.2378 6.13335 17.6254 6.90856 17.512C7.67431 17.6349 8.26046 17.3324 8.13756 16.5761H8.147Z" fill="#0B0968"/>
<path d="M56.5687 44.0012C55.0561 40.9571 50.6128 39.1703 46.8691 40.0684C44.7515 40.5789 43.22 41.9024 41.8776 43.519C41.8114 43.6041 41.7547 43.6892 41.6885 43.7743C41.6412 43.831 41.6223 43.8972 41.6318 43.9728C39.7316 45.7879 39.6465 51.2617 41.7263 53.5022C45.9899 59.581 54.3659 58.2858 57.2777 52.2921C58.2609 50.5715 58.0718 48.6713 57.8827 46.8562C57.7787 45.873 57.0319 44.956 56.5781 44.0012H56.5687ZM49.138 55.3173C46.8502 55.3173 44.9973 54.2207 43.6643 52.311C43.5792 52.1881 43.428 52.1125 43.3145 52.0085C42.4637 50.0799 42.3219 48.1325 43.116 46.1566C44.0236 44.4455 45.2336 42.9802 47.1338 42.3941C49.6674 41.6189 51.8418 42.4697 53.7609 44.1619C54.054 44.4172 54.3187 44.7008 54.6023 44.9749C55.992 47.1587 55.8691 49.456 55.1033 51.8005C53.6002 53.7953 51.7473 55.3173 49.1475 55.3173H49.138Z" fill="#0B0968"/>
<path d="M44.9786 47.1965C44.7801 47.7165 44.3168 48.3215 45.1488 48.6902C46.028 49.0778 46.8315 48.6713 47.134 47.8205C47.2569 47.4801 47.5122 46.9318 47.7485 46.9129C49.6204 46.7711 49.2517 45.5232 49.1571 44.3604C47.3798 44.1241 45.7254 45.2585 44.9786 47.1965Z" fill="#0B0968"/>
</svg>
