<svg width="82" height="83" viewBox="0 0 82 83" fill="none" xmlns="http://www.w3.org/2000/svg">
<path d="M80.5449 39.7832C78.2474 39.5753 75.9389 39.5206 73.6304 39.4659C71.7268 39.4221 71.7268 39.4659 71.6283 37.5404C71.3657 36.1947 71.1907 34.8161 70.8296 33.4923C70.0747 30.79 69.4292 28.022 67.5912 25.7573C67.5584 25.6698 67.5365 25.5713 67.5037 25.4838C67.438 25.3853 67.3615 25.2868 67.2958 25.1993C67.2411 25.0243 67.2302 24.8273 67.1317 24.6961C66.1252 23.3722 65.0858 22.0812 64.1121 20.7355C63.9261 20.473 63.8386 19.8494 64.0027 19.7071C64.2543 19.4664 64.7795 19.3461 65.1405 19.4227C65.8298 19.554 66.53 19.7947 67.1645 20.101C69.5715 21.2607 71.8581 20.8778 73.8383 19.3242C76.1687 17.4971 78.4443 15.5388 80.4902 13.4053C82.7768 11.0093 82.5252 10.4404 79.3305 9.33541C78.2146 8.95249 77.1205 8.53674 75.6873 8.02254C77.2409 6.53461 78.5537 5.28738 79.8666 4.04015C80.4136 3.52594 80.8075 2.93515 80.0635 2.33341C79.429 1.83014 78.7616 1.70979 78.1051 2.4647C77.2408 3.46029 76.289 4.37931 75.3481 5.29832C74.4948 6.14075 73.9915 6.03134 73.6086 4.9154C73.2256 3.77757 72.9302 2.59598 72.5036 1.4691C71.9565 0.0577585 70.764 -0.193877 69.6918 0.900186C67.4052 3.23054 65.1733 5.6156 62.9086 7.96783C61.6395 9.72927 61.2019 11.6439 61.7599 13.7664C62.0662 14.7073 62.4163 15.6372 62.6789 16.589C62.7773 16.961 62.8102 17.6831 62.6679 17.7378C62.2303 17.9129 61.6723 17.9457 61.2019 17.8472C60.8408 17.7706 60.5564 17.3768 60.2063 17.1798C57.4164 15.5825 54.7469 13.6679 51.782 12.5082C48.8718 11.3704 45.6553 10.9984 42.4387 10.2544C42.4387 10.1669 42.4059 9.7621 42.384 9.3573C42.4059 6.67684 42.4715 3.98544 42.4168 1.30499C42.4168 0.889245 41.9245 0.232807 41.5197 0.11246C40.7976 -0.106353 39.9224 -0.106352 39.8458 1.05335C39.8239 1.1737 39.802 1.30499 39.7801 1.42534C39.7801 3.61346 39.7801 5.80159 39.7911 7.97878C39.7911 8.33982 39.7692 8.68991 39.7583 9.05095C39.8348 9.33541 39.9005 9.60893 39.9771 9.89339C39.9005 9.60893 39.8239 9.33541 39.7583 9.05095C39.7473 9.33541 39.7364 9.61987 39.7254 9.91526C39.6926 10.0903 39.6488 10.2654 39.616 10.4404C38.4344 10.6264 37.2528 10.8452 36.0603 10.9765C30.7979 11.5564 26.2028 13.7992 22.1329 17.0157C19.9448 18.7334 18.1505 20.9434 16.1812 22.9346C14.934 25.1556 13.446 27.278 12.4942 29.6193C11.3783 32.3873 10.2951 35.2538 10.4374 38.35C10.4921 39.1924 10.0435 39.4331 9.26671 39.455C6.78319 39.5206 4.28874 39.5534 1.80521 39.7613C1.1816 39.816 0.601735 40.4725 0 40.8444C0.426685 41.4133 0.787739 42.0479 1.31289 42.5074C1.59735 42.7481 2.16625 42.7153 2.60388 42.7153C4.74824 42.7372 6.88166 42.6934 9.02602 42.7481C9.50741 42.759 9.96692 43.0873 10.4374 43.2623C11.2251 43.3498 12.0128 43.4483 12.8005 43.5358C13.0522 43.2623 13.271 42.8137 13.5664 42.759C14.2119 42.6387 14.8793 42.7262 15.5466 42.7262C15.656 43.9406 15.6123 45.1879 15.9186 46.3476C17.3956 51.9492 19.9448 56.9053 24.5617 60.636C25.3276 61.2487 26.0278 61.1284 26.4435 60.5704C26.7389 60.1656 26.6733 59.3232 26.4873 58.7652C26.3341 58.3057 25.7761 57.9665 25.3713 57.5945C23.4458 55.7893 21.6953 53.82 20.7216 51.3365C19.7478 48.853 18.9382 46.3147 18.052 43.8093V42.7919H24.2554C24.4632 46.2491 25.7761 49.2468 28.1393 51.7851C30.951 55.0125 34.3426 57.2007 38.6642 57.7805C39.0252 57.8243 39.3534 58.1306 39.6926 58.3166C39.6926 58.5026 39.6926 58.6777 39.6926 58.8637C39.7145 59.2247 39.7254 59.5857 39.7473 59.9577C39.7473 62.3318 39.7473 64.7059 39.7473 67.0801C40.6116 67.5396 41.4759 67.9881 42.3402 68.4476C42.3402 65.253 42.3402 62.0583 42.3402 58.8637C42.5919 58.5135 42.8107 57.879 43.1061 57.8462C47.8106 57.2116 51.4757 54.8484 54.4296 51.238C56.1254 49.6188 56.8913 47.5182 57.4164 45.3082C57.6024 44.5314 57.6899 43.7218 57.8431 42.8137H68.926C68.8603 45.6036 68.4008 48.3059 67.263 50.7895C65.9611 53.645 64.3419 56.3473 62.8539 59.1153C59.8781 62.5288 56.3552 65.2749 52.143 66.905C49.4188 67.9553 46.4977 68.5133 43.6422 69.2244C43.0842 69.3666 42.2965 69.4651 42.3402 68.4258C41.4759 67.9663 40.6116 67.5177 39.7473 67.0582C39.7473 67.4192 39.7473 67.7693 39.7364 68.1304C39.7692 68.2069 39.802 68.2726 39.8239 68.3601C39.813 68.2835 39.7692 68.2069 39.7364 68.1304V68.4476C39.1784 68.7102 38.5876 69.2572 38.0734 69.1916C33.0298 68.5023 28.38 66.7409 24.2663 63.7432C21.8484 61.9817 19.715 59.8811 18.1286 57.2882C17.5488 57.9993 16.9689 58.6995 16.3891 59.4107C21.739 66.0845 28.4238 70.4498 37.0778 71.5001C38.2594 71.6423 40.2178 71.2484 39.8458 73.6226C39.8129 76.0842 39.7692 78.5458 39.7364 80.9965C39.7692 81.1169 39.802 81.2372 39.8348 81.3685C40.0208 82.6486 41.0274 82.0797 41.651 82.0359C41.9245 82.014 42.3731 81.2919 42.384 80.8762C42.4496 77.8347 42.4278 74.7932 42.4387 71.7408C43.0295 71.7408 43.6312 71.7845 44.2111 71.697C49.7689 70.9202 54.9438 69.1041 59.4076 65.6468C61.0706 64.3668 62.4929 62.7804 64.0246 61.3362C64.5607 60.7345 65.1405 60.1656 65.6328 59.531C69.2651 54.9141 71.2673 49.6516 71.6393 43.7984C71.694 42.945 71.9784 42.6934 72.7771 42.7043C75.009 42.7372 77.2408 42.7372 79.4727 42.7043C79.9979 42.7043 80.6324 42.6606 81.0044 42.3761C81.4639 42.026 82.0547 41.293 81.9453 40.8991C81.814 40.4068 81.0591 39.8051 80.523 39.7613L80.5449 39.7832ZM75.8733 10.9546C76.5844 11.2063 77.2737 11.5126 78.324 11.9393C75.7092 14.193 74.0352 17.1251 70.6218 17.7706C69.648 17.9566 68.543 17.7706 67.5584 17.5081C66.4534 17.2127 67.3615 16.6656 67.5803 16.228C68.8494 15.0245 70.1185 13.832 71.3767 12.6285C71.5627 12.4426 71.7596 12.2675 71.9237 12.0596C73.4335 10.1669 73.5757 10.1231 75.8733 10.9437V10.9546ZM68.8931 5.17797C69.9653 4.06203 70.3373 4.30272 71.0813 5.62654C72.2629 7.75996 71.6393 9.20412 69.8778 10.5389C69.2323 11.0203 68.74 11.7095 68.182 12.3003C67.5146 12.9568 66.8473 13.6241 66.1799 14.2806C66.0923 14.3681 66.0048 14.4556 65.9173 14.5432C65.8188 14.6416 65.7204 14.7291 65.611 14.8276C64.123 15.2871 64.7138 14.0618 64.506 13.471C64.506 12.5629 64.5278 11.6439 64.5388 10.7358C64.8561 10.1122 65.0749 9.412 65.5125 8.88685C66.5847 7.60679 67.7444 6.38144 68.9041 5.17797H68.8931ZM43.3468 13.2303C45.5677 13.6241 47.8106 14.0071 49.9877 14.5869C53.6419 15.5606 56.8038 17.4862 59.6483 19.9588C59.7468 20.0463 59.7905 20.1776 59.9328 20.4073C57.4711 22.869 55.0095 25.3416 52.5041 27.7704C52.3072 27.9564 51.6726 27.9564 51.4319 27.7813C49.1891 26.1512 46.6946 25.1556 43.9704 24.6523C43.2155 24.5101 42.2855 24.4772 42.3293 23.3175C42.3293 20.1229 42.3293 16.9282 42.3293 13.7335C42.6685 13.5476 43.0404 13.1646 43.3358 13.2193L43.3468 13.2303ZM22.9644 39.4769C21.3889 39.3346 19.8025 39.2799 18.2271 39.1924C18.7194 37.0918 19.2118 35.0021 19.7041 32.9015C21.1264 29.3568 23.3364 26.3809 26.1481 23.8317C26.8374 23.2081 27.2969 22.4751 26.4545 21.8515C25.984 21.5123 24.8243 21.4576 24.4414 21.7968C21.9469 24.0177 19.5947 26.3919 18.3037 29.5756C18.238 29.674 18.1724 29.7616 18.1067 29.86C18.0302 30.0241 17.9426 30.1883 17.866 30.3633C17.6472 30.9322 17.4284 31.5011 17.2206 32.0591C17.1659 32.1357 17.1112 32.2123 17.0565 32.2889C16.586 34.4879 16.1156 36.6979 15.6342 38.897C14.7042 40.0567 13.9712 40.0567 13.0303 38.897C13.4351 34.4879 14.9121 30.418 17.0783 26.5888C17.4503 25.9214 17.8989 25.3087 18.3146 24.6632C22.8659 18.6021 28.9927 15.0683 36.312 13.46C37.0559 13.2959 37.8218 13.274 38.5657 13.1537C39.441 13.0115 39.813 13.4053 39.813 14.2478C39.802 16.5343 39.7801 18.8209 39.7692 21.1075C39.7473 21.1951 39.7145 21.2826 39.7145 21.3701C39.6051 24.1162 39.627 24.2475 37.0559 24.7945C32.9422 25.6807 29.9445 28.1314 27.3188 31.1948C25.7871 33.2516 24.8024 35.5382 24.3648 38.0546C24.4304 39.0611 24.0475 39.5316 22.9535 39.4331L22.9644 39.4769ZM28.1065 50.9864C28.0846 51.1177 28.0846 51.249 28.0846 51.3803C28.0846 51.249 28.0846 51.1067 28.1065 50.9864ZM52.7338 49.3015C52.5588 49.4985 52.3619 49.6735 52.1978 49.8814C49.6814 52.9229 46.629 54.9578 42.5481 55.1767C42.384 54.2248 42.3621 53.3605 42.0667 52.5947C41.9136 52.2227 41.2243 51.7851 40.8414 51.8398C40.4037 51.9054 39.9224 52.4196 39.6926 52.8572C39.5066 53.2073 39.6488 53.7434 39.6488 54.2029C39.6488 55.0454 39.4738 55.3736 38.4454 55.1767C34.4849 54.4218 31.7059 51.9929 29.2662 49.0171C28.3691 47.0149 27.461 45.0128 26.5092 42.8794C27.5595 42.7481 28.3581 42.8356 28.938 42.5293C29.5178 42.2229 29.8789 41.5118 30.3384 40.9867C29.7695 40.5709 29.2115 40.1223 28.6207 39.7504C28.1065 39.4331 27.5485 39.1924 27.0124 38.9189C27.7454 37.0918 28.4675 35.2647 29.2005 33.4376C31.1042 31.7856 32.8985 29.9804 34.9553 28.5581C36.2135 27.6938 37.8874 27.4312 39.3097 26.917C40.1193 28.2408 38.7845 30.4727 41.1368 30.3742C43.128 30.2867 42.0777 28.4159 42.4825 27.3656C44.3752 26.8514 48.0513 28.2955 49.9987 30.3195C49.0797 31.348 48.1497 32.3654 47.2526 33.4157C46.443 34.3676 45.6006 34.477 44.5284 33.8315C42.1543 32.3983 36.8699 33 35.2617 35.571C35.743 36.2384 36.2135 36.9058 36.6949 37.5622C37.1982 37.1793 37.6905 36.7964 38.2047 36.4244C40.0427 35.1115 41.8917 34.9802 44.0251 36.5995C42.7997 37.8029 41.651 39.0502 40.36 40.1333C39.6598 40.7241 39.3972 41.1398 40.0318 41.8838C40.6663 42.6278 41.3009 42.6606 41.9792 41.9604C42.8982 41.0195 43.7844 40.0239 44.78 39.1814C45.1082 38.897 45.7537 38.9955 46.257 38.9189C46.5633 40.7022 46.9572 42.4855 45.7318 44.1157C45.4693 44.422 45.2176 44.7502 44.9332 45.0347C43.1936 46.7852 40.3162 47.4307 38.6861 46.1725C37.4826 45.2426 36.5964 43.8969 35.5789 42.7372C35.4039 40.8991 35.5571 39.1158 36.6949 37.5622C36.2135 36.8949 35.743 36.2384 35.2617 35.571C32.3405 38.0765 31.8482 42.3652 34.1676 45.2754C34.1895 45.166 34.2114 45.0566 34.2332 44.9472C34.2114 45.0566 34.1785 45.166 34.1676 45.2754C35.8415 47.6495 37.9421 49.3344 41.0164 49.3125C43.9813 49.2906 46.1476 47.7808 47.8871 45.527C49.7252 43.4592 49.4298 41.0742 48.9265 38.6454C48.9265 38.5578 48.9484 38.4594 48.9265 38.3718C48.6092 37.5622 47.7996 36.2931 48.0512 36.0306C49.2985 34.7286 50.2722 32.9781 52.2525 32.5514C54.178 35.3522 55.0204 37.4966 54.9001 39.3346C54.3093 39.455 53.7076 39.5863 53.1058 39.7175C52.3728 39.8707 51.6617 40.0676 51.7054 41.0414C51.7492 42.0588 52.4384 42.5293 53.3027 42.7153C53.806 42.8247 54.364 42.7372 55.0533 42.7372C54.8673 45.2535 53.8717 47.2994 52.7557 49.3015H52.7338ZM67.7006 39.4878C64.4294 39.4112 61.1581 39.455 57.8322 39.455C57.4492 36.2494 56.7272 33.2626 54.4296 30.9432C54.3202 30.7681 54.2108 30.604 54.0905 30.4289C54.1233 30.1664 54.1561 29.8929 54.1889 29.6303C54.8125 29.138 55.5128 28.7003 56.0598 28.1314C57.4821 26.6763 58.8278 25.1446 60.2282 23.6786C60.6767 23.2081 61.2347 22.8362 61.8036 22.3657C62.3507 22.9456 62.7773 23.4051 63.204 23.8646C63.2806 23.9521 63.3572 24.0506 63.4338 24.1381C63.8167 24.6851 64.2106 25.2212 64.5935 25.7682C65.6438 28.0001 66.8363 30.1664 67.6787 32.4639C68.3352 34.2582 68.554 36.2056 68.9697 38.0874C69.1557 39.1049 68.8384 39.5097 67.7006 39.4769V39.4878Z" fill="#0B0968"/>
<path d="M13.4457 46.3913C13.2159 45.4504 13.019 44.4986 12.8111 43.5577C12.0234 43.4702 11.2357 43.3717 10.448 43.2842C10.4261 43.5139 10.3714 43.7327 10.3933 43.9625C10.8637 49.7173 12.8658 54.8703 16.3997 59.4326C16.9795 58.7214 17.5594 58.0212 18.1392 57.3101C15.8745 53.9732 14.3975 50.2971 13.4457 46.3913Z" fill="#0B0968"/>
</svg>
