<svg width="58" height="59" viewBox="0 0 58 59" fill="none" xmlns="http://www.w3.org/2000/svg">
<path d="M57.5171 41.619C56.6889 40.1281 54.1792 39.4157 52.5143 40.3186C49.5242 41.9337 46.5755 43.6151 43.6351 45.3048C43.0802 45.6196 42.7323 45.5947 42.1773 45.2551C41.1834 44.6422 40.1067 44.0458 38.9885 43.7476C35.2364 42.7289 31.4263 41.9503 27.699 40.8652C25.2224 40.1529 22.8701 39.9293 20.4267 40.8818C19.5487 41.2214 18.5796 41.3042 17.5608 41.5279C17.5608 41.006 17.5526 40.7658 17.5608 40.5256C17.6023 39.598 17.42 38.8691 16.2439 38.9271C15.4818 38.9602 14.7116 38.9519 13.9496 38.9519C12.4669 38.9519 10.9843 38.9519 9.50168 38.9519C8.2427 38.9519 7.94449 39.2087 7.82025 40.4428C7.80368 40.6002 7.70431 40.7493 7.63805 40.8984C7.4227 40.8984 7.19903 40.9067 6.98368 40.9149C5.26913 40.9149 3.54634 40.8652 1.84008 40.948C-0.305169 41.0557 -0.0318487 40.7327 0.0675451 43.085C0.713605 43.085 1.35964 43.085 2.0057 43.085C2.76771 43.0188 3.53803 42.9194 4.30005 42.8862C5.1946 42.8531 6.08912 42.9194 6.97538 42.8614C7.62144 42.8283 7.95279 43.0188 7.89482 43.6979C7.86997 44.1452 7.82854 44.5925 7.82854 45.0398C7.81197 48.1789 7.79542 51.3182 7.78713 54.4573C5.88209 54.4573 3.97702 54.4573 2.07197 54.4573C2.07197 54.2586 2.07196 54.0597 2.06368 53.8692C2.06368 53.8692 2.12996 53.8196 2.12996 53.803C2.12996 53.745 2.09684 53.687 2.08855 53.6373C2.06371 50.1254 2.03883 46.6052 2.01399 43.0933C1.36793 43.0933 0.721896 43.0933 0.075836 43.0933C0.075836 46.4727 0.0840844 49.8604 0.0923673 53.2398C0.183478 54.2089 0.282894 55.1862 0.374005 56.1553C0.456833 56.1802 0.539643 56.205 0.614189 56.2298C2.86711 56.2298 5.12007 56.2298 7.37299 56.2216C7.52208 56.2713 7.66287 56.3292 7.81196 56.3872C7.90307 58.4662 8.077 58.6319 10.1394 58.6319C11.9616 58.6319 13.7839 58.6319 15.6144 58.6319C17.2709 58.6319 17.5277 58.3751 17.5774 56.7765C17.5774 56.5777 17.6188 56.3872 17.6602 56.0642C18.1324 56.2713 18.5216 56.4783 18.9275 56.6191C19.7558 56.9008 20.5923 57.3398 21.4372 57.3563C25.4626 57.4226 29.4881 57.3729 33.5136 57.3563C34.4744 57.3563 35.4683 57.5137 36.4042 57.3397C37.7212 57.0995 39.0961 56.8179 40.2723 56.2133C42.5998 55.0123 44.803 53.5794 47.0559 52.2458C50.1289 50.4319 53.2266 48.6759 56.2581 46.804C57.9561 45.7604 58.478 43.3252 57.5337 41.6272L57.5171 41.619ZM12.5746 56.1222C11.8954 56.1222 11.2079 56.1802 10.5287 56.1056C10.272 56.0725 10.0483 55.7246 9.81638 55.5258C9.79154 55.4678 9.76673 55.4181 9.75845 55.3602C9.76673 55.4181 9.79982 55.4678 9.81638 55.5258C9.81638 55.4513 9.81638 55.3767 9.81638 55.2939C9.81638 54.7472 9.79985 54.2006 9.79985 53.6539C9.79985 50.6141 9.79985 47.5743 9.79985 44.5345C9.81642 43.5406 9.79153 42.5384 9.86608 41.5527C9.88264 41.2877 10.2057 40.8404 10.4045 40.8321C11.912 40.7741 13.4277 40.8072 14.9352 40.8238C15.0429 40.8238 15.1588 40.9481 15.2665 41.0143C15.3162 41.0889 15.3659 41.1551 15.4156 41.2297C15.4404 42.058 15.4736 42.8862 15.4984 43.7145C15.4984 46.9614 15.4984 50.2083 15.4984 53.4468C15.399 55.2525 14.4216 56.147 12.5663 56.1305L12.5746 56.1222ZM55.082 45.3131C53.4337 46.3153 51.7523 47.2844 50.0792 48.2535C46.4347 50.3573 42.7572 52.4197 39.1376 54.565C37.5721 55.4927 35.9321 55.6418 34.1928 55.4596C33.7538 55.4099 33.3147 55.3933 32.8758 55.3602C29.2893 55.3602 25.6946 55.3519 22.1081 55.3436H21.901C20.6172 55.4761 19.5653 54.8052 18.5216 54.242C18.1406 54.0349 17.9584 53.4468 17.6851 53.0327C17.6851 50.0592 17.7016 47.0939 17.7099 44.1204C17.9501 43.847 18.1489 43.4081 18.4471 43.3418C20.1285 42.9359 21.8099 42.4141 23.5162 42.3313C24.8994 42.265 26.3241 42.6875 27.699 43.0105C31.1115 43.8222 34.5075 44.7002 37.9034 45.5616C38.4584 45.7024 39.0133 45.868 39.56 46.0254C41.0012 46.4313 41.1669 46.6632 41.1586 48.179C41.1503 49.5705 40.2226 50.2828 38.8145 49.9101C35.4186 49.0238 32.0309 48.0961 28.635 47.2181C28.0469 47.0691 27.4174 47.0194 26.821 47.0525C26.556 47.0691 26.2329 47.3755 26.0921 47.6323C26.0342 47.74 26.3323 48.1955 26.5477 48.2783C27.5416 48.6759 28.5521 49.0321 29.5792 49.3303C31.5588 49.9184 33.5467 50.4733 35.5263 51.0282C36.5948 51.3347 37.6632 51.666 38.7483 51.9145C40.4049 52.2955 42.9394 50.639 43.221 48.8913C43.3949 47.8228 43.9168 47.2678 44.8444 46.7792C47.4949 45.3876 50.0709 43.8636 52.6965 42.4307C53.2101 42.1491 53.8313 41.884 54.3945 41.8923C55.0903 41.9089 55.728 42.323 55.844 43.1099C55.96 43.9382 55.902 44.7996 55.082 45.3048V45.3131Z" fill="#0B0968"/>
<path d="M26.4891 33.0877C28.2782 33.1042 30.0673 33.0877 31.8564 33.1125C32.7427 33.1291 33.1817 32.8723 33.0988 31.8701C33.0077 30.6608 33.074 29.4432 33.074 28.2257C33.1899 28.176 33.3059 28.1263 33.4218 28.0766C34.2667 28.9628 35.0619 29.9071 35.9978 30.694C36.2877 30.9424 37.1243 30.9921 37.3893 30.7602C38.7808 29.5675 40.0729 28.2588 41.3982 26.9915C42.0525 26.362 41.8289 25.7408 41.3237 25.1859C40.7439 24.5481 40.1061 23.9683 39.5097 23.3554C39.2695 23.1069 39.0625 22.8253 38.698 22.378H41.2408C43.0465 22.378 43.8886 21.4807 43.7671 19.6861C43.7671 18.9903 43.7671 18.3029 43.7671 17.6071C43.792 17.0936 43.8416 16.5717 43.825 16.0582C43.8002 15.172 43.5269 14.5839 42.417 14.6833C41.274 14.7909 40.1061 14.7081 38.6152 14.7081C39.6671 13.5651 40.4788 12.6208 41.3485 11.7512C41.8703 11.2293 41.9283 10.8235 41.3899 10.2768C40.1807 9.05096 39.0293 7.77541 37.8283 6.54127C36.8592 5.54733 36.6273 5.63015 35.6085 6.62409C34.8713 7.33641 33.9602 7.86652 33.132 8.47944C32.9829 8.47944 32.8504 8.47944 32.7344 8.51257C32.5025 8.55398 32.3368 8.65338 32.2126 8.7859C32.3368 8.65338 32.5025 8.56227 32.7344 8.51257C32.8504 8.48772 32.9829 8.47944 33.132 8.47944C33.1071 7.79197 33.0822 7.10449 33.0574 6.4253C33.0657 6.04429 33.0905 5.66328 33.0905 5.29055C33.0905 4.00672 33.0408 3.94873 31.7653 3.94045C29.9679 3.94045 28.1788 3.98188 26.3814 3.9239C25.4786 3.89076 25.1473 4.18066 25.2053 5.10005C25.2798 6.2845 25.2219 7.46893 25.2219 8.65338C25.1142 8.69479 25.0148 8.73621 24.9071 8.7859C24.1451 8.00732 23.3997 7.21217 22.6293 6.44187C21.7679 5.58045 21.4283 5.56389 20.5835 6.43359C19.3079 7.74227 18.0407 9.05924 16.848 10.4342C16.6492 10.6578 16.6823 11.3536 16.8894 11.6103C17.4692 12.331 18.2063 12.9273 18.8441 13.5982C19.1009 13.8633 19.2748 14.2029 19.631 14.7247C18.0738 14.7247 16.8065 14.7495 15.5393 14.7164C14.976 14.6998 14.6861 14.94 14.6613 15.4619C14.5785 17.3089 14.4791 19.1643 14.4625 21.0113C14.4542 21.881 14.9429 22.3946 15.8788 22.3863C16.7402 22.378 17.6017 22.3697 18.4631 22.3863C18.7778 22.3946 19.0843 22.5022 19.6724 22.6182C18.637 23.6536 17.8171 24.515 16.9556 25.335C16.3758 25.8816 16.3841 26.3372 16.9556 26.8921C18.2726 28.1677 19.5233 29.5012 20.8817 30.7188C21.155 30.9673 21.9253 30.959 22.2815 30.7519C22.8778 30.3958 23.2754 29.7331 23.8387 29.2941C24.2362 28.9794 24.758 28.822 25.2219 28.5984C25.2384 29.6337 25.2467 30.6691 25.2633 31.7045C25.2053 32.9966 25.2798 33.0877 26.5057 33.1043L26.4891 33.0877ZM27.2926 28.5818C27.334 28.3085 27.3754 28.0434 27.4168 27.7701C27.3837 27.6873 27.3423 27.6127 27.3092 27.5299H27.2926C27.2097 27.4637 27.1352 27.414 27.0523 27.356C26.9695 27.298 26.895 27.2152 26.8039 27.1737C24.1699 25.9727 24.8077 25.7988 22.7536 27.8115C22.0468 28.5018 21.3483 28.5073 20.658 27.8281C20.07 27.2566 19.4653 26.6933 18.7695 26.039C19.4653 25.4095 20.1693 24.7386 20.9148 24.1091C21.5691 23.5542 21.5526 22.9578 21.3124 22.1792C20.8899 20.8208 20.1113 20.241 18.6701 20.473C18.0075 20.5806 17.3118 20.4895 16.5663 20.4895V16.5552C17.5188 16.5552 18.4714 16.5055 19.4156 16.5717C20.451 16.6463 20.8485 16.0499 21.1302 15.2051C21.3952 14.3934 21.7679 13.6976 20.8982 12.9107C20.2025 12.2812 19.7801 11.3536 19.2334 10.5667C19.0843 10.6827 18.9352 10.7986 18.7861 10.9146C19.5813 10.2354 20.3433 9.50651 21.1964 8.90186C21.4284 8.73621 21.9667 8.82732 22.2732 8.9847C22.6211 9.16692 22.8613 9.5562 23.1512 9.8461C24.319 11.0223 25.7354 11.0802 26.9281 9.93721C27.1435 9.73843 27.2511 9.34085 27.2594 9.03439C27.3008 8.00732 27.276 6.97197 27.276 5.71299C28.5764 5.81238 29.8105 5.90349 31.0447 5.9946C31.0281 7.02167 30.9453 8.05702 31.0447 9.07581C31.0861 9.45682 31.5582 9.7964 31.8315 10.1526C33.281 11.1465 33.952 11.072 35.2027 9.77984C36.1911 8.75829 37.1988 8.75829 38.2259 9.77984C39.1094 10.6578 39.0486 11.5054 38.0437 12.3227C36.7101 13.4077 36.5776 14.0538 37.3313 15.5613C37.6709 16.2487 38.1927 16.58 38.963 16.5635C39.6836 16.5469 40.4208 16.5055 41.1331 16.5883C41.3899 16.6132 41.6053 16.9693 41.8372 17.1764C41.8372 18.1455 41.8372 19.1146 41.8372 20.0754C41.4562 20.2825 41.0917 20.5641 40.6859 20.6717C40.2966 20.7711 39.8576 20.7546 39.4517 20.68C38.1596 20.4647 37.439 20.9285 37.0166 22.2206C36.7764 22.9744 36.8261 23.4134 37.3976 23.902C37.9443 24.3659 38.4329 24.9125 38.963 25.4095C39.4352 25.8568 39.4352 26.2792 38.9382 26.7182C38.1679 27.3891 37.4059 28.0766 36.5362 28.8386C35.9812 28.2422 35.4097 27.6707 34.8879 27.0412C34.3164 26.3538 33.6869 26.0721 32.8172 26.4697C31.9641 26.859 30.9453 27.0578 30.995 28.3416C31.0281 29.0954 31.0447 29.8574 30.9784 30.6111C30.9619 30.8182 30.6057 30.9921 30.3986 31.1826C30.3158 31.1826 30.233 31.1826 30.1419 31.1744C29.1976 31.1247 28.2534 31.0833 27.3092 31.0336C27.3009 30.2136 27.2926 29.3853 27.276 28.5653L27.2926 28.5818Z" fill="#0B0968"/>
<path d="M6.12231 32.102C7.812 32.1103 9.4934 32.102 11.1831 32.102C12.5746 32.102 12.5912 32.0771 12.5912 30.6276C12.5912 30.1555 12.6574 29.6834 12.6906 29.2113C12.1108 29.3521 11.5392 29.4846 10.9594 29.6254C10.9097 29.7662 10.8518 29.8988 10.8021 30.0396C10.2803 30.2135 9.76674 30.3874 9.12068 30.6028C9.06271 29.9982 9.02131 29.6006 8.97989 29.203C8.97989 27.4056 8.97989 25.6083 8.97989 23.8192C8.97989 23.5458 8.97989 23.2725 8.97989 23.0075C8.97161 22.9329 8.9633 22.8584 8.95502 22.7838C9.43542 22.6513 9.90753 22.4608 10.3962 22.4359C10.5205 22.4359 10.6778 22.9329 10.8104 23.2063C10.8104 25.277 10.7938 27.3477 10.7855 29.4101C10.7855 29.6171 10.7938 29.8325 10.8021 30.0479C10.8518 29.907 10.9097 29.7745 10.9594 29.6337C11.5392 29.4929 12.1108 29.3604 12.6906 29.2196C12.7154 27.9523 12.7734 26.685 12.7569 25.4178C12.7486 24.6806 12.616 23.9434 12.5415 23.2063C12.5498 22.6596 12.5332 22.1212 12.5829 21.5828C12.6657 20.7794 12.3344 20.4646 11.5393 20.4895C11.3239 20.4895 11.1003 20.2327 10.8766 20.1002C10.9926 18.9158 11.0092 17.7147 11.2494 16.5634C11.7878 13.9046 13.0384 11.544 14.5873 9.34082C14.9269 8.91839 15.2251 8.44627 15.6144 8.07355C18.3146 5.49759 21.3875 3.56769 25.0568 2.69799C27.3097 2.16789 29.6041 2.10164 31.8653 2.4578C35.5926 3.04588 38.914 4.56991 41.7715 7.06304L45.532 12.2481C45.5817 12.3226 45.6313 12.3889 45.6893 12.4634C45.7721 12.6622 45.8633 12.8693 45.9461 13.0681C46.0538 13.2834 46.1614 13.4905 46.2691 13.7059L46.5507 14.5176L47.5198 20.0919C47.0477 20.3073 46.5755 20.5309 46.1034 20.7463C45.9626 21.0941 45.6976 21.4337 45.6976 21.7816C45.6727 24.8462 45.6893 27.9026 45.7142 30.9672C45.7142 31.2406 45.8715 31.5056 45.9626 31.779C46.4596 31.9446 46.9483 32.1186 47.5198 32.3091C47.5281 32.4664 47.5529 32.6984 47.5529 32.9386C47.5529 33.4935 47.5944 34.0485 47.5447 34.5951C47.4453 35.6967 46.8903 36.2103 45.7307 36.2351C44.3475 36.2683 42.9643 36.1771 41.5893 36.2682C40.38 36.3511 39.502 36.0695 38.8228 34.9844C38.5329 34.5206 37.862 34.1396 37.3071 34.0319C36.4374 33.8745 35.5097 33.8911 34.6235 34.007C32.4451 34.2887 31.418 36.6576 32.5196 38.5626C33.3396 39.9872 34.7394 40.0369 36.0481 40.1612C37.3899 40.2937 38.5661 39.8796 39.3695 38.6123C39.6097 38.2396 40.2641 37.9662 40.7362 37.9414C42.4259 37.8586 44.1156 37.842 45.8053 37.9248C47.7848 38.0325 49.6236 36.8563 49.4414 34.3135C49.284 32.1517 49.4166 32.2014 51.5784 32.0854C53.7899 31.9612 55.5376 30.959 56.6723 29.0042C57.9479 27.2731 57.5172 23.786 55.8109 22.5022C54.3448 20.9947 52.5558 20.3321 50.4685 20.5143C49.6651 20.5889 49.3006 20.2824 49.3751 19.479C49.1184 17.8887 48.8616 16.2984 48.6049 14.7081C48.464 14.2277 48.3232 13.7473 48.1741 13.2669C48.0333 12.919 47.9008 12.5628 47.76 12.215C47.0725 11.0471 46.3851 9.87091 45.7059 8.70304C45.1758 7.999 44.7202 7.22042 44.1073 6.59921C41.3243 3.79961 38.1106 1.68749 34.2425 0.718403C31.4843 0.0226464 28.6847 -0.25896 25.8603 0.287706C22.4063 0.950331 19.2257 2.23416 16.5338 4.55335C15.4074 5.52244 14.3968 6.62405 13.3366 7.65941C13.3697 7.74223 13.3946 7.83335 13.4195 7.92446C13.4857 8.19779 13.5271 8.48769 13.6265 8.73617C13.5271 8.48769 13.4857 8.18951 13.4195 7.92446C13.3946 7.83335 13.3697 7.74223 13.3366 7.65941C13.0798 7.98243 12.8148 8.2889 12.5746 8.62021C10.0235 12.099 8.83907 16.0416 8.65685 20.3155C8.20958 20.3818 7.7623 20.506 7.30675 20.506C5.70816 20.5226 4.24208 20.8871 3.03279 21.9887C1.20228 23.1317 0.316049 26.1881 1.3514 28.1842C1.74069 29.907 4.38289 32.0937 6.09744 32.1103L6.12231 32.102ZM37.0338 37.8171C36.2386 37.9331 35.4021 37.9 34.5986 37.7923C34.3419 37.7591 33.9277 37.2705 33.9691 37.0717C34.0437 36.7569 34.3916 36.4008 34.7063 36.2848C35.0625 36.1523 35.518 36.2517 35.9239 36.2517C36.2635 36.2517 36.6362 36.1606 36.9426 36.2682C37.2822 36.3925 37.5473 36.699 37.8455 36.9226C37.5804 37.2291 37.3485 37.7674 37.0421 37.8089L37.0338 37.8171ZM47.818 30.2301C47.644 30.2135 47.4949 30.2218 47.3541 30.2466C47.4949 30.2218 47.6523 30.2135 47.818 30.2301C47.8097 30.1638 47.7931 30.1058 47.7683 30.0479C47.7269 29.8325 47.6772 29.6171 47.6358 29.4018C47.6358 27.2731 47.6358 25.1444 47.6358 23.0158C47.6358 22.9246 47.6358 22.8335 47.6358 22.7424C47.6772 22.6182 47.7269 22.5022 47.7683 22.378C48.3067 22.4525 48.8451 22.5271 49.3834 22.6016C49.3917 24.8545 49.4249 27.1075 49.4 29.3521C49.4 29.7165 49.135 30.081 48.9859 30.4372C48.5883 30.3709 48.199 30.2963 47.8014 30.2301H47.818ZM53.9473 23.2228C54.0301 23.2891 54.1212 23.3553 54.204 23.4133C54.2289 23.4879 54.2703 23.5293 54.3448 23.5624C55.5376 25.2438 55.637 26.9915 54.6348 28.7972C53.8396 29.2693 53.0776 29.7994 52.2493 30.1969C51.8352 30.3957 51.421 30.2466 51.5204 29.6254C51.5618 27.3477 51.6033 25.0616 51.6364 22.7838C52.5558 22.146 53.1687 23.1151 53.9473 23.2228ZM3.2896 23.521C3.23162 23.4382 3.18189 23.3553 3.14876 23.2725C3.18189 23.3636 3.23162 23.4465 3.2896 23.521ZM3.69545 23.8772C4.52373 23.3553 5.35201 22.8418 6.1803 22.32C6.31282 22.3531 6.48674 22.3614 6.62755 22.3862C6.47846 22.3614 6.31282 22.3531 6.1803 22.32C6.37908 22.6844 6.76005 23.0489 6.76005 23.4133C6.76005 25.4509 6.66067 27.4885 6.56956 29.526C6.56128 29.7165 6.30453 29.8905 6.172 30.0727C4.51544 29.7248 3.43865 28.8634 3.04108 27.1406C3.11562 26.0224 2.87545 24.838 3.69545 23.8772Z" fill="#0B0968"/>
<path d="M11.9371 52.428C11.407 54.507 11.407 55.0536 12.0696 55.3021C12.4423 55.4429 13.2706 55.3435 13.3286 55.1779C13.5357 54.4987 13.7013 53.6952 13.5191 53.0409C13.4363 52.7344 12.5417 52.6433 11.9371 52.428Z" fill="#0B0968"/>
<path d="M34.5574 20.7629C34.4663 20.531 34.3504 20.3653 34.2261 20.2576C34.3586 20.3736 34.4746 20.531 34.5574 20.7629C35.1704 19.1312 35.2449 17.516 34.3421 15.9506C34.3172 15.8843 34.2924 15.8098 34.2758 15.7435C34.2261 15.6689 34.1847 15.5944 34.135 15.5199C33.6049 14.9235 33.1659 14.1946 32.5281 13.7473C29.9605 11.9417 26.4403 12.6623 24.3944 15.3376C22.9615 17.0853 23.0692 18.9821 23.8229 20.9534C23.8892 21.0859 23.9471 21.2184 24.0134 21.3427C24.0714 21.4172 24.1294 21.4918 24.1791 21.5663C24.6098 22.0881 24.9494 22.7425 25.4795 23.1069C26.6722 23.9186 27.9312 24.8712 29.4635 24.6144C31.7827 24.2251 33.6132 23.0489 34.5574 20.7629ZM25.5954 19.9263C25.496 19.7275 25.4629 19.4873 25.3966 19.272C25.554 18.3774 25.7114 17.4829 25.8687 16.5883C27.1774 14.733 30.0681 14.1698 31.6667 15.8677C31.7827 15.9837 31.9401 16.0665 32.0726 16.1576C33.1825 17.3255 32.9837 18.7005 32.7269 20.092C31.3188 22.9992 27.1277 22.9661 25.6037 19.918L25.5954 19.9263Z" fill="#0B0968"/>
</svg>
