<?xml version="1.0" encoding="UTF-8"?>
<svg id="Layer_1" data-name="Layer 1" xmlns="http://www.w3.org/2000/svg" viewBox="0 0 384 365.39">
  <defs>
    <style>
      .cls-1 {
        fill: #fff;
      }
    </style>
  </defs>
  <path class="cls-1" d="m382.71,277.96c.68-7.22,1.49-14.44-.94-21.55-2.17-6.35-8.11-10.88-14.84-10.83-2.79.02-4.45-.74-4.9-3.67-.2-1.28-.6-2.64-1.29-3.71-2.86-4.36-3.52-8.13,1.24-11.93,1.26-1.01.86-4.09,1.22-6.22.19-.18.38-.36.58-.54,1.69-4.85.15-9.29-3.16-12.45-3.68-3.52-4.76-7.19-4.75-12.12.16-50.39.15-100.79.06-151.19-.02-11.03-2.44-21.53-9.46-30.39-5.74-7.25-13.08-12.08-22.58-12.58-9.16-.47-18.34-.76-27.51-.76C210.31-.02,124.25,0,38.18,0c-15.43,0-26.91,6.61-33.68,20.63-1.89,3.91-3.02,8.19-4.5,12.31v226.07c.46.5.91,1,1.37,1.5.56,2.96,1.11,5.92,1.67,8.88l3.08,6.09c.21.25.41.49.62.74.78,1.23,1.57,2.47,2.35,3.7,1.99,2,3.98,4,5.97,6,.49.25.98.51,1.47.76.24.23.48.46.72.69l1.48.8c1.74.82,3.48,1.64,5.23,2.45,2.03.69,4.04,1.97,6.08,1.98,16.33.15,32.67.22,49-.1,2.47-.05,5.44-1.76,7.15-3.64,1.24-1.37,1.83-5.21.85-6.3-1.73-1.94-2.65-5.13-6.69-5.03-14.08.33-28.18.1-42.27.11-4.34,0-8.06-.42-12.06-3.36-7.18-5.27-10.86-12.07-10.91-20.34-.25-44.4-.08-88.79-.05-133.19,0-1.84,0-3.69,0-5.65h325.61v75.74c-2,.26-4.01.55-6.03.78-3.35.4-6.4,1.34-8.27,4.47-.44.27-.88.54-1.32.81-1.56-.24-3.12-.47-4.68-.71-2.25-.99-4.49-1.98-6.74-2.97-1.24-1.03-3.58-2.1-3.54-3.08.29-7.29-3.22-12.15-9.11-15.73-.52-.24-1.03-.49-1.55-.73-10.04-.72-20.13-2.47-29.91,1.59-1.05,1.22-2.1,2.44-3.15,3.66-1.36,1.61-2.72,3.23-4.23,5.03,1.68,5.46.27,8.58-5.06,10.64-2.01.78-3.97,1.69-6,2.39-.8.28-2.16.54-2.57.12-4.8-4.82-10.87-5.56-17.19-5.63-1.97.81-3.95,1.63-5.92,2.44-4.6,4.48-9.32,8.86-13.74,13.52-1.34,1.41-2.35,3.51-2.65,5.43-.79,5.05,0,10,2.23,14.66.46.49.93.98,1.39,1.47,2.16,1.17,2.85,3,1.93,5.21-.98,2.35-2.23,4.6-3.36,6.89-.93,1.28.22,4.35-3.09,3.58-2.24.35-4.49.7-6.73,1.05-.25.02-.5.04-.76.06h-1.49c-.17.01-.34.03-.52.04.17.16.34.31.51.47-.75.8-1.5,1.6-2.26,2.41-.27.19-.55.38-.82.57-.96.79-1.91,1.59-2.87,2.38-.81,1.74-1.61,3.49-2.42,5.23-.32,6.87-.64,13.73-.97,20.77-14.46,0-28.78-.03-43.1.01-6.12.02-9.44,5.34-6.68,10.55.75,1.22,1.5,2.45,2.24,3.67,2.67.27,5.33.76,8,.77,19.94.07,39.88.04,59.85.04.27,1.23.5,2.26.72,3.28l1.12,2.7c1.22,2.53,2.44,5.06,3.57,7.4-1.55,2.07-2.9,4.06-4.45,5.89-3.1,3.66-1.86,8.08-2.34,12.2.48,1,.97,2,1.45,3,5.05,5.54,10.1,11.08,15.14,16.62,1.77.94,3.53,1.88,5.3,2.82,3.97-.45,7.95-.9,11.92-1.34,1.91-1.58,3.7-3.35,5.8-4.63.68-.42,2.14.45,3.25.73.45.02.89.04,1.34.06h0c.27.21.54.42.81.63.02-.21.06-.43.1-.64,1.75.73,3.49,1.46,5.24,2.19,4.08,1.14,4.11,4.19,3.55,7.51.31.99.63,1.98.94,2.97l2.29,4.47c3.23,2.25,6.46,4.5,9.69,6.75,1.49,0,2.98.1,4.47.02,7.5-.41,15.23,1.44,22.38-2.3.76-.72,1.52-1.44,2.28-2.17,1.3-1.75,2.59-3.5,3.89-5.25.43-1.26.86-2.51,1.29-3.77.02-.62.14-1.26.05-1.86-.43-2.89.39-4.75,3.49-5.64,2.97-.86,5.73-2.46,8.7-3.36,1.02-.31,2.46.3,3.56.82,2.78,1.3,5.48,2.79,8.22,4.2,1.01.18,2.02.36,3.02.55h5.93c.43-2.56,1.54-4.24,4.52-3.51,6.73-5.37,13.55-10.65,17.07-18.91.09-.48.18-.96.28-1.44-.31-2.74-.62-5.48-.94-8.21-.67-1.25-1.34-2.51-2.02-3.76-.82-.97-1.63-1.94-2.45-2.91-3.33-2.44-.12-4.13.69-6.1.26-.5.52-.99.77-1.49.49-1.25.99-2.5,1.48-3.75.8-1.24,1.35-3.2,2.44-3.58,3.33-1.15,6.88-1.68,10.34-2.45.76-.66,1.52-1.32,2.27-1.98.52-.55,1.05-1.11,1.57-1.66.72-1.01,1.43-2.02,2.15-3.03q1.16-3.6,3.02-2.99v-1.5c-2.1,1.29-1.38-.32-1.29-1.26ZM15.05,99.41c0-1.2,0-2.41,0-3.62-.02-19.71-.09-39.42,0-59.13,0-1.97.91-3.94,1.4-5.91.5-1.05,1-2.1,1.49-3.15,2.23-6.14,11.02-12.56,17.43-12.56,94.06-.02,188.13,0,282.19-.04,13.1,0,21.19,9.76,22.26,20.34.47,4.65.91,9.33.94,14,.11,16.59.04,33.18.04,50.06H15.05Zm352.39,176.67c-.01.56-1.03,1.18-1.7,1.59-.37.22-.98.08-1.47.05-13.74-.87-14.03,2.77-16.44,15.27-.41,2.13-2.26,3.98-3.43,5.97-.74,1.25-1.48,2.49-2.16,3.77-2.7,5.1-2.44,6.83,1.68,10.99,1.49,1.5,3.25,2.82,4.43,4.53.64.93.94,3.07.35,3.72-2.74,3.01-5.91,5.63-8.79,8.52-1.52,1.53-2.64,1.39-4-.14-1.32-1.49-2.79-2.84-4.21-4.25-3.14-3.1-7.29-3.44-11.41-1.62-6.44,2.84-13.01,5.39-19.58,7.91-3.1,1.19-5.71,4.79-5.77,8.63q-.17,9.31-9.43,9.31-7.79,0-7.79-7.97c0-7.15-1.45-8.59-8.18-10.83-5.64-1.87-11.1-4.37-16.44-6.99-3.73-1.83-8.17-1.68-11.14,1.27-2.21,2.19-4.34,4.46-6.92,7.12-3.6-3.7-7.15-7.14-10.39-10.85-.61-.7-.42-2.83.21-3.71,1.36-1.9,3.26-3.41,4.93-5.09,3.43-3.45,3.53-5.84,1.6-10.11-3-6.64-5.6-13.46-8.3-20.24-1.26-3.16-3.55-4.81-6.85-5.2-.61-.07-1.25,0-1.87-.01q-9.26-.02-9.26-9.11c0-8.11.01-8.38,8.01-8.01,5.16.24,8.35-1.91,10.43-7.63,2.2-6.04,4.73-11.96,7.36-17.82,2.03-4.52,1.72-7.3-1.79-10.9-1.81-1.86-3.53-3.8-5.29-5.71l-.54-.22c.18-.16.35-.33.53-.49,3.37-3.7,6.66-7.48,10.22-11,.4-.39,2.46.45,3.43,1.17,2.93,2.17,5.54,4.82,8.61,6.73,1.1.68,3.43.27,4.75-.45,6.02-3.29,11.92-6.66,18.88-7.75,4.25-.67,8.32-4.88,8.13-9.41-.39-9.21-.09-9.23,8.99-9.23q7.94,0,8.1,8.01c.13,6.51,1.95,8.13,8.18,10.08,5.68,1.78,11.16,4.38,16.49,7.09,4.65,2.36,5.12,2.23,8.76-1.15,2.46-2.28,5.78-3.67,8.83-5.23.67-.34,2.17-.04,2.71.51,3.31,3.44,6.46,7.04,9.66,10.59-.2.26-.4.52-.61.79-1.97,2.05-3.93,4.11-5.91,6.15-3.59,3.7-3.46,6.39.45,9.96.21.19.11.72.15,1.09.18.51.37,1.02.55,1.52.98,2.58,2.04,5.13,2.93,7.74,1.13,3.28,2.17,6.59,3.19,9.91,1.17,3.81,3.96,5.38,7.68,5.53,2.99.12,5.98.02,9.52.02,0,5.23.05,10.41-.08,15.58Z"/>
  <path class="cls-1" d="m49.47,208.08c.76,1,1.51,1.99,2.27,2.99,1.24,1.25,2.49,2.5,3.73,3.75.75,1,1.5,1.99,2.25,2.99,1.24,1.25,2.49,2.5,3.73,3.75.73.98,1.47,1.96,2.2,2.94,1.74,1.51,3.48,3.03,5.22,4.54,1.24.05,2.49.11,3.73.16,1.24-.32,2.48-.64,3.71-.95.73-.73,1.46-1.47,2.19-2.2.32-1.24.64-2.47.96-3.71-.22-1.2-.43-2.41-.65-3.61-.85-1.28-1.69-2.57-2.54-3.85-.74-.73-1.47-1.46-2.21-2.18-1.26-1.52-2.52-3.03-3.78-4.55-.73-.73-1.47-1.46-2.2-2.19-1.27-1.51-2.54-3.03-3.8-4.54-.73-.73-1.46-1.46-2.19-2.19-1.05-.94-2.09-1.88-3.37-3.04,1.54-1.44,2.83-2.65,4.12-3.87.98-.98,1.95-1.96,2.93-2.95,1.27-1.51,2.54-3.03,3.81-4.54.73-.73,1.46-1.46,2.19-2.19,1.27-1.51,2.54-3.03,3.8-4.54,4.38-4.93,4.87-7.71,2.24-12.54-1.24-.75-2.49-1.5-3.73-2.25-5.38-1.16-8.4,2.11-11.13,5.92l-3.73,3.75c-.76.99-1.52,1.99-2.28,2.98-1.24,1.25-2.47,2.5-3.71,3.75-.99,1.25-1.98,2.5-2.97,3.75l-3.82,3.79c-3.13,3.65-4.53,7.8-3.69,12.61.75,1.24,1.5,2.48,2.25,3.72l-.03-.03c1.5,1.52,3,3.03,4.5,4.55Z"/>
  <path class="cls-1" d="m163.28,202.15c-1.27,1.27-2.54,2.53-3.81,3.8-.73.98-1.46,1.96-2.2,2.93-1.27,1.27-2.53,2.53-3.8,3.8-3.02,4.21-7.66,7.99-3.74,14.05.5.5,1,1,1.49,1.5,2.98,0,5.95.02,8.93.02,1.24-1.25,2.49-2.51,3.73-3.76.74-.73,1.47-1.46,2.21-2.19l3.78-4.55c.97-.98,1.95-1.97,2.92-2.95,1.02-1.26,2.05-2.52,3.07-3.79.98-.98,1.95-1.97,2.93-2.95,1.27-1.52,2.54-3.03,3.81-4.55,2.76-3.94,2.96-8.18,1.49-12.62-.5-.75-.99-1.5-1.49-2.25-.5-.47-1-.95-1.49-1.42-1.27-1.51-2.54-3.03-3.8-4.54-.73-.73-1.46-1.46-2.19-2.19-1.27-1.51-2.54-3.03-3.81-4.54-.97-.98-1.95-1.97-2.92-2.95-1.26-1.52-2.51-3.04-3.77-4.55-.83-.73-1.69-1.42-2.48-2.2-3.14-3.1-6.65-4.07-10.17-2.23-3.15,1.65-3.99,4.73-3.72,8.13.57,1.04,1.13,2.09,1.7,3.13.68.93,1.36,1.85,2.04,2.78,1.27,1.26,2.54,2.53,3.81,3.79.99,1.25,1.98,2.5,2.97,3.75,1.01.99,2.01,1.99,3.02,2.99.99,1.25,1.98,2.5,2.97,3.75,1.24,1.12,2.47,2.23,4.06,3.67-.97.9-1.79,1.67-2.61,2.44-.98,1.23-1.95,2.47-2.93,3.7Z"/>
  <path class="cls-1" d="m116.89,158.74c-1.51,3.24-3.01,6.48-4.52,9.72-1.07,4.48-2.14,8.96-3.21,13.44-.2,1-.39,2-.59,3-1.05,4.24-2.1,8.48-3.16,12.72-.44,2-.89,4-1.33,6-1.05,4.24-2.11,8.47-3.16,12.71l-.75,2.99c-.28,1.9-.39,3.85-.87,5.7-1.09,4.22-.04,7.99,3.93,9.29,2.41.79,5.48-.45,8.25-.78.72-1.01,1.43-2.02,2.15-3.03.11-.73.21-1.46.32-2.2.26-.75.53-1.5.79-2.25.72-3.5,1.44-6.99,2.15-10.49.19-.27.38-.55.58-.82,0,0-.03.03-.03.03.32-1.48.64-2.96.95-4.44,1-4.24,2-8.48,3-12.72.53-2,1.05-3.99,1.58-5.99.72-3.5,1.44-6.99,2.16-10.49.19-.27.38-.55.58-.82,0,0-.03.03-.03.03l.95-4.44c.69-4.48,1.37-8.97,2.06-13.45-1.48-1.55-2.95-3.09-4.43-4.64-2.46.3-4.91.61-7.37.91Z"/>
  <path class="cls-1" d="m116.08,277.81c-.75-.6-2.37-.22-3.58-.09-1.31.14-2.59.51-3.88.78l-2.99,3.74c.35,2.49.1,5.29,1.19,7.4,1.77,3.4,5.45,3.66,8.78,2.87,4.82-1.15,5.45-5.62,5.32-9.34-.06-1.87-2.94-3.83-4.85-5.36Z"/>
  <path class="cls-1" d="m290.04,32.34c-21.31-.02-42.63-.04-63.94.03-2.95,0-6.07-.04-8.82.85-16.77,5.39-23.03,24.04-14.44,37.91,4.43,7.16,10.89,11.38,18.99,11.81,11.56.61,23.17.16,34.77.16v-.02c11.47,0,22.94.06,34.4-.05,2.54-.02,5.2-.21,7.57-1.02,12.55-4.29,21.04-17.5,16.79-31.5-3.43-11.27-13.98-18.15-25.32-18.16Zm1.07,35.61c-11.21.13-22.42.04-33.63.04-10.96,0-21.92-.2-32.88.07-5.79.14-9.99-5.25-10.49-8.84-.75-5.46,2.6-10.12,8.04-11.31,1.32-.29,2.7-.39,4.05-.39,21.17-.02,42.34-.03,63.52,0,6.82,0,9.97,2.49,11.22,8.5,1.3,6.29-3.07,11.86-9.84,11.94Z"/>
  <path class="cls-1" d="m144.99,34.41c-1.58-.57-2.98-1.65-4.2-2.34-2.49.29-4.96.8-7.44.83-8.25.11-14.45,3.81-19.08,10.45-1.4,2.01-3.6,3.93-3.94,6.13-.64,4.12-.2,8.41-.21,12.62.44,1.51.87,3.02,1.31,4.52,5.44,11.2,13.82,17.47,26.84,16.52,6.77-.49,12.33-3.65,16.25-8.54,4.91-6.12,7.76-13.34,5.71-21.69-2.13-8.69-6.47-15.34-15.24-18.51Zm-9.35,33.6c-6.03.18-10.52-4.27-10.56-10.51-.03-4.84,4.09-10.02,10.43-9.66,6.2.35,9.69,3.66,9.7,10.11.62,6.53-5.13,9.93-9.57,10.07Z"/>
  <path class="cls-1" d="m84.48,37.09c-3.81-3-8.07-5.18-13.36-4.22-3.53.64-7.1-.87-10.79,1.25-4.51,2.59-8.77,5.17-11.76,9.55-.54.79-1.65,1.18-2.73,1.92-.13,1.69-.31,3.4-.4,5.12-.2,3.91-1.17,8-.38,11.71,2.52,11.76,9.96,18.62,20.51,20.5,8.69,1.55,21.95-2.35,27.05-14.22,5.15-11.98,2.17-23.48-8.15-31.6Zm-14.74,31c-4.82.31-10.22-4.68-9.94-10.27.3-6,3.95-9.94,9.85-9.91,5.37-.59,10.36,3.6,10.4,9.69.04,6.32-5.17,10.17-10.31,10.5Z"/>
  <path class="cls-1" d="m303.91,226.66c-.52-.19-1.04-.38-1.56-.57-9.72-3.49-19.51-4.49-29.48-.94-3.35,1.19-6.76,2.21-10.15,3.3-.2.2-.4.4-.6.6-1.2,1.24-2.23,2.72-3.63,3.68-6.55,4.47-11.1,10.82-14.11,17.74-3.38,7.75-5.12,16.07-3.5,24.94,1.73,9.48,5.27,17.98,11.9,24.77,11.06,11.33,24.34,16.94,40.59,14.3,12.97-2.11,23.05-8.56,30.73-18.98,7.83-10.64,9.93-22.59,7.47-35.38-3.1-16.15-12.41-27.29-27.67-33.45Zm13.5,43.67c-.45,13.25-8.55,23.03-19.62,27.52-18.81,7.62-37.26-4.38-41.49-22.14-2.75-11.53.38-22.1,10.22-29.87.97-.77,1.74-1.78,2.65-2.64.48-.45,1.01-.9,1.6-1.18.43-.21,1.01-.07,1.49-.21,5.5-1.56,10.96-3.28,16.51-4.58,1.17-.27,2.7.99,4.05,1.57,3.49,1.49,6.98,2.98,10.47,4.48.45.21.9.41,1.36.62,8.88,6.58,13.13,15.33,12.75,26.44Z"/>
</svg>