<svg width="83" height="71" viewBox="0 0 83 71" fill="none" xmlns="http://www.w3.org/2000/svg">
<path d="M82.1134 61.1536C81.1631 61.6014 80.202 62.0601 79.2517 62.508C78.8913 62.6281 78.5199 62.7483 78.1595 62.8575C78.0503 62.8575 77.952 62.8575 77.8428 62.8575C74.9375 62.8575 72.0431 62.8465 69.1377 62.8356C69.0394 62.8356 68.9411 62.8247 68.8319 62.8138C68.0237 62.8138 67.2154 62.8356 66.4181 62.7592C66.1232 62.7264 65.8611 62.4206 65.588 62.2349C65.6099 60.4983 65.6426 58.7507 65.6426 57.0141C65.6426 56.4789 65.5553 55.9437 65.5116 55.4085C65.5116 53.9559 65.5116 52.5032 65.5116 51.0396C65.6099 50.0785 65.8065 49.1173 65.7955 48.1561C65.7955 47.0202 65.6099 45.8843 65.5116 44.7593C65.5225 43.263 65.5334 41.7557 65.5553 40.2594C65.5771 38.7849 66.1341 38.2169 67.5759 38.2169C70.6232 38.2169 73.6705 38.1841 76.7178 38.2388C77.4496 38.2497 78.1814 38.5883 78.9131 38.7739C79.0114 45.9171 79.1097 53.0711 79.1971 60.2143C79.1971 60.9898 79.219 61.7543 79.2299 62.5298C80.1801 62.082 81.1413 61.6233 82.0915 61.1754C82.026 53.6173 81.9605 46.0591 81.884 38.5009C81.0102 36.6987 79.7323 35.5737 77.5588 35.7266C77.1984 35.7485 76.8052 35.2242 76.4229 34.9512C76.5212 33.1927 76.7287 31.4342 76.7178 29.6866C76.6741 21.9428 76.543 14.2098 76.4993 6.47689C76.4993 5.07884 76.0078 3.95385 75.145 2.92716C73.6705 1.26698 71.9666 0 69.6183 0C50.7338 0 31.8602 0 12.9865 0C10.6164 0 8.5958 0.77548 7.09945 2.69779C7.023 2.79609 6.94654 2.89439 6.87008 2.99269C6.7827 3.14561 6.6844 3.29852 6.59703 3.45143C6.22567 4.42351 5.52665 5.38466 5.51573 6.36767C5.43927 12.8882 5.49388 19.4197 5.51573 25.9403C5.46112 26.3663 5.41743 26.8032 5.36282 27.2291C3.03638 27.3493 1.09222 27.9282 0.262131 30.2983C0.174753 30.899 0 31.4997 0 32.1005C0 43.6343 0 55.1573 0 66.6912C0 68.0455 0.557032 69.105 1.62741 69.9132C2.59949 70.2737 3.56065 70.9508 4.53273 70.9508C21.3093 71.0164 38.0858 70.9945 54.8515 70.9945C55.2119 70.9945 55.5833 71.0164 55.9437 70.9727C56.9158 70.8416 57.4291 70.4047 57.3854 69.2688C57.298 66.8987 55.3976 64.0043 52.8964 63.4254C50.9959 62.9885 48.9535 63.1633 46.9765 63.0759C46.8782 62.9995 46.7799 62.9121 46.6816 62.8356C46.6379 62.7482 46.5943 62.6718 46.5615 62.5844C46.5069 62.2021 46.4523 61.8199 46.3977 61.4267C46.4523 61.8089 46.5069 62.1912 46.5615 62.5844C46.5833 62.1912 46.5943 61.798 46.6161 61.4048C46.6052 59.5917 46.5943 57.7786 46.5724 55.9655C46.5833 55.616 46.6052 55.2665 46.6161 54.9061C46.6598 54.8296 46.7144 54.7423 46.7581 54.6658C51.8588 54.644 56.9704 54.6221 62.0711 54.6221C62.3113 54.6221 62.5626 54.7969 62.8028 54.8842C62.8138 57.6148 62.8356 60.3454 62.8465 63.0759C62.8465 63.9825 62.8465 64.889 62.8465 65.8065C62.8465 65.9922 62.8465 66.1778 62.8465 66.3526C62.7373 68.9739 64.6487 70.9945 67.2591 70.9945C70.514 70.9945 73.7797 70.9945 77.0345 70.9945C79.9508 70.9945 81.4908 69.7494 82.0806 66.9205C82.0806 66.8113 82.0915 66.713 82.1024 66.6038C82.0915 64.7907 82.0697 62.9776 82.0588 61.1645L82.1134 61.1536ZM8.46473 7.59096C8.47565 6.59704 8.86885 5.61403 9.0873 4.63103C10.3106 3.0473 12.1128 2.76333 13.8931 2.76333C31.882 2.71964 49.8818 2.71964 67.8708 2.76333C69.5856 2.76333 71.3877 2.93808 72.7093 4.33613C73.0588 5.55942 73.6923 6.78271 73.7032 8.006C73.7906 16.6783 73.7579 25.3505 73.7579 34.0228C73.7579 34.416 73.6377 34.8092 73.5831 35.2133C73.1134 35.399 72.6438 35.7157 72.1741 35.7266C70.2627 35.7812 68.3513 35.7376 66.44 35.7594C64.6596 35.7703 62.8356 37.496 62.9012 39.2764C62.9448 40.6526 62.497 41.0567 61.1208 41.0458C53.1585 40.9912 45.2071 41.013 37.2448 41.0458C36.2072 41.0458 35.1696 41.2533 34.1429 41.1878C33.6951 41.155 33.2691 40.6853 32.8432 40.4123C32.9305 39.9972 33.0944 39.5713 33.0725 39.1562C32.9961 37.0264 32.8759 34.8965 32.7667 32.7558C32.7012 31.8711 32.5373 30.9755 32.6029 30.0908C32.6466 29.5774 32.9415 28.9985 33.3128 28.6272C37.2121 24.7498 41.1441 20.9161 45.0542 17.0715C45.3163 16.8202 45.7423 16.58 45.786 16.2851C45.8952 15.6079 46.0809 14.7013 45.7423 14.2644C45.1962 13.5654 44.3443 13.7402 43.6452 14.4283C40.0409 18.0326 36.3929 21.5714 32.8322 25.2085C31.3905 26.683 30.0471 27.5568 27.7206 27.382C23.2862 27.0435 18.819 27.2838 14.3627 27.2838C12.7244 27.2838 11.0861 27.2619 9.44773 27.2838C8.83609 27.2838 8.35551 27.2291 8.34459 26.4646C8.34459 26.3663 8.36643 26.268 8.36643 26.1588C8.36643 25.711 8.36643 25.2631 8.36643 24.8153C8.38828 19.0702 8.36643 13.3251 8.45381 7.59096H8.46473ZM28.3432 68.2312C28.1248 68.4169 27.6442 68.3186 27.2728 68.3186C19.9986 68.3186 12.7353 68.3186 5.46112 68.2967C4.88224 68.2967 4.18321 68.2967 3.75725 68.0018C3.22206 67.6305 2.91624 66.9533 2.51211 66.3963C3.0473 66.1014 3.58249 65.5771 4.13952 65.5553C6.85916 65.4679 9.58972 65.5116 12.3203 65.5116C13.6856 65.5116 15.0508 65.5116 16.4052 65.5116C20.359 65.5116 24.3129 65.5116 28.2667 65.5116C29.0095 65.5116 30.1126 65.315 29.9706 66.3963C29.8832 67.0735 28.9767 67.6851 28.3432 68.2203V68.2312ZM26.9998 62.8684C25.7765 62.9339 24.5532 62.8793 23.3299 62.8793C18.12 62.8793 12.9101 62.8575 7.70017 62.8575C6.32397 62.8575 4.94777 62.8575 3.57157 62.8575C3.47327 62.8575 3.37497 62.8356 3.27667 62.8247L2.92716 61.9946C2.92716 61.8963 2.93808 61.7871 2.949 61.6888C2.87254 61.6888 2.80701 61.6997 2.73056 61.7106C2.47935 61.7871 2.24998 61.9291 2.04246 62.1257C1.72571 62.4206 1.4745 62.8247 1.31066 63.2944C1.4745 62.8247 1.73663 62.4206 2.04246 62.1257C2.24998 61.9291 2.47935 61.7871 2.73056 61.7106C2.80701 61.7106 2.87254 61.6997 2.949 61.6888C2.92716 52.7763 2.91623 43.8528 2.89439 34.9402C2.92716 33.848 2.8507 32.7339 3.0473 31.6854C3.1456 31.1721 3.68079 30.6041 4.16137 30.3311C4.63102 30.058 5.29728 30.0689 5.87616 30.0689C12.8882 30.058 19.8894 30.058 26.9015 30.0689C27.524 30.0689 28.2231 30.0689 28.7473 30.342C29.2061 30.5823 29.4682 31.2048 29.8286 31.6636C29.8942 32.6029 30.0143 33.5313 30.0252 34.4706C30.058 39.7242 30.0689 44.9778 30.0908 50.2423C30.0908 54.3381 30.0908 58.434 30.0908 62.5298C29.0641 62.6499 28.0374 62.8356 26.9998 62.8902V62.8684ZM33.1053 54.6112C33.8917 54.7095 34.6672 54.7969 35.4536 54.8952C35.4645 57.4291 35.4754 59.974 35.4973 62.508C34.5907 62.9449 33.6842 63.491 32.7667 62.5189C32.8759 59.8866 32.9961 57.2434 33.1053 54.6112ZM43.7217 62.5298C42.138 63.5019 40.445 63.0431 38.7849 62.8793C38.5773 62.8575 38.4026 62.4643 38.206 62.2458C38.206 60.0614 38.206 57.8769 38.206 55.6816C38.2387 55.3648 38.2715 55.059 38.3261 54.4692C40.1174 54.6112 41.9195 54.7423 43.7108 54.8842C43.6234 56.6318 43.4923 58.3903 43.4596 60.1378C43.4486 60.9352 43.6234 61.7216 43.7217 62.5189V62.5298ZM49.8709 65.5771C51.0396 65.599 52.241 66.1997 53.3333 66.7349C53.7702 66.9533 53.9558 67.696 54.4037 68.4387H33.1162C32.9961 68.395 32.8759 68.3514 32.7558 68.3077V65.6099C33.2364 65.5771 33.6296 65.5334 34.0228 65.5334C39.2982 65.5334 44.5846 65.457 49.86 65.588L49.8709 65.5771ZM62.0492 51.9571C61.8526 51.9571 61.6451 51.9571 61.4485 51.9571C53.4534 51.9571 45.4474 51.9352 37.4523 51.9243C37.354 51.9243 37.2557 51.9243 37.1574 51.9134C36.0325 51.9134 34.9075 51.9352 33.7934 51.8588C33.4548 51.8369 33.149 51.5202 32.8213 51.3345C32.7995 48.9644 32.7776 46.5943 32.7449 44.2241C33.0835 44.0385 33.422 43.6999 33.7497 43.6999C43.0445 43.6671 52.3394 43.678 61.6233 43.6889C61.9509 43.6889 62.2786 43.8528 62.6062 43.9511C62.6718 46.496 62.7373 49.0408 62.8028 51.5966L62.0383 51.968L62.0492 51.9571ZM78.4544 67.9363C78.2469 68.1985 77.7226 68.2094 77.3513 68.3295C77.242 68.3514 77.1328 68.3623 77.0127 68.3841C73.9763 68.3623 70.929 68.3404 67.8926 68.3077C66.8441 68.2967 65.872 68.0783 65.6099 66.855C65.446 66.0905 65.5989 65.5225 66.5929 65.5225C70.4484 65.5443 74.3149 65.5007 78.1704 65.5553C78.5199 65.5553 79.1862 66.0905 79.1644 66.3307C79.1207 66.8878 78.8258 67.4776 78.4653 67.9363H78.4544Z" fill="#0B0968"/>
<path d="M24.3454 43.7653C23.7229 43.6998 22.86 43.7326 22.445 44.1148C20.4462 45.9607 18.5129 47.883 16.6999 49.9036C16.394 50.2422 16.6234 51.2689 16.8965 51.8259C17.0057 52.0335 18.1634 52.0553 18.4911 51.7604C20.4899 50.0019 22.3903 48.1451 24.3017 46.2884C24.6294 45.9716 24.7823 45.4801 25.0772 44.9558C24.8042 44.4971 24.6076 43.7981 24.3345 43.7653H24.3454Z" fill="#0B0968"/>
<path d="M15.9797 43.7982C15.6521 43.6125 14.9203 43.6999 14.6363 43.962C12.5611 45.8625 10.5405 47.8066 8.54171 49.7836C7.93006 50.3952 8.05021 51.0615 8.67277 51.6731C9.28442 52.2738 9.83053 52.2629 10.4422 51.6731C12.2443 49.9474 14.0684 48.2545 15.8487 46.5069C16.1982 46.1683 16.3511 45.6222 16.6132 45.1307C16.3839 44.5846 16.3074 43.9511 15.9907 43.7763L15.9797 43.7982Z" fill="#0B0968"/>
<path d="M38.2501 29.0095C38.8618 29.7632 39.4734 30.4076 40.4892 29.6976C41.0025 29.3372 41.5268 28.9768 41.9637 28.529C46.0268 24.5096 50.0789 20.4683 54.1201 16.4162C54.4478 16.0885 54.6116 15.597 54.8956 15.1165C54.6116 14.7014 54.3713 14.0024 54.0655 13.9696C53.3665 13.9041 52.4272 13.9259 51.9575 14.3301C50.4393 15.6189 49.085 17.0934 47.6869 18.5133C44.727 21.5169 41.778 24.5314 38.8181 27.535C38.4249 27.9392 37.562 28.1358 38.2501 28.9986V29.0095Z" fill="#0B0968"/>
<path d="M38.4238 8.07149C39.2321 8.28994 40.1386 8.12611 41.0015 8.12611C41.0015 8.18072 41.0015 8.23533 41.0124 8.28994C42.1265 8.1698 43.2624 8.13703 44.3437 7.87489C44.6604 7.79844 45.0099 7.09941 45.0209 6.67345C45.0318 6.3567 44.5621 5.74505 44.2672 5.72321C42.2466 5.5703 40.2151 5.45015 38.1945 5.52661C37.7466 5.54845 37.3207 6.36762 36.8838 6.82636C37.3862 7.26325 37.834 7.91858 38.4238 8.08242V8.07149Z" fill="#0B0968"/>
<path d="M74.9925 47.3807C74.632 47.2169 73.933 47.2715 73.6709 47.5227C72.2837 48.8224 70.984 50.2205 69.6406 51.5748C69.0726 52.1537 69.018 52.7326 69.6187 53.3115C70.2085 53.8576 70.8529 53.7921 71.399 53.3006C72.6005 52.2193 73.7801 51.1052 74.9269 49.9693C75.2874 49.6088 75.5058 49.0955 75.8772 48.5275C75.5604 48.0906 75.3529 47.5445 74.9925 47.3807Z" fill="#0B0968"/>
<path d="M40.9588 46.6597C40.1287 46.7253 39.5499 47.0092 39.6154 47.9595C39.67 48.866 40.2707 49.2592 41.0681 49.0954C41.6032 48.9862 42.062 48.5384 42.5426 48.2325C42.2695 47.042 41.8872 46.5833 40.9588 46.6597Z" fill="#0B0968"/>
</svg>
